<?xml version="1.0" encoding="utf-8"?>
<!-- Generator: Adobe Illustrator 19.2.1, SVG Export Plug-In . SVG Version: 6.00 Build 0)  -->
<svg version="1.1" id="Layer_1" xmlns="http://www.w3.org/2000/svg" xmlns:xlink="http://www.w3.org/1999/xlink" x="0px" y="0px"
	 viewBox="0 0 200 200" style="enable-background:new 0 0 200 200;" xml:space="preserve">
<style type="text/css">
	.st0{opacity:0.25;fill:none;}
	.st1{fill:#0054A6;stroke:#FFFFFF;stroke-linecap:round;stroke-linejoin:round;stroke-miterlimit:10;}
</style>
<g>
	<g>
		<rect class="st0" width="200" height="200"/>
	</g>
	<path class="st1" d="M115.5,99.3l14.3-35.4c-9-3.5-18.8-5.4-29.1-5.5v38.1C106,96.6,110.9,97.6,115.5,99.3z"/>
	<path class="st1" d="M16.7,141.7L16.7,141.7l38.1,0l0,0c0-6.7,1.5-13.1,4.1-18.8L23,109.8C18.9,119.6,16.7,130.4,16.7,141.7z"/>
	<path class="st1" d="M100,96.5c0.3,0,0.5,0,0.8,0V58.4c-0.3,0-0.5,0-0.8,0c-11.8,0-23,2.5-33.2,6.9l16.1,34.6
		C88.2,97.7,94,96.5,100,96.5z"/>
	<path class="st1" d="M129.8,63.9l-14.3,35.4c12.9,4.7,23,15.1,27.4,28.2l37.3-8.6C173,93.6,154.2,73.2,129.8,63.9z"/>
	<path class="st1" d="M142.9,127.5c1.5,4.5,2.3,9.2,2.3,14.2l0,0h38.1v0c0-7.9-1.1-15.5-3.2-22.8L142.9,127.5z"/>
	<path class="st1" d="M82.9,99.8L66.8,65.2C47,73.8,31.2,89.9,23,109.8l35.9,13.1C63.7,112.5,72.3,104.2,82.9,99.8z"/>
</g>
</svg>
