<?xml version="1.0" encoding="utf-8"?>
<!-- Generator: Adobe Illustrator 19.2.1, SVG Export Plug-In . SVG Version: 6.00 Build 0)  -->
<svg version="1.1" id="Layer_1" xmlns="http://www.w3.org/2000/svg" xmlns:xlink="http://www.w3.org/1999/xlink" x="0px" y="0px"
	 viewBox="0 0 200 200" style="enable-background:new 0 0 200 200;" xml:space="preserve">
<style type="text/css">
	.st0{opacity:0.25;fill:none;}
	.st1{fill:#28903B;stroke:#FFFFFF;stroke-width:1.25;stroke-miterlimit:10;}
	.st2{fill:#28903B;fill-opacity:0.5;stroke:#FFFFFF;stroke-width:1.25;stroke-miterlimit:10;}
	.st3{fill:none;stroke:#FFFFFF;stroke-width:3.75;stroke-miterlimit:10;}
</style>
<g>
	<g>
		<rect class="st0" width="200" height="200"/>
	</g>
	<rect x="16.7" y="151.6" class="st1" width="33.3" height="33.3"/>
	<rect x="50" y="151.6" class="st1" width="33.3" height="33.3"/>
	<rect x="83.3" y="151.6" class="st2" width="33.3" height="33.3"/>
	<rect x="116.7" y="151.6" class="st1" width="33.3" height="33.3"/>
	<rect x="150" y="151.6" class="st1" width="33.3" height="33.3"/>
	<rect x="16.7" y="117.4" class="st1" width="33.3" height="33.3"/>
	<rect x="50" y="117.4" class="st1" width="33.3" height="33.3"/>
	<rect x="83.3" y="117.4" class="st1" width="33.3" height="33.3"/>
	<rect x="116.7" y="117.4" class="st1" width="33.3" height="33.3"/>
	<rect x="150" y="117.4" class="st2" width="33.3" height="33.3"/>
	<rect x="16.7" y="83.2" class="st1" width="33.3" height="33.3"/>
	<rect x="50" y="83.2" class="st2" width="33.3" height="33.3"/>
	<rect x="83.3" y="83.2" class="st1" width="33.3" height="33.3"/>
	<rect x="116.7" y="83.2" class="st1" width="33.3" height="33.3"/>
	<rect x="150" y="83.2" class="st1" width="33.3" height="33.3"/>
	<rect x="16.7" y="48.9" class="st1" width="33.3" height="33.3"/>
	<rect x="50" y="48.9" class="st1" width="33.3" height="33.3"/>
	<rect x="83.3" y="48.9" class="st1" width="33.3" height="33.3"/>
	<rect x="116.7" y="48.9" class="st2" width="33.3" height="33.3"/>
	<rect x="150" y="48.9" class="st1" width="33.3" height="33.3"/>
	<rect x="16.7" y="14.7" class="st1" width="33.3" height="33.3"/>
	<rect x="50" y="14.7" class="st2" width="33.3" height="33.3"/>
	<rect x="83.3" y="14.7" class="st1" width="33.3" height="33.3"/>
	<rect x="116.7" y="14.7" class="st1" width="33.3" height="33.3"/>
	<rect x="150" y="14.7" class="st1" width="33.3" height="33.3"/>
	<polyline class="st3" points="150,15.1 150,116.8 116.7,116.8 116.7,185.3 	"/>
</g>
</svg>
