<?xml version="1.0" encoding="utf-8"?>
<!-- Generator: Adobe Illustrator 19.2.1, SVG Export Plug-In . SVG Version: 6.00 Build 0)  -->
<svg version="1.1" id="Layer_1" xmlns="http://www.w3.org/2000/svg" xmlns:xlink="http://www.w3.org/1999/xlink" x="0px" y="0px"
	 viewBox="0 0 200 200" style="enable-background:new 0 0 200 200;" xml:space="preserve">
<style type="text/css">
	.st0{opacity:0.25;fill:none;}
	.st1{fill:none;stroke:#28903B;stroke-width:1.25;stroke-miterlimit:10;}
	.st2{fill:#28903B;fill-opacity:0.5;}
</style>
<g>
	<g>
		<rect class="st0" width="200" height="200"/>
	</g>
</g>
<g>
	<line class="st1" x1="17.9" y1="79.1" x2="182.1" y2="79.1"/>
</g>
<g>
	<line class="st1" x1="17.9" y1="119.7" x2="182.1" y2="119.7"/>
</g>
<g>
	<line class="st1" x1="17.9" y1="160.2" x2="182.1" y2="160.2"/>
</g>
<g>
	<line class="st1" x1="17.9" y1="38.5" x2="182.1" y2="38.5"/>
</g>
<circle class="st2" cx="43" cy="38.5" r="18.5"/>
<circle class="st2" cx="65.2" cy="38.5" r="11.5"/>
<circle class="st2" cx="88.1" cy="38.5" r="17.9"/>
<circle class="st2" cx="122.4" cy="38.5" r="11.8"/>
<circle class="st2" cx="142.9" cy="38.5" r="8.7"/>
<circle class="st2" cx="155.3" cy="38.5" r="11.8"/>
<circle class="st2" cx="155.7" cy="79.1" r="18.5"/>
<circle class="st2" cx="126.5" cy="79.1" r="13.3"/>
<circle class="st2" cx="106" cy="79.1" r="9.3"/>
<circle class="st2" cx="66.9" cy="79.1" r="11.8"/>
<circle class="st2" cx="48.7" cy="79.1" r="8.7"/>
<circle class="st2" cx="42" cy="119.7" r="6.7"/>
<circle class="st2" cx="52.8" cy="119.7" r="6.7"/>
<circle class="st2" cx="70.2" cy="119.7" r="13.3"/>
<circle class="st2" cx="90.2" cy="119.7" r="9.3"/>
<circle class="st2" cx="108.6" cy="119.7" r="11.8"/>
<circle class="st2" cx="126.5" cy="119.7" r="8.7"/>
<circle class="st2" cx="169.4" cy="160.2" r="9.6"/>
<circle class="st2" cx="153.9" cy="160.2" r="9.6"/>
<circle class="st2" cx="128.9" cy="160.2" r="19.2"/>
<circle class="st2" cx="100.2" cy="160.2" r="13.3"/>
<circle class="st2" cx="73.6" cy="160.2" r="17"/>
</svg>
