<?xml version="1.0" encoding="utf-8"?>
<!-- Generator: Adobe Illustrator 19.2.1, SVG Export Plug-In . SVG Version: 6.00 Build 0)  -->
<svg version="1.1" id="Layer_1" xmlns="http://www.w3.org/2000/svg" xmlns:xlink="http://www.w3.org/1999/xlink" x="0px" y="0px"
	 viewBox="0 0 200 200" style="enable-background:new 0 0 200 200;" xml:space="preserve">
<style type="text/css">
	.st0{opacity:0.25;}
	.st1{fill:#0054A6;stroke:#FFFFFF;stroke-width:1.6489;stroke-linecap:round;stroke-linejoin:round;stroke-miterlimit:10;}
</style>
<g>
	<g class="st0">
	</g>
	<rect x="50" y="50.6" transform="matrix(-1 -1.224647e-16 1.224647e-16 -1 200 115.4791)" class="st1" width="100" height="14.3"/>
	<rect x="50" y="39" transform="matrix(-1 -1.224647e-16 1.224647e-16 -1 200 89.6509)" class="st1" width="100" height="11.6"/>
	<rect x="50" y="64.9" transform="matrix(-1 -1.224647e-16 1.224647e-16 -1 200 157.2981)" class="st1" width="100" height="27.6"/>
	<rect x="50" y="92.4" transform="matrix(-1 -1.224647e-16 1.224647e-16 -1 200 223.1152)" class="st1" width="100" height="38.3"/>
	
		<rect x="50" y="130.7" transform="matrix(-1 -1.224647e-16 1.224647e-16 -1 200 314.0236)" class="st1" width="100" height="52.6"/>
</g>
</svg>
