<?xml version="1.0" encoding="utf-8"?>
<!-- Generator: Adobe Illustrator 19.2.1, SVG Export Plug-In . SVG Version: 6.00 Build 0)  -->
<svg version="1.1" id="Layer_1" xmlns="http://www.w3.org/2000/svg" xmlns:xlink="http://www.w3.org/1999/xlink" x="0px" y="0px"
	 viewBox="0 0 200 200" style="enable-background:new 0 0 200 200;" xml:space="preserve">
<style type="text/css">
	.st0{opacity:0.25;fill:none;}
	.st1{fill:#28903B;fill-opacity:0.25;}
	.st2{fill:#28903B;fill-opacity:0.5;}
	.st3{fill:none;stroke:#28903B;stroke-width:2.5;stroke-linecap:round;stroke-linejoin:round;stroke-miterlimit:10;}
	.st4{fill:#28903B;}
	.st5{fill:none;stroke:#28903B;stroke-width:0.625;stroke-miterlimit:10;stroke-dasharray:2.5,2.5;}
</style>
<polyline class="st0" points="0,200 0,0 200,0 200,200 "/>
<path class="st1" d="M125.9,126.1c0,0,5.3,3.7,16.8-9.1c11.5-12.8,40.7-54.1,40.7-54.1v118.3c0,0-38.2-14.1-47.8-25.5
	C125.9,144.2,125.9,126.1,125.9,126.1z"/>
<path class="st2" d="M123.4,125.1c0,0,14.9,4.9,26.1-6.7c11.2-11.6,33.7-32.7,33.7-32.7v77.1C183.2,162.7,131.3,156.5,123.4,125.1z"
	/>
<path class="st3" d="M16.7,110.3c0,0,5-16.1,8.7-22.8c3.7-6.7,8.7-10.8,13.7-6.7c5,4,16.1,14.8,16.1,14.8s6.2-6.7,11.2-12.1
	c5-5.4,12.4-14.8,14.9-10.8c2.5,4,9.9,21.5,13.7,24.2c3.7,2.7,12.1,10.6,17.4,14.8c5.6,4.5,18.4,20.6,18.4,20.6"/>
<path class="st4" d="M122.6,126c0,0,1.9-0.2,6.8,0.9c2.5,0.5,4.6,1,10.4,1c17.4,0,28.1-10.8,33.1-13.4c5-2.7,9.1-8.1,9.1-8.1v33.2
	c0,0-24,8.1-39.7,2.7C126.6,136.9,122.6,126,122.6,126z"/>
<line class="st5" x1="125.6" y1="16.7" x2="125.6" y2="183.3"/>
</svg>
