<?xml version="1.0" encoding="utf-8"?>
<!-- Generator: Adobe Illustrator 19.2.1, SVG Export Plug-In . SVG Version: 6.00 Build 0)  -->
<svg version="1.1" id="Layer_1" xmlns="http://www.w3.org/2000/svg" xmlns:xlink="http://www.w3.org/1999/xlink" x="0px" y="0px"
	 viewBox="0 0 200 200" style="enable-background:new 0 0 200 200;" xml:space="preserve">
<style type="text/css">
	.st0{fill:none;}
	.st1{fill:none;stroke:#E4AF23;stroke-width:1.25;stroke-linecap:round;stroke-linejoin:round;stroke-miterlimit:10;}
	.st2{fill:#E4AF23;}
</style>
<g>
	<g>
		<rect y="0" class="st0" width="200" height="200"/>
	</g>
	<line class="st1" x1="183.3" y1="87.3" x2="16.7" y2="87.3"/>
	<polygon class="st2" points="79,75.6 69.6,66.1 62.6,74.3 54.3,18.7 47.3,66.1 41.4,75.6 32,67.5 16.7,72.9 16.7,88.6 81.1,88.6 	
		"/>
	<polygon class="st2" points="180.3,87.8 175.6,55.3 170.6,88.6 181.6,88.6 	"/>
	<polygon class="st2" points="81.1,88.6 90.8,165 102.6,119 109.7,136.6 114.4,113.5 121.4,170.4 128.5,114.9 135.5,144.7 
		141.4,121.7 149.7,182.6 156.7,109.5 165,125.7 170.6,88.6 	"/>
</g>
</svg>
