<?xml version="1.0" encoding="utf-8"?>
<!-- Generator: Adobe Illustrator 19.2.1, SVG Export Plug-In . SVG Version: 6.00 Build 0)  -->
<svg version="1.1" id="Layer_1" xmlns="http://www.w3.org/2000/svg" xmlns:xlink="http://www.w3.org/1999/xlink" x="0px" y="0px"
	 viewBox="0 0 200 200" style="enable-background:new 0 0 200 200;" xml:space="preserve">
<style type="text/css">
	.st0{fill:#F26522;}
	.st1{fill:#F26522;fill-opacity:0.5;}
	.st2{opacity:0.25;fill:none;}
</style>
<rect x="114.1" y="180.1" class="st0" width="66.5" height="3.2"/>
<rect x="114.1" y="176.6" class="st0" width="64.9" height="3.2"/>
<rect x="34.5" y="180.1" class="st1" width="75" height="3.2"/>
<rect x="36.4" y="176.6" class="st1" width="73.1" height="3.2"/>
<g>
	<g>
		<rect class="st2" width="200" height="200"/>
	</g>
	<rect x="114.1" y="173" class="st0" width="66.7" height="3.2"/>
	<rect x="114.1" y="169.5" class="st0" width="66.8" height="3.2"/>
	<rect x="114.1" y="165.9" class="st0" width="68.2" height="3.2"/>
	<rect x="114.1" y="162.4" class="st0" width="67.8" height="3.2"/>
	<rect x="114.1" y="158.8" class="st0" width="68.5" height="3.2"/>
	<rect x="114.1" y="155.3" class="st0" width="68.6" height="3.2"/>
	<rect x="114.1" y="151.7" class="st0" width="67.8" height="3.2"/>
	<rect x="114.1" y="148.2" class="st0" width="66.4" height="3.2"/>
	<rect x="114.1" y="144.6" class="st0" width="65" height="3.2"/>
	<rect x="114.1" y="141" class="st0" width="62.5" height="3.2"/>
	<rect x="114.1" y="137.5" class="st0" width="59.6" height="3.2"/>
	<rect x="114.1" y="133.9" class="st0" width="68.1" height="3.2"/>
	<rect x="114.1" y="130.4" class="st0" width="66.6" height="3.2"/>
	<rect x="114.1" y="126.8" class="st0" width="64.1" height="3.2"/>
	<rect x="114.1" y="123.3" class="st0" width="61.8" height="3.2"/>
	<rect x="114.1" y="119.7" class="st0" width="59.4" height="3.2"/>
	<rect x="114.1" y="116.2" class="st0" width="69.2" height="3.2"/>
	<rect x="114.1" y="112.6" class="st0" width="59.3" height="3.2"/>
	<rect x="114.1" y="109.1" class="st0" width="58.7" height="3.2"/>
	<rect x="114.1" y="105.5" class="st0" width="56.7" height="3.2"/>
	<rect x="114.1" y="102" class="st0" width="57.1" height="3.2"/>
	<rect x="114.1" y="98.4" class="st0" width="58" height="3.2"/>
	<rect x="114.1" y="94.8" class="st0" width="59.5" height="3.2"/>
	<rect x="114.1" y="91.3" class="st0" width="62.5" height="3.2"/>
	<rect x="114.1" y="87.7" class="st0" width="67.7" height="3.2"/>
	<rect x="114.1" y="84.2" class="st0" width="52.1" height="3.2"/>
	<rect x="114.1" y="80.6" class="st0" width="50.2" height="3.2"/>
	<rect x="114.1" y="77.1" class="st0" width="67" height="3.2"/>
	<rect x="114.1" y="73.5" class="st0" width="50" height="3.2"/>
	<rect x="114.1" y="70" class="st0" width="46.1" height="3.2"/>
	<rect x="114.1" y="66.4" class="st0" width="40.8" height="3.2"/>
	<rect x="114.1" y="62.9" class="st0" width="36.4" height="3.2"/>
	<rect x="114.1" y="59.3" class="st0" width="37.5" height="3.2"/>
	<rect x="114.1" y="55.8" class="st0" width="36.8" height="3.2"/>
	<rect x="114.1" y="52.2" class="st0" width="35.5" height="3.2"/>
	<rect x="114.1" y="48.6" class="st0" width="33.1" height="3.2"/>
	<rect x="114.1" y="45.1" class="st0" width="30.9" height="3.2"/>
	<rect x="114.1" y="41.5" class="st0" width="28.9" height="3.2"/>
	<rect x="114.1" y="38" class="st0" width="40.3" height="3.2"/>
	<rect x="114.1" y="34.4" class="st0" width="26.1" height="3.2"/>
	<rect x="114.1" y="30.9" class="st0" width="24.2" height="3.2"/>
	<rect x="114.1" y="27.3" class="st0" width="22.8" height="3.2"/>
	<rect x="114.1" y="23.8" class="st0" width="20.7" height="3.2"/>
	<rect x="114.1" y="20.2" class="st0" width="18.4" height="3.2"/>
	<rect x="114.1" y="16.7" class="st0" width="15.9" height="3.2"/>
	<rect x="34.3" y="173" class="st1" width="75.2" height="3.2"/>
	<rect x="34.3" y="169.5" class="st1" width="75.2" height="3.2"/>
	<rect x="33.5" y="165.9" class="st1" width="76" height="3.2"/>
	<rect x="33.1" y="162.4" class="st1" width="76.4" height="3.2"/>
	<rect x="27.7" y="158.8" class="st1" width="81.8" height="3.2"/>
	<rect x="21.9" y="155.3" class="st1" width="87.5" height="3.2"/>
	<rect x="16.7" y="151.7" class="st1" width="92.8" height="3.2"/>
	<rect x="18.4" y="148.2" class="st1" width="91.1" height="3.2"/>
	<rect x="20.3" y="144.6" class="st1" width="89.2" height="3.2"/>
	<rect x="22.9" y="141" class="st1" width="86.6" height="3.2"/>
	<rect x="25.8" y="137.5" class="st1" width="83.7" height="3.2"/>
	<rect x="27.3" y="133.9" class="st1" width="82.2" height="3.2"/>
	<rect x="28.8" y="130.4" class="st1" width="80.7" height="3.2"/>
	<rect x="31.2" y="126.8" class="st1" width="78.3" height="3.2"/>
	<rect x="33.5" y="123.3" class="st1" width="76" height="3.2"/>
	<rect x="35.7" y="119.7" class="st1" width="73.8" height="3.2"/>
	<rect x="30.9" y="116.2" class="st1" width="78.6" height="3.2"/>
	<rect x="35.4" y="112.6" class="st1" width="74.1" height="3.2"/>
	<rect x="36.2" y="109.1" class="st1" width="73.3" height="3.2"/>
	<rect x="37.7" y="105.5" class="st1" width="71.8" height="3.2"/>
	<rect x="37.2" y="102" class="st1" width="72.3" height="3.2"/>
	<rect x="35.8" y="98.4" class="st1" width="73.7" height="3.2"/>
	<rect x="34.4" y="94.8" class="st1" width="75.1" height="3.2"/>
	<rect x="31" y="91.3" class="st1" width="78.5" height="3.2"/>
	<rect x="25.6" y="87.7" class="st1" width="83.8" height="3.2"/>
	<rect x="41.6" y="84.2" class="st1" width="67.9" height="3.2"/>
	<rect x="43.1" y="80.6" class="st1" width="66.4" height="3.2"/>
	<rect x="33.2" y="77.1" class="st1" width="76.3" height="3.2"/>
	<rect x="43.3" y="73.5" class="st1" width="66.2" height="3.2"/>
	<rect x="46.5" y="70" class="st1" width="63" height="3.2"/>
	<rect x="51.5" y="66.4" class="st1" width="58" height="3.2"/>
	<rect x="55.7" y="62.9" class="st1" width="53.8" height="3.2"/>
	<rect x="54.3" y="59.3" class="st1" width="55.2" height="3.2"/>
	<rect x="54.6" y="55.8" class="st1" width="54.9" height="3.2"/>
	<rect x="55.8" y="52.2" class="st1" width="53.7" height="3.2"/>
	<rect x="57.7" y="48.6" class="st1" width="51.8" height="3.2"/>
	<rect x="59.4" y="45.1" class="st1" width="50.1" height="3.2"/>
	<rect x="61.3" y="41.5" class="st1" width="48.2" height="3.2"/>
	<rect x="59.6" y="38" class="st1" width="49.9" height="3.2"/>
	<rect x="63.7" y="34.4" class="st1" width="45.7" height="3.2"/>
	<rect x="65.3" y="30.9" class="st1" width="44.2" height="3.2"/>
	<rect x="66.1" y="27.3" class="st1" width="43.4" height="3.2"/>
	<rect x="67.6" y="23.8" class="st1" width="41.9" height="3.2"/>
	<rect x="69.6" y="20.2" class="st1" width="39.9" height="3.2"/>
	<rect x="72.3" y="16.7" class="st1" width="37.2" height="3.2"/>
</g>
<rect x="114.1" y="180.1" class="st0" width="66.5" height="3.2"/>
<rect x="114.1" y="176.6" class="st0" width="64.9" height="3.2"/>
</svg>
