<?xml version="1.0" encoding="utf-8"?>
<!-- Generator: Adobe Illustrator 19.2.1, SVG Export Plug-In . SVG Version: 6.00 Build 0)  -->
<svg version="1.1" id="Layer_1" xmlns="http://www.w3.org/2000/svg" xmlns:xlink="http://www.w3.org/1999/xlink" x="0px" y="0px"
	 viewBox="0 0 200 200" style="enable-background:new 0 0 200 200;" xml:space="preserve">
<style type="text/css">
	.st0{opacity:0.25;fill:none;}
	.st1{fill:none;stroke:#28903B;stroke-width:2.5;}
	.st2{fill:none;stroke:#28903B;stroke-width:1.25;}
</style>
<g>
	<g>
		<rect class="st0" width="200" height="200"/>
	</g>
</g>
<g>
	<g>
		<line class="st1" x1="147.4" y1="16.7" x2="147.4" y2="150.9"/>
		<line class="st1" x1="123.5" y1="49.1" x2="123.5" y2="118.4"/>
		<line class="st1" x1="99.7" y1="97.8" x2="99.7" y2="167.1"/>
		<line class="st1" x1="75.8" y1="146.5" x2="75.8" y2="183.3"/>
		<line class="st1" x1="51.9" y1="97.8" x2="51.9" y2="167.1"/>
		<line class="st1" x1="171.3" y1="65.3" x2="171.3" y2="167.1"/>
		<line class="st1" x1="28" y1="65.3" x2="28" y2="150.9"/>
		<line class="st2" x1="28" y1="73.9" x2="16.7" y2="73.9"/>
		<line class="st2" x1="147.4" y1="57.7" x2="136.1" y2="57.7"/>
		<line class="st1" x1="51.9" y1="97.8" x2="51.9" y2="167.1"/>
		<line class="st2" x1="123.5" y1="73.9" x2="112.2" y2="73.9"/>
		<line class="st1" x1="51.9" y1="97.8" x2="51.9" y2="167.1"/>
		<line class="st2" x1="99.7" y1="106.4" x2="88.3" y2="106.4"/>
		<line class="st1" x1="51.9" y1="97.8" x2="51.9" y2="167.1"/>
		<line class="st2" x1="75.8" y1="155.1" x2="64.4" y2="155.1"/>
		<line class="st1" x1="51.9" y1="97.8" x2="51.9" y2="167.1"/>
		<line class="st2" x1="51.9" y1="122.6" x2="40.5" y2="122.6"/>
		<line class="st2" x1="171.3" y1="90.2" x2="159.9" y2="90.2"/>
		<line class="st2" x1="39.4" y1="145.3" x2="28" y2="145.3"/>
		<line class="st2" x1="159.5" y1="140.5" x2="148.1" y2="140.5"/>
		<line class="st2" x1="135.6" y1="108" x2="124.2" y2="108"/>
		<line class="st2" x1="111.7" y1="156.7" x2="100.3" y2="156.7"/>
		<line class="st2" x1="87.8" y1="172.9" x2="76.5" y2="172.9"/>
		<line class="st2" x1="63.9" y1="161.6" x2="52.6" y2="161.6"/>
		<line class="st2" x1="183.3" y1="156.7" x2="172" y2="156.7"/>
	</g>
</g>
</svg>
