<?xml version="1.0" encoding="utf-8"?>
<!-- Generator: Adobe Illustrator 19.2.1, SVG Export Plug-In . SVG Version: 6.00 Build 0)  -->
<svg version="1.1" id="Layer_1" xmlns="http://www.w3.org/2000/svg" xmlns:xlink="http://www.w3.org/1999/xlink" x="0px" y="0px"
	 viewBox="0 0 200 200" style="enable-background:new 0 0 200 200;" xml:space="preserve">
<style type="text/css">
	.st0{opacity:0.25;fill:none;}
	.st1{fill:#0054A6;stroke:#FFFFFF;}
	.st2{fill:#0054A6;}
</style>
<g>
	<g>
		<rect class="st0" width="200" height="200"/>
	</g>
	<path class="st1" d="M96.6,144.9c-21.9,0-39.6-17.7-39.6-39.6c0-21.9,17.7-39.6,39.6-39.6c0,0,0,0,0,0c21.9,0,39.6,17.7,39.6,39.6
		C136.2,127.1,118.4,144.9,96.6,144.9C96.6,144.9,96.6,144.9,96.6,144.9z	">
<title>flare
956,129</title>
	</path>
	<path class="st1" d="M46.4,80.2c2.7-5.4,6.2-10.3,10.4-14.5l11.6,11.6c-3,3-5.5,6.5-7.4,10.3L46.4,80.2z	">
<title>analytics
48,716</title>
	</path>
	<path class="st1" d="M41.4,64.5c1.4-1.8,2.8-3.6,4.3-5.3l9.3,8.5c-1.3,1.4-2.4,2.8-3.5,4.3L41.4,64.5z	">
<title>cluster
15,207</title>
	</path>
	<path class="st1" d="M35.2,74.6c1.8-3.6,3.9-7,6.2-10.2l10.1,7.5c-1.9,2.6-3.6,5.4-5.1,8.3L35.2,74.6z	">
<title>graph
26,435</title>
	</path>
	<path class="st1" d="M30.8,61.1c-0.6,0.8-1.1,1.7-1.6,2.5c-0.5,0.9-1.1,1.8-1.6,2.7c-0.7,1.2-1.3,2.4-1.9,3.6l9.5,4.7
		c0.5-1.1,1.1-2.1,1.7-3.1c0.4-0.8,0.9-1.5,1.4-2.3c0.5-0.7,0.9-1.5,1.4-2.2L30.8,61.1z"/>
	<path class="st1" d="M40.4,49.4c-0.9,0.9-1.7,1.8-2.5,2.7c-0.1,0.1-0.2,0.2-0.3,0.3c-0.4,0.5-0.9,1-1.3,1.5c-0.4,0.5-0.9,1-1.3,1.6
		c-0.7,0.9-1.4,1.8-2.1,2.8c-0.4,0.5-0.7,1-1,1.4c-0.4,0.5-0.7,1-1,1.5l8.8,5.9c0.3-0.4,0.6-0.9,0.9-1.3c0.3-0.4,0.6-0.8,0.9-1.2
		c0.6-0.8,1.2-1.6,1.9-2.4c0.4-0.5,0.8-0.9,1.1-1.4c0.4-0.4,0.7-0.9,1.1-1.3c0.1-0.1,0.1-0.2,0.2-0.2c0.7-0.8,1.4-1.6,2.2-2.3
		L40.4,49.4z"/>
	<path class="st1" d="M56.9,144.8c-8.7-8.8-14.3-20.2-15.9-32.5l16.3-2.1c1.1,8.7,5.1,16.8,11.2,23L56.9,144.8z	">
<title>animate
100,024</title>
	</path>
	<path class="st1" d="M48,153.7c-2.5-2.5-4.7-5.1-6.8-7.9l10.2-7.4c1.7,2.3,3.5,4.4,5.5,6.4L48,153.7z	">
<title>interpolate
23,081</title>
	</path>
	<path class="st2" d="M45.3,150.8c-0.2-0.2-0.4-0.5-0.7-0.7c-0.2-0.2-0.4-0.5-0.6-0.7c-0.2-0.2-0.4-0.5-0.6-0.7
		c-0.2-0.2-0.4-0.5-0.6-0.7c-0.2-0.2-0.3-0.4-0.5-0.6c-0.2-0.2-0.3-0.4-0.4-0.6c-0.1-0.2-0.3-0.3-0.4-0.5c-0.1-0.2-0.2-0.3-0.4-0.5
		l-8.6,6.3c0.1,0.2,0.3,0.4,0.4,0.6c0.1,0.2,0.3,0.4,0.4,0.6c0.2,0.2,0.3,0.4,0.5,0.7c0.2,0.2,0.4,0.5,0.5,0.7
		c0.2,0.3,0.4,0.5,0.6,0.8c0.2,0.3,0.5,0.5,0.7,0.8c0.2,0.3,0.5,0.5,0.7,0.8c0.2,0.3,0.5,0.6,0.8,0.9c1,1.1,2,2.2,3.1,3.3l7.5-7.5
		C47,152.8,46.1,151.8,45.3,150.8z"/>
	<path class="st1" d="M28.6,114.6c0-0.2,0-0.3-0.1-0.5l12.5-1.6c0,0.1,0,0.3,0.1,0.4L28.6,114.6z	">
<title>ISchedulable
1,041</title>
	</path>
	<path class="st1" d="M28.5,114.1c0-0.1,0-0.1,0-0.2l12.5-1.6c0,0.1,0,0.1,0,0.2L28.5,114.1z	">
<title>Pause
449</title>
	</path>
	<path class="st1" d="M41.2,145.8c-1.8-2.4-3.4-5-4.8-7.6l11-6c1.2,2.2,2.5,4.2,3.9,6.2L41.2,145.8z	">
<title>Transitioner
19,975</title>
	</path>
	<path class="st1" d="M28.6,115.1c0-0.2,0-0.3-0.1-0.5l12.5-1.7c0,0.1,0,0.3,0.1,0.4L28.6,115.1z	">
<title>TransitionEvent
1,116</title>
	</path>
	<path class="st1" d="M44.7,126.5c-0.4-1-0.8-2.1-1.2-3.2c-0.2-0.7-0.5-1.4-0.7-2.1c-0.2-0.7-0.4-1.4-0.6-2.1
		c-0.2-0.7-0.3-1.3-0.5-2c-0.1-0.7-0.3-1.3-0.4-2c-0.1-0.6-0.2-1.3-0.3-1.9l-12.5,1.8c0.1,0.8,0.2,1.5,0.4,2.3
		c0.1,0.8,0.3,1.6,0.5,2.4c0.2,0.8,0.4,1.6,0.6,2.5c0.2,0.9,0.5,1.7,0.7,2.5c0.3,0.9,0.5,1.7,0.8,2.6c0.4,1.3,0.9,2.6,1.5,3.9
		c1,2.4,2.1,4.7,3.3,6.9l11-6C46.4,130.3,45.5,128.4,44.7,126.5z"/>
	<path class="st1" d="M65.7,58.5c3.1-2,6.4-3.8,9.9-5.2l6.1,15.2c-2.4,1-4.8,2.2-7,3.7L65.7,58.5z	">
<title>data
30,284</title>
	</path>
	<path class="st1" d="M58.8,47.9c2.3-1.5,4.7-2.9,7.2-4.1l5.6,11.3c-2,1-4,2.1-5.9,3.4L58.8,47.9z	">
<title>converters
18,349</title>
	</path>
	<path class="st1" d="M61.3,34.3c-0.1,0.1-0.2,0.1-0.3,0.2c-0.2,0.1-0.4,0.2-0.6,0.3c-0.3,0.2-0.7,0.4-1,0.5c-0.7,0.4-1.3,0.7-2,1.1
		c-1.5,0.8-2.9,1.7-4.3,2.7l5.8,8.9c1.2-0.8,2.5-1.6,3.8-2.3c0.6-0.3,1.1-0.6,1.7-0.9c0.3-0.2,0.6-0.3,0.9-0.5
		c0.2-0.1,0.4-0.2,0.5-0.3c0.1,0,0.2-0.1,0.3-0.1L61.3,34.3z"/>
	<path class="st1" d="M95,49.2c-3,0.1-5.9,0.4-8.9,1l3,16.1c2.1-0.4,4.2-0.6,6.3-0.7c0.4,0,0.7,0,1.1,0V49.2
		C96,49.2,95.5,49.2,95,49.2z"/>
	<path class="st1" d="M94.7,36.7c-0.3,0-0.5,0-0.8,0c-0.5,0-1.1,0-1.6,0.1c-1.3,0.1-2.6,0.2-4,0.4l1.5,12.5c1.1-0.1,2.2-0.2,3.2-0.3
		c0.4,0,0.9-0.1,1.3-0.1c0.2,0,0.4,0,0.6,0c0.5,0,1,0,1.5,0V36.6C95.9,36.6,95.3,36.6,94.7,36.7z"/>
	<path class="st1" d="M75.6,53.3c3.4-1.4,6.9-2.4,10.6-3.1l3,16.1c-2.6,0.5-5.1,1.2-7.5,2.2L75.6,53.3z	">
<title>physics
29,934</title>
	</path>
	<path class="st1" d="M88.3,37.1c-1.5,0.2-3,0.4-4.5,0.7c0,0-0.1,0-0.1,0c-0.2,0-0.3,0.1-0.5,0.1c-0.2,0-0.4,0.1-0.6,0.1
		c-0.2,0.1-0.5,0.1-0.7,0.2c-0.3,0.1-0.6,0.1-1,0.2c-0.4,0.1-0.8,0.2-1.2,0.3c-1.5,0.4-2.9,0.8-4.3,1.2c-1.5,0.5-3,1-4.4,1.6
		c-0.1,0-0.2,0.1-0.2,0.1c-0.1,0-0.2,0.1-0.3,0.1c-0.2,0.1-0.5,0.2-0.7,0.3c-0.3,0.1-0.6,0.3-0.9,0.4c-0.5,0.2-0.9,0.4-1.4,0.6
		c-0.5,0.2-0.9,0.4-1.4,0.7l5.6,11.3c0.4-0.2,0.7-0.4,1.1-0.5c0.4-0.2,0.7-0.3,1.1-0.5c0.2-0.1,0.5-0.2,0.7-0.3
		c0.2-0.1,0.4-0.2,0.6-0.3c0.1,0,0.2-0.1,0.3-0.1c0.1,0,0.1-0.1,0.2-0.1c1.2-0.5,2.4-0.9,3.6-1.3c1.2-0.4,2.3-0.7,3.5-1
		c0.3-0.1,0.7-0.2,1-0.2c0.3-0.1,0.5-0.1,0.8-0.2c0.2,0,0.4-0.1,0.6-0.1c0.2,0,0.3-0.1,0.5-0.1c0.1,0,0.3-0.1,0.4-0.1
		c0,0,0.1,0,0.1,0c1.2-0.2,2.4-0.4,3.7-0.6L88.3,37.1z"/>
	<path class="st1" d="M41,112.3c-1.4-11,0.5-22.2,5.4-32.1l14.7,7.3c-3.5,7-4.8,14.9-3.9,22.7L41,112.3z	">
<title>query
89,721</title>
	</path>
	<path class="st1" d="M28.5,113.9c-0.3-2.1-0.4-4.3-0.5-6.4l12.6-0.4c0.1,1.8,0.2,3.5,0.4,5.3L28.5,113.9z	">
<title>methods
14,326</title>
	</path>
	<path class="st2" d="M28.4,113.6c0-0.1,0-0.2,0-0.3c0-0.1,0-0.2,0-0.3c0-0.1,0-0.2,0-0.3c0-0.1,0-0.2,0-0.3c0-0.1,0-0.2,0-0.3
		c0-0.1,0-0.2,0-0.3c0-0.1,0-0.2,0-0.3c0-0.1,0-0.2,0-0.3c0-0.1,0-0.2,0-0.3c0-0.1,0-0.2,0-0.3c0-0.1,0-0.2,0-0.3c0-0.1,0-0.2,0-0.3
		c0-0.1,0-0.1,0-0.2c0-0.1,0-0.1,0-0.2c0-0.1,0-0.1,0-0.2c0-0.1,0-0.1,0-0.2c0-0.1,0-0.1,0-0.2c0-0.1,0-0.1,0-0.2c0,0,0-0.1,0-0.1
		c0,0,0-0.1,0-0.1c0,0,0-0.1,0-0.1c0,0,0-0.1,0-0.1c0,0,0-0.1,0-0.1c0,0,0-0.1,0-0.1c0,0,0-0.1,0-0.1c0,0,0-0.1,0-0.1
		c0,0,0-0.1,0-0.1c0,0,0-0.1,0-0.1c0,0,0-0.1,0-0.1c0,0,0-0.1,0-0.1c0,0,0-0.1,0-0.1l-10.6,0.3c0,0,0,0.1,0,0.1c0,0,0,0.1,0,0.1
		c0,0,0,0.1,0,0.1c0,0,0,0.1,0,0.1c0,0,0,0.1,0,0.1c0,0,0,0.1,0,0.1c0,0.1,0,0.1,0,0.2c0,0.1,0,0.1,0,0.2c0,0.1,0,0.1,0,0.2
		c0,0.1,0,0.1,0,0.2c0,0.1,0,0.1,0,0.2c0,0.1,0,0.1,0,0.2c0,0.1,0,0.1,0,0.2c0,0.1,0,0.1,0,0.2c0,0.1,0,0.1,0,0.2c0,0.1,0,0.1,0,0.2
		c0,0.1,0,0.1,0,0.2c0,0.1,0,0.2,0,0.2c0,0.1,0,0.2,0,0.2c0,0.1,0,0.2,0,0.3c0,0.1,0,0.2,0,0.3c0,0.1,0,0.2,0,0.3c0,0.1,0,0.2,0,0.3
		c0,0.1,0,0.2,0,0.3c0,0.1,0,0.2,0,0.3c0,0.1,0,0.2,0,0.3c0,0.1,0,0.2,0,0.3c0,0.1,0,0.2,0,0.3c0,0.1,0,0.2,0,0.3c0,0.1,0,0.2,0,0.3
		c0,0.1,0,0.3,0,0.4c0,0.1,0,0.3,0,0.4l10.5-1.3C28.5,113.8,28.5,113.7,28.4,113.6z"/>
	<path class="st1" d="M30.1,88c-0.1,0.5-0.3,1.1-0.4,1.6c-0.1,0.5-0.3,1.1-0.4,1.6c-0.1,0.6-0.2,1.1-0.3,1.7
		c-0.1,0.6-0.2,1.2-0.3,1.8c-0.1,0.6-0.2,1.2-0.3,1.8c-0.1,0.8-0.2,1.5-0.3,2.3c-0.1,0.8-0.1,1.5-0.2,2.3c-0.1,2.1-0.1,4.2-0.1,6.3
		l12.6-0.4c-0.1-1.7,0-3.4,0.1-5.1c0-0.6,0.1-1.3,0.1-1.9c0.1-0.6,0.1-1.2,0.2-1.9c0.1-0.5,0.1-1,0.2-1.5c0.1-0.5,0.2-1,0.3-1.5
		c0.1-0.5,0.2-0.9,0.3-1.4c0.1-0.5,0.2-0.9,0.3-1.3c0.1-0.4,0.2-0.9,0.3-1.3L30.1,88z"/>
	<path class="st1" d="M35.2,74.6c-0.1,0.1-0.1,0.2-0.2,0.3c-0.1,0.1-0.1,0.2-0.2,0.3c-0.1,0.1-0.1,0.2-0.2,0.3
		c-0.1,0.1-0.1,0.2-0.2,0.3c-0.1,0.1-0.1,0.2-0.2,0.4c-0.1,0.1-0.1,0.3-0.2,0.4c-0.1,0.1-0.1,0.3-0.2,0.4c-0.1,0.1-0.1,0.3-0.2,0.4
		c-0.1,0.2-0.1,0.3-0.2,0.5c-0.1,0.2-0.1,0.3-0.2,0.5c-0.1,0.2-0.1,0.3-0.2,0.5c-0.1,0.2-0.2,0.4-0.3,0.6c-0.1,0.2-0.2,0.4-0.3,0.7
		c-0.1,0.2-0.2,0.5-0.3,0.7c-0.1,0.3-0.2,0.5-0.3,0.8c-0.1,0.3-0.2,0.6-0.3,0.9c-0.1,0.4-0.3,0.8-0.4,1.2c-0.1,0.4-0.3,0.8-0.4,1.2
		c-0.1,0.5-0.3,0.9-0.4,1.4c-0.1,0.5-0.3,1-0.4,1.6l12.2,3.2c0.1-0.4,0.2-0.9,0.4-1.3c0.1-0.4,0.2-0.8,0.3-1.1
		c0.1-0.3,0.2-0.7,0.3-1c0.1-0.3,0.2-0.6,0.3-1c0.1-0.2,0.2-0.5,0.3-0.7c0.1-0.2,0.2-0.4,0.2-0.6c0.1-0.2,0.1-0.4,0.2-0.6
		c0.1-0.2,0.1-0.4,0.2-0.5c0.1-0.2,0.1-0.4,0.2-0.5c0.1-0.1,0.1-0.3,0.2-0.4c0.1-0.1,0.1-0.3,0.2-0.4c0.1-0.1,0.1-0.2,0.2-0.4
		c0.1-0.1,0.1-0.2,0.2-0.3c0-0.1,0.1-0.2,0.1-0.3c0-0.1,0.1-0.2,0.1-0.3c0-0.1,0.1-0.2,0.1-0.3c0-0.1,0.1-0.2,0.1-0.3
		s0.1-0.2,0.1-0.3c0-0.1,0.1-0.2,0.1-0.3c0-0.1,0.1-0.2,0.1-0.3L35.2,74.6z"/>
	<path class="st1" d="M56.8,65.7c2.7-2.7,5.7-5.2,8.9-7.3l9,13.7c-2.3,1.5-4.4,3.2-6.3,5.1L56.8,65.7z	">
<title>scale
31,294</title>
	</path>
	<path class="st1" d="M58.8,47.9c-0.2,0.1-0.3,0.2-0.5,0.3c-0.2,0.1-0.4,0.3-0.7,0.4c-0.2,0.2-0.4,0.3-0.7,0.5
		c-0.3,0.2-0.5,0.4-0.8,0.6c-0.3,0.2-0.6,0.4-0.9,0.7c-0.4,0.3-0.8,0.6-1.1,0.9c-0.4,0.3-0.9,0.7-1.3,1.1c-0.5,0.4-1,0.8-1.5,1.2
		c-0.5,0.5-1.1,1-1.6,1.5c-0.6,0.6-1.3,1.2-1.9,1.8c-0.8,0.8-1.5,1.5-2.2,2.3l9.3,8.5c0.6-0.6,1.2-1.3,1.8-1.9c0.5-0.5,1-1,1.5-1.5
		c0.4-0.4,0.9-0.8,1.3-1.2c0.4-0.3,0.8-0.7,1.2-1c0.4-0.3,0.7-0.6,1.1-0.9c0.3-0.2,0.6-0.5,0.9-0.7c0.2-0.2,0.5-0.4,0.7-0.5
		c0.2-0.2,0.4-0.3,0.6-0.5c0.2-0.1,0.4-0.3,0.6-0.4c0.2-0.1,0.4-0.2,0.5-0.4c0.1-0.1,0.3-0.2,0.4-0.3L58.8,47.9z"/>
	<path class="st1" d="M113,158.8c-19.9,6.1-41.5,0.7-56.2-14l11.6-11.6c10.4,10.4,25.7,14.2,39.7,9.9L113,158.8z	">
<title>util
165,157</title>
	</path>
	<path class="st2" d="M70.9,168.9c-0.2-0.1-0.3-0.1-0.5-0.2l-4,9.8c0.2,0.1,0.4,0.2,0.6,0.2c1.5,0.6,3,1.2,4.6,1.7l3.4-10.1
		C73.5,169.9,72.2,169.4,70.9,168.9z"/>
	<path class="st1" d="M48.1,153.8c0,0-0.1-0.1-0.1-0.1l8.9-8.9c0,0,0.1,0.1,0.1,0.1L48.1,153.8z	">
<title>IEvaluable
335</title>
	</path>
	<path class="st1" d="M78.9,158.4c-1.2-0.4-2.5-0.9-3.7-1.4c-1.1-0.5-2.3-1-3.4-1.5c-1-0.5-2-1-3-1.6l-6.2,10.9
		c1.2,0.7,2.5,1.4,3.7,2c1.3,0.7,2.7,1.3,4.1,1.9c1.5,0.6,3,1.2,4.5,1.7c1.6,0.5,3.2,1,4.8,1.4l3.1-12.2
		C81.4,159.2,80.1,158.8,78.9,158.4z"/>
	<path class="st2" d="M64.9,166.2c-0.4-0.2-0.8-0.4-1.3-0.7c-0.4-0.2-0.7-0.4-1.1-0.6l-5.3,9.2c0.4,0.2,0.9,0.5,1.3,0.7
		c0.5,0.3,1,0.5,1.5,0.8c0.5,0.3,1,0.5,1.6,0.8l4.7-9.5C65.8,166.6,65.4,166.4,64.9,166.2z"/>
	<path class="st1" d="M84.9,172.9c-1.8-0.3-3.5-0.7-5.3-1.1l3.1-12.2c1.4,0.4,2.9,0.7,4.3,0.9L84.9,172.9z	">
<title>palette
11,946</title>
	</path>
	<path class="st2" d="M82.1,172.3c-0.3-0.1-0.7-0.1-1-0.2c-0.3-0.1-0.6-0.1-0.9-0.2c-0.2,0-0.4-0.1-0.5-0.1L77,182
		c0.2,0.1,0.4,0.1,0.6,0.2c0.3,0.1,0.7,0.2,1,0.2c0.4,0.1,0.8,0.2,1.2,0.3c1.1,0.2,2.2,0.4,3.3,0.6l1.8-10.5
		C84,172.7,83,172.5,82.1,172.3z"/>
	<path class="st1" d="M105.1,160.6c-2.3,0.4-4.7,0.6-7,0.6c-2.2,0.1-4.3,0-6.5-0.2c-1.5-0.1-3.1-0.3-4.6-0.6l-2.1,12.4
		c1.9,0.3,3.7,0.6,5.6,0.7c2.7,0.2,5.3,0.3,8,0.2c2.9-0.1,5.7-0.3,8.6-0.8L105.1,160.6z"/>
	<path class="st1" d="M66.2,152.3c-0.8-0.5-1.7-1.1-2.5-1.7c-0.7-0.5-1.4-1-2-1.5c-0.6-0.5-1.2-1-1.9-1.5c-0.5-0.4-1-0.9-1.5-1.4
		c-0.2-0.2-0.4-0.4-0.6-0.6c-0.1-0.1-0.3-0.3-0.4-0.4c-0.1-0.1-0.2-0.2-0.2-0.2c0,0-0.1-0.1-0.1-0.1l-8.9,8.9c0,0,0.1,0.1,0.1,0.1
		c0.1,0.1,0.2,0.2,0.3,0.3c0.2,0.2,0.3,0.3,0.5,0.5c0.3,0.2,0.5,0.5,0.8,0.7c0.6,0.6,1.2,1.1,1.9,1.7c0.7,0.6,1.5,1.3,2.3,1.9
		c0.8,0.6,1.6,1.3,2.5,1.9c1,0.7,2,1.4,3.1,2.1c1,0.7,2.1,1.3,3.2,1.9l6.2-10.9C67.9,153.4,67.1,152.9,66.2,152.3z"/>
	<path class="st1" d="M116.7,170.8c-3.2,1-6.4,1.7-9.7,2.2l-1.9-12.4c2.7-0.4,5.3-1,7.9-1.8L116.7,170.8z	">
<title>Strings
22,026</title>
	</path>
	<path class="st1" d="M96.6,49.2c30.9,0,56,25.1,56,56c0,24.6-16,46.3-39.5,53.5l-4.8-15.7c20.9-6.4,32.6-28.6,26.2-49.5
		c-5.1-16.6-20.5-28-37.9-28V49.2z	">
<title>vis
432,629</title>
	</path>
	<path class="st1" d="M160.7,129.7c-2.4,6.3-5.7,12.2-9.8,17.5l-10-7.7c3.4-4.3,6.1-9.2,8-14.3L160.7,129.7z	">
<title>controls
44,639</title>
	</path>
	<path class="st1" d="M157.7,136.4c-0.4,0.7-0.7,1.4-1.1,2.1c-0.4,0.6-0.7,1.3-1.1,1.9c-0.4,0.6-0.7,1.2-1.1,1.8
		c-0.3,0.5-0.6,1-0.9,1.4c-0.2,0.4-0.5,0.7-0.7,1.1c-0.2,0.3-0.5,0.6-0.7,1c-0.2,0.3-0.4,0.5-0.6,0.8c-0.1,0.2-0.2,0.3-0.4,0.5
		c-0.1,0.1-0.1,0.2-0.2,0.3l8.4,6.5c0.1-0.1,0.2-0.2,0.2-0.3c0.1-0.2,0.3-0.4,0.4-0.6c0.2-0.3,0.4-0.6,0.7-0.9
		c0.3-0.4,0.5-0.7,0.8-1.1c0.3-0.4,0.6-0.8,0.8-1.2c0.4-0.5,0.7-1.1,1.1-1.7c0.4-0.7,0.9-1.4,1.3-2.1c0.4-0.7,0.9-1.5,1.3-2.2
		c0.4-0.8,0.9-1.6,1.3-2.4L157.7,136.4z"/>
	<path class="st1" d="M168.9,137.6c-0.6,1.2-1.1,2.5-1.8,3.7l-9.5-4.8c0.5-1.1,1-2.1,1.5-3.2L168.9,137.6z	">
<title>SelectionControl
7,862</title>
	</path>
	<path class="st2" d="M168.6,137.7c-0.5,1.1-1,2.1-1.5,3.2c-0.4,0.7-0.7,1.4-1.1,2.1l9.3,5.1c0.4-0.8,0.9-1.6,1.3-2.4
		c0.6-1.2,1.2-2.4,1.8-3.7L168.6,137.7z"/>
	<path class="st1" d="M160.7,81c5.9,15.7,5.9,33.1-0.1,48.8l-11.8-4.5c4.9-12.8,4.9-27,0.1-39.8L160.7,81z	">
<title>data
110,583</title>
	</path>
	<path class="st1" d="M170.7,77.2c1.3,3.3,2.3,6.8,3.1,10.2l-10.3,2.4c-0.7-3-1.6-6-2.7-8.9L170.7,77.2z	">
<title>Data
20,544</title>
	</path>
	<path class="st1" d="M173.8,87.4c0.8,3.3,1.3,6.7,1.7,10.2l-10.6,1c-0.3-3-0.8-5.9-1.4-8.8L173.8,87.4z	">
<title>DataList
19,788</title>
	</path>
	<path class="st1" d="M175.4,97.6c0.3,3.3,0.4,6.7,0.3,10.1l-10.6-0.3c0.1-2.9,0-5.8-0.3-8.7L175.4,97.6z	">
<title>NodeSprite
19,382</title>
	</path>
	<path class="st1" d="M173.6,123.9c-0.4,1.5-0.8,3-1.2,4.5l-10.2-3.1c0.4-1.3,0.7-2.6,1.1-3.9L173.6,123.9z	">
<title>render
8,867</title>
	</path>
	<path class="st2" d="M173.6,123.9c-0.2,0.9-0.5,1.9-0.7,2.8c-0.1,0.4-0.2,0.8-0.3,1.1c0,0.1-0.1,0.2-0.1,0.3c0,0.1,0,0.1-0.1,0.2
		l8.9,2.7c0-0.1,0-0.1,0.1-0.2c0-0.1,0.1-0.3,0.1-0.4c0.1-0.4,0.2-0.8,0.4-1.3c0.3-1,0.6-2.1,0.8-3.1L173.6,123.9z"/>
	<path class="st1" d="M175.7,107.7c-0.1,2-0.2,3.9-0.4,5.9l-10.6-1.1c0.2-1.7,0.3-3.4,0.3-5.1L175.7,107.7z	">
<title>ScaleBinding
11,275</title>
	</path>
	<path class="st1" d="M162.2,125.3c-0.3,1-0.7,2-1,3.1c-0.2,0.5-0.3,0.9-0.5,1.4c-0.5,1.2-0.9,2.4-1.5,3.5l9.7,4.3
		c0.6-1.3,1.2-2.7,1.7-4.1c0.2-0.5,0.4-1.1,0.6-1.6c0.4-1.2,0.8-2.3,1.2-3.5L162.2,125.3z"/>
	<path class="st1" d="M164.8,112.4c-0.2,1.5-0.4,3.1-0.6,4.6c-0.3,1.5-0.6,2.9-0.9,4.4l10.3,2.5c0.4-1.7,0.8-3.4,1.1-5.1
		c0.3-1.8,0.6-3.5,0.7-5.3L164.8,112.4z"/>
	<path class="st1" d="M159.2,153.7c-2.2,2.9-4.6,5.6-7.2,8.1l-7.4-7.6c2.2-2.2,4.3-4.5,6.2-7L159.2,153.7z	">
<title>Legend
20,859</title>
	</path>
	<path class="st1" d="M144.6,154.2c-1.1,1.1-2.3,2.2-3.5,3.2c-0.5,0.5-1.1,0.9-1.6,1.3c-2.9,2.3-6,4.4-9.2,6.2
		c-0.9,0.5-1.8,1-2.7,1.4c-0.2,0.1-0.3,0.2-0.5,0.3c-0.1,0-0.2,0.1-0.3,0.1c-0.1,0-0.2,0.1-0.3,0.1l4.6,9.5c0.1,0,0.2-0.1,0.3-0.1
		c0.1,0,0.2-0.1,0.3-0.2c0.2-0.1,0.4-0.2,0.6-0.3c1-0.5,2.1-1.1,3.1-1.6c3.7-2.1,7.3-4.5,10.6-7.2c0.6-0.5,1.2-1,1.9-1.5
		c1.4-1.2,2.7-2.4,4-3.7L144.6,154.2z"/>
	<path class="st1" d="M96.6,36.6c28.5,0,54.1,17.6,64.2,44.3l-11.8,4.5c-8.2-21.8-29.1-36.2-52.4-36.2V36.6z	">
<title>operator
183,967</title>
	</path>
	<path class="st1" d="M154.6,51.3c1.8,1.9,3.4,3.9,5,5.9l-8.4,6.4c-1.4-1.8-2.8-3.5-4.3-5.1L154.6,51.3z	">
<title>encoder
14,897</title>
	</path>
	<path class="st1" d="M167,51.6c-0.2-0.3-0.4-0.5-0.6-0.8c-0.2-0.3-0.4-0.6-0.7-0.8c-0.4-0.5-0.8-1-1.2-1.4c-0.5-0.6-1-1.2-1.5-1.8
		c-0.5-0.6-1.1-1.2-1.6-1.8l-6.9,6.4c0.5,0.5,1,1.1,1.4,1.6c0.5,0.5,0.9,1.1,1.4,1.6c0.4,0.4,0.7,0.9,1,1.3c0.2,0.2,0.4,0.5,0.6,0.7
		c0.2,0.2,0.4,0.5,0.5,0.7c0.7,0.9,1.3,1.8,1.9,2.7l7.7-5.4C168.5,53.6,167.8,52.6,167,51.6z"/>
	<path class="st1" d="M163.8,63.4c-1.3-2.1-2.7-4.1-4.2-6.1l-8.4,6.4c1.3,1.7,2.5,3.5,3.6,5.3c0.9,1.5,1.8,3.1,2.7,4.7l9.4-4.9
		C165.9,66.9,164.9,65.1,163.8,63.4z"/>
	<path class="st1" d="M148.2,45.2c2.2,1.9,4.4,4,6.4,6.2l-7.8,7.2c-1.7-1.9-3.6-3.7-5.5-5.3L148.2,45.2z	">
<title>label
17,057</title>
	</path>
	<path class="st1" d="M160.2,43.6c-0.5-0.5-1.1-1.1-1.6-1.6c-1.4-1.4-2.8-2.7-4.3-3.9l-6.1,7.1c1.3,1.1,2.6,2.3,3.8,3.5
		c0.5,0.5,1,1,1.4,1.4c0.4,0.4,0.8,0.8,1.1,1.2l6.9-6.4C161,44.5,160.6,44.1,160.2,43.6z"/>
	<path class="st1" d="M96.6,26c19,0,37.3,6.8,51.7,19.2l-6.9,8C128.8,42.5,113,36.6,96.6,36.6V26z	">
<title>layout
108,083</title>
	</path>
	<path class="st1" d="M118,19.3c1.8,0.4,3.5,0.9,5.2,1.5l-2.8,8.9c-1.5-0.5-3.1-0.9-4.7-1.3L118,19.3z	">
<title>CircleLayout
9,317</title>
	</path>
	<path class="st1" d="M111.2,17.9c2.3,0.4,4.6,0.9,6.8,1.4l-2.3,9.1c-2-0.5-4.1-0.9-6.1-1.3L111.2,17.9z	">
<title>CirclePackingLayout
12,003</title>
	</path>
	<path class="st1" d="M96.6,16.7c2.5,0,5,0.1,7.5,0.3l-0.8,9.3c-2.2-0.2-4.5-0.3-6.7-0.3V16.7z	">
<title>NodeLinkTreeLayout
12,870</title>
	</path>
	<path class="st1" d="M104,17c2.4,0.2,4.8,0.5,7.1,0.9l-1.5,9.2c-2.1-0.4-4.2-0.6-6.4-0.8L104,17z	">
<title>RadialTreeLayout
12,348</title>
	</path>
	<path class="st1" d="M153.9,37.8c-0.4-0.3-0.8-0.7-1.2-1c-0.5-0.4-1-0.8-1.4-1.2c-0.6-0.4-1.1-0.9-1.7-1.3
		c-0.8-0.6-1.5-1.1-2.3-1.7c-0.8-0.5-1.6-1.1-2.3-1.6c-1.1-0.7-2.2-1.4-3.3-2.1l-4.8,8.1c1,0.6,2,1.2,3,1.8c0.7,0.5,1.4,0.9,2.1,1.4
		c0.7,0.5,1.4,1,2,1.5c0.5,0.4,1,0.8,1.5,1.2c0.4,0.3,0.9,0.7,1.3,1c0.4,0.3,0.7,0.6,1.1,0.9c0.1,0.1,0.2,0.2,0.3,0.3l6.1-7.1
		C154.2,38,154.1,37.9,153.9,37.8z"/>
	<path class="st1" d="M137.6,26.7c-1.4-0.8-2.9-1.5-4.4-2.1c-1.6-0.7-3.2-1.4-4.9-2c-1.7-0.6-3.3-1.2-5.1-1.8l-2.8,8.9
		c1.5,0.5,3,1,4.5,1.6c1.5,0.6,2.9,1.2,4.4,1.8c1.3,0.6,2.6,1.2,3.9,1.9c1.2,0.6,2.4,1.3,3.6,2l4.8-8.1
		C140.3,28.2,138.9,27.4,137.6,26.7z"/>
	<path class="st1" d="M170.4,76.6c-0.1-0.3-0.3-0.7-0.4-1c-0.2-0.4-0.3-0.8-0.5-1.2c-0.2-0.4-0.4-0.8-0.5-1.2
		c-0.3-0.7-0.6-1.3-0.9-2c-0.4-0.8-0.8-1.6-1.2-2.4l-9.4,4.9c0.4,0.7,0.7,1.4,1.1,2.1c0.3,0.6,0.5,1.1,0.8,1.7
		c0.2,0.4,0.3,0.7,0.5,1.1c0.1,0.3,0.3,0.7,0.4,1c0.1,0.3,0.2,0.6,0.3,0.8c0.1,0.2,0.1,0.4,0.2,0.5l9.9-3.8
		C170.6,77,170.5,76.8,170.4,76.6z"/>
	<path class="st1" d="M140.9,139.5c-2.7,3.5-5.8,6.7-9.3,9.4c-3.2,2.6-6.8,4.8-10.5,6.7c-1.8,0.9-3.7,1.7-5.6,2.4
		c-0.8,0.3-1.6,0.6-2.4,0.8l3.7,12c1-0.3,2-0.6,3-1c2.3-0.8,4.6-1.8,6.9-2.9c4.6-2.2,8.9-5,12.9-8.2c4.2-3.4,8-7.3,11.4-11.6
		L140.9,139.5z"/>
</g>
</svg>
