<?xml version="1.0" encoding="utf-8"?>
<!-- Generator: Adobe Illustrator 19.2.1, SVG Export Plug-In . SVG Version: 6.00 Build 0)  -->
<svg version="1.1" id="Layer_1" xmlns="http://www.w3.org/2000/svg" xmlns:xlink="http://www.w3.org/1999/xlink" x="0px" y="0px"
	 viewBox="0 0 200 200" style="enable-background:new 0 0 200 200;" xml:space="preserve">
<style type="text/css">
	.st0{opacity:0.25;fill:none;}
	.st1{opacity:0.5;}
	.st2{fill:#0054A6;}
	.st3{opacity:0.35;}
</style>
<g>
	<g>
		<g>
			<rect class="st0" width="200" height="200"/>
		</g>
	</g>
	<g>
		<g class="st1">
			
				<ellipse transform="matrix(0.9264 -0.3765 0.3765 0.9264 -19.303 42.8646)" class="st2" cx="100" cy="70.8" rx="47.6" ry="47.6"/>
			
				<ellipse transform="matrix(0.9264 -0.3765 0.3765 0.9264 -38.8809 59.4558)" class="st2" cx="132.7" cy="129.2" rx="47.6" ry="47.6"/>
			
				<ellipse transform="matrix(0.9264 -0.3765 0.3765 0.9264 -43.6873 34.866)" class="st2" cx="67.3" cy="129.2" rx="47.6" ry="47.6"/>
		</g>
		<g>
			
				<ellipse transform="matrix(0.9264 -0.3765 0.3765 0.9264 -19.303 42.8646)" class="st3" cx="100" cy="70.8" rx="47.6" ry="47.6"/>
			
				<ellipse transform="matrix(0.9264 -0.3765 0.3765 0.9264 -38.8809 59.4558)" class="st3" cx="132.7" cy="129.2" rx="47.6" ry="47.6"/>
			
				<ellipse transform="matrix(0.9264 -0.3765 0.3765 0.9264 -43.6873 34.866)" class="st3" cx="67.3" cy="129.2" rx="47.6" ry="47.6"/>
		</g>
	</g>
</g>
</svg>
