<?xml version="1.0" encoding="utf-8"?>
<!-- Generator: Adobe Illustrator 19.2.1, SVG Export Plug-In . SVG Version: 6.00 Build 0)  -->
<svg version="1.1" id="Layer_1" xmlns="http://www.w3.org/2000/svg" xmlns:xlink="http://www.w3.org/1999/xlink" x="0px" y="0px"
	 viewBox="0 0 200 200" style="enable-background:new 0 0 200 200;" xml:space="preserve">
<style type="text/css">
	.st0{opacity:0.25;fill:none;}
	.st1{fill:#28903B;fill-opacity:0.25;}
	.st2{fill:#28903B;fill-opacity:0.5;}
	.st3{fill:none;stroke:#FFFFFF;stroke-width:1.25;stroke-linecap:round;}
	.st4{fill:#28903B;fill-opacity:0.75;}
	.st5{fill:#28903B;}
	.st6{fill:none;stroke:#FFFFFF;stroke-width:1.25;}
</style>
<g>
	<g>
		<rect class="st0" width="200" height="200"/>
	</g>
	<polyline id="Line_trace_fill_4_4_" class="st1" points="16.7,67.1 33.3,62.5 50,59.8 66.7,57.6 83.3,55.6 100,52.3 116.7,45.7 
		133.3,40.3 150,34.5 166.7,26.3 183.3,16.7 183.3,183.3 16.7,183.3 16.7,67.1 	"/>
	<polyline id="Line_trace_fill_3_4_" class="st2" points="16.7,103.5 33.3,102.5 50,101.4 66.7,99.7 83.3,98 100,94.5 116.7,89.4 
		133.3,85.9 150,82.3 166.7,76.4 183.3,67.9 183.3,183.3 16.7,183.3 16.7,103.5 	"/>
	<polyline id="Line_trace_stroke_3_4_" class="st3" points="16.7,103.5 33.3,102.5 50,101.4 66.7,99.7 83.3,98 100,94.5 116.7,89.4 
		133.3,85.9 150,82.3 166.7,76.4 183.3,67.9 	"/>
	<polyline id="Line_trace_fill_2_4_" class="st4" points="16.7,133.3 33.3,133.6 50,134 66.7,132.7 83.3,131.7 100,130.3 
		116.7,128.8 133.3,129.4 150,129.8 166.7,127.5 183.3,122.1 183.3,183.3 16.7,183.3 16.7,133.3 	"/>
	<polyline id="Line_trace_stroke_2_4_" class="st3" points="16.7,133.3 33.3,133.6 50,134 66.7,132.7 83.3,131.7 100,130.3 
		116.7,128.8 133.3,129.4 150,129.8 166.7,127.5 183.3,122.1 	"/>
	<polyline id="Line_trace_fill_1_4_" class="st5" points="16.7,153.8 33.3,154.6 50,155.2 66.7,154.6 83.3,154.4 100,153.8 
		116.7,153.4 133.3,155 150,155.6 166.7,153.6 183.3,149.7 183.3,183.3 16.7,183.3 16.7,153.8 	"/>
	<polyline id="Line_trace_stroke_1_4_" class="st6" points="16.7,153.8 33.3,154.6 50,155.2 66.7,154.6 83.3,154.4 100,153.8 
		116.7,153.4 133.3,155 150,155.6 166.7,153.6 183.3,149.7 	"/>
	<polyline id="Line_trace_stroke_4_4_" class="st3" points="16.7,67.1 33.3,62.5 50,59.8 66.7,57.6 83.3,55.6 100,52.3 116.7,45.7 
		133.3,40.3 150,34.5 166.7,26.3 183.3,16.7 	"/>
</g>
</svg>
