<?xml version="1.0" encoding="utf-8"?>
<!-- Generator: Adobe Illustrator 19.2.1, SVG Export Plug-In . SVG Version: 6.00 Build 0)  -->
<svg version="1.1" id="Layer_1" xmlns="http://www.w3.org/2000/svg" xmlns:xlink="http://www.w3.org/1999/xlink" x="0px" y="0px"
	 viewBox="0 0 200 200" style="enable-background:new 0 0 200 200;" xml:space="preserve">
<style type="text/css">
	.st0{opacity:0.25;fill:none;}
	.st1{fill:#A3488C;stroke:#FFFFFF;stroke-width:1.6489;stroke-linecap:round;stroke-linejoin:round;stroke-miterlimit:10;}
</style>
<g>
	<g>
		<rect class="st0" width="200" height="200"/>
	</g>
</g>
<g>
	<g>
		
			<rect x="114.5" y="141.1" transform="matrix(-5.775640e-11 -1 1 -5.775640e-11 5.2525 301.6467)" class="st1" width="77.9" height="14.3"/>
		
			<rect x="127.4" y="142.4" transform="matrix(-5.775640e-11 -1 1 -5.775640e-11 18.1666 314.5609)" class="st1" width="77.9" height="11.6"/>
		
			<rect x="93.6" y="134.4" transform="matrix(-5.749972e-11 -1 1 -5.749972e-11 -15.657 280.7372)" class="st1" width="77.9" height="27.6"/>
		
			<rect x="60.7" y="129.1" transform="matrix(-5.753436e-11 -1 1 -5.753436e-11 -48.5656 247.8287)" class="st1" width="77.9" height="38.3"/>
		
			<rect x="15.3" y="121.9" transform="matrix(-5.775640e-11 -1 1 -5.775640e-11 -94.0198 202.3745)" class="st1" width="77.9" height="52.6"/>
	</g>
</g>
<g>
	<g>
		
			<rect x="142.2" y="69.6" transform="matrix(-9.310413e-11 -1 1 -9.310413e-11 91.0179 241.7094)" class="st1" width="48.3" height="11.6"/>
		<polygon class="st1" points="146.3,51.2 118.8,51.2 118.8,99.5 146.3,99.5 160.6,99.5 160.6,51.2 		"/>
		<polygon class="st1" points="80.5,51.2 27.9,51.2 27.9,99.5 80.5,99.5 118.8,99.5 118.8,51.2 		"/>
	</g>
</g>
<g>
	<g>
		
			<rect x="154.9" y="24.2" transform="matrix(-1.963424e-10 -1 1 -1.963424e-10 136.3935 196.3336)" class="st1" width="22.9" height="11.6"/>
		<polygon class="st1" points="146.3,18.5 118.8,18.5 118.8,41.4 146.3,41.4 160.6,41.4 160.6,18.5 		"/>
		
			<rect x="88.2" y="10.8" transform="matrix(-1.963424e-10 -1 1 -1.963424e-10 69.6614 129.6014)" class="st1" width="22.9" height="38.3"/>
		
			<rect x="42.7" y="3.6" transform="matrix(-1.963424e-10 -1 1 -1.963424e-10 24.2072 84.1472)" class="st1" width="22.9" height="52.6"/>
	</g>
</g>
</svg>
