<?xml version="1.0" encoding="utf-8"?>
<!-- Generator: Adobe Illustrator 19.2.1, SVG Export Plug-In . SVG Version: 6.00 Build 0)  -->
<svg version="1.1" id="Layer_1" xmlns="http://www.w3.org/2000/svg" xmlns:xlink="http://www.w3.org/1999/xlink" x="0px" y="0px"
	 viewBox="0 0 200 200" style="enable-background:new 0 0 200 200;" xml:space="preserve">
<style type="text/css">
	.st0{opacity:0.25;fill:none;}
	.st1{fill:#A3488C;}
	.st2{fill:#A3488C;fill-opacity:0.5;}
</style>
<g>
	<g>
		<rect class="st0" width="200" height="200"/>
	</g>
	
		<rect x="90.9" y="-57.7" transform="matrix(-1.836970e-16 1 -1 -1.836970e-16 125.6819 -74.3181)" class="st1" width="18.2" height="166.7"/>
	
		<rect x="71.7" y="-20.2" transform="matrix(-1.836970e-16 1 -1 -1.836970e-16 124.6661 -36.8275)" class="st2" width="18.2" height="128.2"/>
	
		<rect x="81.8" y="-5.1" transform="matrix(-1.836970e-16 1 -1 -1.836970e-16 160.0811 -21.785)" class="st1" width="18.2" height="148.5"/>
	
		<rect x="55.7" y="39.3" transform="matrix(-1.836970e-16 1 -1 -1.836970e-16 152.1731 22.5979)" class="st2" width="18.2" height="96.2"/>
	
		<rect x="58" y="62.2" transform="matrix(-1.836970e-16 1 -1 -1.836970e-16 179.7293 45.4993)" class="st1" width="18.2" height="100.9"/>
	
		<rect x="40.7" y="97.7" transform="matrix(-1.836970e-16 1 -1 -1.836970e-16 180.6777 81.0257)" class="st2" width="18.2" height="66.3"/>
	
		<rect x="36.4" y="127.2" transform="matrix(-1.836970e-16 1 -1 -1.836970e-16 201.5843 110.5771)" class="st1" width="18.2" height="57.7"/>
	
		<rect x="47.4" y="134.5" transform="matrix(-1.836970e-16 1 -1 -1.836970e-16 230.8518 117.7845)" class="st2" width="18.2" height="79.7"/>
</g>
</svg>
