<?xml version="1.0" encoding="utf-8"?>
<!-- Generator: Adobe Illustrator 19.2.1, SVG Export Plug-In . SVG Version: 6.00 Build 0)  -->
<svg version="1.1" id="Layer_1" xmlns="http://www.w3.org/2000/svg" xmlns:xlink="http://www.w3.org/1999/xlink" x="0px" y="0px"
	 viewBox="0 0 200 198.6" style="enable-background:new 0 0 200 198.6;" xml:space="preserve">
<style type="text/css">
	.st0{opacity:0.25;fill:none;}
	.st1{fill:#F26522;}
</style>
<g>
	<g>
		<rect class="st0" width="200" height="198.6"/>
	</g>
	<rect x="44.3" y="145.6" class="st1" width="0.5" height="36.4"/>
	<rect x="46.7" y="145.6" class="st1" width="0.5" height="36.4"/>
	<rect x="53.9" y="145.6" class="st1" width="0.5" height="36.4"/>
	<rect x="58.7" y="145.6" class="st1" width="0.5" height="36.4"/>
	<rect x="67.8" y="145.6" class="st1" width="0.5" height="36.4"/>
	<rect x="65.4" y="145.6" class="st1" width="0.5" height="36.4"/>
	<rect x="68.3" y="145.6" class="st1" width="0.5" height="36.4"/>
	<rect x="141.5" y="145.6" class="st1" width="0.5" height="36.4"/>
	<rect x="85" y="145.6" class="st1" width="0.5" height="36.4"/>
	<rect x="71.6" y="145.6" class="st1" width="0.5" height="36.4"/>
	<rect x="69.7" y="145.6" class="st1" width="0.5" height="36.4"/>
	<rect x="98.4" y="145.6" class="st1" width="0.5" height="36.4"/>
	<rect x="109.5" y="145.6" class="st1" width="0.5" height="36.4"/>
	<rect x="91.3" y="145.6" class="st1" width="0.5" height="36.4"/>
	<rect x="85.5" y="145.6" class="st1" width="0.5" height="36.4"/>
	<rect x="81.7" y="145.6" class="st1" width="0.5" height="36.4"/>
	<rect x="65.9" y="145.6" class="st1" width="0.5" height="36.4"/>
	<rect x="52" y="145.6" class="st1" width="0.5" height="36.4"/>
	<rect x="54.4" y="145.6" class="st1" width="0.5" height="36.4"/>
	<rect x="105.6" y="145.6" class="st1" width="0.5" height="36.4"/>
	<rect x="100.4" y="145.6" class="st1" width="0.5" height="36.4"/>
	<rect x="86.5" y="145.6" class="st1" width="0.5" height="36.4"/>
	<rect x="74" y="145.6" class="st1" width="0.5" height="36.4"/>
	<rect x="169.3" y="145.6" class="st1" width="0.5" height="36.4"/>
	<rect x="102.3" y="145.6" class="st1" width="0.5" height="36.4"/>
	<rect x="45.8" y="145.6" class="st1" width="0.5" height="36.4"/>
	<rect x="62.1" y="145.6" class="st1" width="0.5" height="36.4"/>
	<rect x="53.5" y="145.6" class="st1" width="0.5" height="36.4"/>
	<rect x="50.1" y="145.6" class="st1" width="0.5" height="36.4"/>
	<rect x="55.4" y="145.6" class="st1" width="0.5" height="36.4"/>
	<rect x="56.3" y="145.6" class="st1" width="0.5" height="36.4"/>
	<rect x="45.3" y="145.6" class="st1" width="0.5" height="36.4"/>
	<rect x="55.8" y="145.6" class="st1" width="0.5" height="36.4"/>
	<rect x="56.3" y="145.6" class="st1" width="0.5" height="36.4"/>
	<rect x="47.7" y="145.6" class="st1" width="0.5" height="36.4"/>
	<rect x="46.3" y="145.6" class="st1" width="0.5" height="36.4"/>
	<rect x="44.3" y="145.6" class="st1" width="0.5" height="36.4"/>
	<rect x="41.5" y="145.6" class="st1" width="0.5" height="36.4"/>
	<rect x="43.9" y="145.6" class="st1" width="0.5" height="36.4"/>
	<rect x="71.2" y="145.6" class="st1" width="0.5" height="36.4"/>
	<rect x="45.8" y="145.6" class="st1" width="0.5" height="36.4"/>
	<rect x="45.8" y="145.6" class="st1" width="0.5" height="36.4"/>
	<rect x="18.1" y="102.6" class="st1" width="0.5" height="36.4"/>
	<rect x="17.2" y="102.6" class="st1" width="0.5" height="36.4"/>
	<rect x="17.2" y="102.6" class="st1" width="0.5" height="36.4"/>
	<rect x="17.6" y="102.6" class="st1" width="0.5" height="36.4"/>
	<rect x="16.7" y="102.6" class="st1" width="0.5" height="36.4"/>
	<rect x="29.6" y="102.6" class="st1" width="0.5" height="36.4"/>
	<rect x="32" y="102.6" class="st1" width="0.5" height="36.4"/>
	<rect x="35.8" y="102.6" class="st1" width="0.5" height="36.4"/>
	<rect x="25.8" y="102.6" class="st1" width="0.5" height="36.4"/>
	<rect x="16.7" y="102.6" class="st1" width="0.5" height="36.4"/>
	<rect x="16.7" y="102.6" class="st1" width="0.5" height="36.4"/>
	<rect x="16.7" y="102.6" class="st1" width="0.5" height="36.4"/>
	<rect x="18.1" y="102.6" class="st1" width="0.5" height="36.4"/>
	<rect x="16.7" y="102.6" class="st1" width="0.5" height="36.4"/>
	<rect x="17.2" y="102.6" class="st1" width="0.5" height="36.4"/>
	<rect x="16.7" y="102.6" class="st1" width="0.5" height="36.4"/>
	<rect x="16.7" y="102.6" class="st1" width="0.5" height="36.4"/>
	<rect x="16.7" y="102.6" class="st1" width="0.5" height="36.4"/>
	<rect x="16.7" y="102.6" class="st1" width="0.5" height="36.4"/>
	<rect x="16.7" y="102.6" class="st1" width="0.5" height="36.4"/>
	<rect x="39.6" y="102.6" class="st1" width="0.5" height="36.4"/>
	<rect x="100.9" y="102.6" class="st1" width="0.5" height="36.4"/>
	<rect x="149.7" y="102.6" class="st1" width="0.5" height="36.4"/>
	<rect x="172.2" y="102.6" class="st1" width="0.5" height="36.4"/>
	<rect x="53.1" y="59.6" class="st1" width="0.5" height="36.4"/>
	<rect x="86.2" y="59.6" class="st1" width="0.5" height="36.4"/>
	<rect x="182.9" y="59.6" class="st1" width="0.5" height="36.4"/>
	<rect x="137.9" y="59.6" class="st1" width="0.5" height="36.4"/>
	<rect x="144.1" y="59.6" class="st1" width="0.5" height="36.4"/>
	<rect x="140.7" y="59.6" class="st1" width="0.5" height="36.4"/>
	<rect x="140.2" y="59.6" class="st1" width="0.5" height="36.4"/>
	<rect x="114.4" y="59.6" class="st1" width="0.5" height="36.4"/>
	<rect x="95.3" y="59.6" class="st1" width="0.5" height="36.4"/>
	<rect x="161.3" y="59.6" class="st1" width="0.5" height="36.4"/>
	<rect x="112" y="59.6" class="st1" width="0.5" height="36.4"/>
	<rect x="115.8" y="59.6" class="st1" width="0.5" height="36.4"/>
	<rect x="92.9" y="59.6" class="st1" width="0.5" height="36.4"/>
	<rect x="132.1" y="59.6" class="st1" width="0.5" height="36.4"/>
	<rect x="116.8" y="59.6" class="st1" width="0.5" height="36.4"/>
	<rect x="79.5" y="59.6" class="st1" width="0.5" height="36.4"/>
	<rect x="92.9" y="59.6" class="st1" width="0.5" height="36.4"/>
	<rect x="103.9" y="59.6" class="st1" width="0.5" height="36.4"/>
	<rect x="134" y="59.6" class="st1" width="0.5" height="36.4"/>
	<rect x="125.4" y="59.6" class="st1" width="0.5" height="36.4"/>
	<rect x="118.2" y="59.6" class="st1" width="0.5" height="36.4"/>
	<rect x="172.8" y="59.6" class="st1" width="0.5" height="36.4"/>
	<rect x="178.5" y="59.6" class="st1" width="0.5" height="36.4"/>
	<rect x="169.9" y="59.6" class="st1" width="0.5" height="36.4"/>
	<rect x="57.9" y="59.6" class="st1" width="0.5" height="36.4"/>
	<rect x="65.1" y="59.6" class="st1" width="0.5" height="36.4"/>
	<rect x="84.7" y="59.6" class="st1" width="0.5" height="36.4"/>
	<rect x="77.5" y="59.6" class="st1" width="0.5" height="36.4"/>
	<rect x="83.8" y="59.6" class="st1" width="0.5" height="36.4"/>
	<rect x="76.6" y="59.6" class="st1" width="0.5" height="36.4"/>
	<rect x="92.4" y="59.6" class="st1" width="0.5" height="36.4"/>
	<rect x="57.4" y="59.6" class="st1" width="0.5" height="36.4"/>
	<rect x="58.4" y="59.6" class="st1" width="0.5" height="36.4"/>
	<rect x="49.8" y="59.6" class="st1" width="0.5" height="36.4"/>
	<rect x="59.3" y="59.6" class="st1" width="0.5" height="36.4"/>
	<rect x="50.3" y="59.6" class="st1" width="0.5" height="36.4"/>
	<rect x="57.4" y="59.6" class="st1" width="0.5" height="36.4"/>
	<rect x="66.1" y="59.6" class="st1" width="0.5" height="36.4"/>
	<rect x="57.9" y="59.6" class="st1" width="0.5" height="36.4"/>
	<rect x="74.7" y="59.6" class="st1" width="0.5" height="36.4"/>
	<rect x="69.9" y="59.6" class="st1" width="0.5" height="36.4"/>
	<rect x="71.8" y="59.6" class="st1" width="0.5" height="36.4"/>
	<rect x="113" y="59.6" class="st1" width="0.5" height="36.4"/>
	<rect x="96.7" y="59.6" class="st1" width="0.5" height="36.4"/>
	<rect x="132" y="16.5" class="st1" width="0.5" height="36.4"/>
	<rect x="44.4" y="16.5" class="st1" width="0.5" height="36.4"/>
	<rect x="41.6" y="16.5" class="st1" width="0.5" height="36.4"/>
	<rect x="58.8" y="16.5" class="st1" width="0.5" height="36.4"/>
	<rect x="85.1" y="16.5" class="st1" width="0.5" height="36.4"/>
	<rect x="64.1" y="16.5" class="st1" width="0.5" height="36.4"/>
	<rect x="75.6" y="16.5" class="st1" width="0.5" height="36.4"/>
	<rect x="55.4" y="16.5" class="st1" width="0.5" height="36.4"/>
	<rect x="46.8" y="16.5" class="st1" width="0.5" height="36.4"/>
	<rect x="45.9" y="16.5" class="st1" width="0.5" height="36.4"/>
	<rect x="48.7" y="16.5" class="st1" width="0.5" height="36.4"/>
	<rect x="51.1" y="16.5" class="st1" width="0.5" height="36.4"/>
	<rect x="34.9" y="16.5" class="st1" width="0.5" height="36.4"/>
	<rect x="44" y="16.5" class="st1" width="0.5" height="36.4"/>
	<rect x="32.9" y="16.5" class="st1" width="0.5" height="36.4"/>
	<rect x="37.2" y="16.5" class="st1" width="0.5" height="36.4"/>
	<rect x="30.1" y="16.5" class="st1" width="0.5" height="36.4"/>
	<rect x="26.7" y="16.5" class="st1" width="0.5" height="36.4"/>
	<rect x="33.9" y="16.5" class="st1" width="0.5" height="36.4"/>
	<rect x="28.6" y="16.5" class="st1" width="0.5" height="36.4"/>
	<rect x="28.2" y="16.5" class="st1" width="0.5" height="36.4"/>
	<rect x="29.1" y="16.5" class="st1" width="0.5" height="36.4"/>
	<rect x="40.6" y="16.5" class="st1" width="0.5" height="36.4"/>
	<rect x="43.5" y="16.5" class="st1" width="0.5" height="36.4"/>
	<rect x="31" y="16.5" class="st1" width="0.5" height="36.4"/>
	<rect x="32.9" y="16.5" class="st1" width="0.5" height="36.4"/>
	<rect x="28.2" y="16.5" class="st1" width="0.5" height="36.4"/>
	<rect x="39.2" y="16.5" class="st1" width="0.5" height="36.4"/>
	<rect x="29.6" y="16.5" class="st1" width="0.5" height="36.4"/>
	<rect x="32.9" y="16.5" class="st1" width="0.5" height="36.4"/>
	<rect x="29.6" y="16.5" class="st1" width="0.5" height="36.4"/>
	<rect x="29.1" y="16.5" class="st1" width="0.5" height="36.4"/>
	<rect x="18.1" y="16.5" class="st1" width="0.5" height="36.4"/>
	<rect x="24.8" y="16.5" class="st1" width="0.5" height="36.4"/>
	<rect x="16.7" y="16.5" class="st1" width="0.5" height="36.4"/>
	<rect x="18.1" y="16.5" class="st1" width="0.5" height="36.4"/>
	<rect x="22.9" y="16.5" class="st1" width="0.5" height="36.4"/>
	<rect x="19.1" y="16.5" class="st1" width="0.5" height="36.4"/>
	<rect x="21.9" y="16.5" class="st1" width="0.5" height="36.4"/>
	<rect x="18.1" y="16.5" class="st1" width="0.5" height="36.4"/>
	<rect x="20" y="16.5" class="st1" width="0.5" height="36.4"/>
	<rect x="21.5" y="16.5" class="st1" width="0.5" height="36.4"/>
	<rect x="22.9" y="16.5" class="st1" width="0.5" height="36.4"/>
</g>
</svg>
