<?xml version="1.0" encoding="utf-8"?>
<!-- Generator: Adobe Illustrator 19.2.1, SVG Export Plug-In . SVG Version: 6.00 Build 0)  -->
<svg version="1.1" id="Layer_1" xmlns="http://www.w3.org/2000/svg" xmlns:xlink="http://www.w3.org/1999/xlink" x="0px" y="0px"
	 viewBox="0 0 200 200" style="enable-background:new 0 0 200 200;" xml:space="preserve">
<style type="text/css">
	.st0{opacity:0.25;fill:none;}
	.st1{fill:none;stroke:#F26522;stroke-width:1.3375;stroke-linejoin:round;stroke-miterlimit:10;}
	.st2{fill:#F26522;fill-opacity:0.5;}
	.st3{fill:none;stroke:#F26522;stroke-width:2.6625;stroke-linejoin:round;stroke-miterlimit:10;}
	.st4{fill:#FFFFFF;}
</style>
<g>
	<g>
		<rect class="st0" width="200" height="200"/>
	</g>
	<line class="st1" x1="39.4" y1="45" x2="39.4" y2="16.7"/>
	<line class="st1" x1="39.4" y1="106.5" x2="39.4" y2="117.8"/>
	<rect x="16.7" y="45" class="st2" width="45.5" height="61.5"/>
	<line class="st3" x1="16.7" y1="80.6" x2="62.1" y2="80.6"/>
	<line class="st1" x1="100" y1="121" x2="100" y2="117.8"/>
	<line class="st1" x1="100" y1="140" x2="100" y2="146.9"/>
	<rect x="77.3" y="121" class="st4" width="45.5" height="19"/>
	<rect x="77.3" y="121" class="st2" width="45.5" height="19"/>
	<line class="st3" x1="77.3" y1="131.6" x2="122.7" y2="131.6"/>
	<line class="st1" x1="77.3" y1="116.6" x2="122.7" y2="116.6"/>
	<line class="st1" x1="77.3" y1="146.9" x2="122.7" y2="146.9"/>
	<line class="st1" x1="160.6" y1="159.5" x2="160.6" y2="139.6"/>
	<line class="st1" x1="160.6" y1="174.4" x2="160.6" y2="183.3"/>
	<rect x="137.9" y="159.5" class="st4" width="45.5" height="15"/>
	<rect x="137.9" y="159.5" class="st2" width="45.5" height="15"/>
	<line class="st3" x1="137.9" y1="168" x2="183.3" y2="168"/>
	<line class="st1" x1="137.9" y1="140" x2="183.3" y2="140"/>
	<line class="st1" x1="137.9" y1="183.3" x2="183.3" y2="183.3"/>
	<line class="st1" x1="16.7" y1="16.9" x2="62.1" y2="16.9"/>
	<line class="st1" x1="16.7" y1="117.9" x2="62.1" y2="117.9"/>
</g>
</svg>
