<?xml version="1.0" encoding="utf-8"?>
<!-- Generator: Adobe Illustrator 19.2.1, SVG Export Plug-In . SVG Version: 6.00 Build 0)  -->
<svg version="1.1" id="Layer_1" xmlns="http://www.w3.org/2000/svg" xmlns:xlink="http://www.w3.org/1999/xlink" x="0px" y="0px"
	 viewBox="0 0 200 200" style="enable-background:new 0 0 200 200;" xml:space="preserve">
<style type="text/css">
	.st0{fill:none;}
	.st1{fill:#E0CBDB;}
	.st2{fill:#C9A0BD;}
	.st3{opacity:0.8;fill:#A3488C;}
	.st4{fill:#A3488C;}
	.st5{fill:none;stroke:#A3488C;stroke-width:2;stroke-miterlimit:10;}
</style>
<g>
	<g>
		<rect y="0" class="st0" width="200" height="200"/>
	</g>
</g>
<rect x="150" y="19.6" class="st1" width="33.2" height="27.2"/>
<rect x="100.1" y="53.6" class="st1" width="83.1" height="27.2"/>
<rect x="150" y="87.7" class="st1" width="33.2" height="27.2"/>
<rect x="116.7" y="121.7" class="st1" width="66.5" height="27.2"/>
<rect x="133.3" y="155.7" class="st1" width="49.9" height="27.2"/>
<rect x="33.6" y="19.6" class="st2" width="116.3" height="27.2"/>
<rect x="50.2" y="53.6" class="st2" width="49.9" height="27.2"/>
<rect x="83.5" y="87.7" class="st2" width="66.5" height="27.2"/>
<rect x="100.1" y="121.7" class="st2" width="16.6" height="27.2"/>
<rect x="50.2" y="155.7" class="st2" width="83.1" height="27.2"/>
<rect x="17" y="19.6" class="st3" width="16.6" height="27.2"/>
<rect x="17" y="121.7" class="st3" width="83.1" height="27.2"/>
<rect x="17" y="53.6" class="st3" width="33.2" height="27.2"/>
<rect x="17" y="87.7" class="st3" width="66.5" height="27.2"/>
<rect x="17" y="155.7" class="st3" width="33.2" height="27.2"/>
<g transform="translate(125,70)">
	<rect x="-108" y="-43.5" class="st4" width="83.1" height="13.6"/>
	<line class="st5" x1="-74.8" y1="-47.6" x2="-74.8" y2="-25.9"/>
</g>
<g transform="translate(125,161.6)">
	<rect x="-108" y="-101.2" class="st4" width="49.9" height="13.6"/>
	<line class="st5" x1="-74.8" y1="-105.2" x2="-74.8" y2="-83.5"/>
</g>
<rect x="17" y="94.4" class="st4" width="116.3" height="13.6"/>
<line class="st5" x1="116.7" y1="90.4" x2="116.7" y2="112.1"/>
<g transform="translate(125,344.79999999999995)">
	<rect x="-108" y="-216.3" class="st4" width="83.1" height="13.6"/>
	<line class="st5" x1="-58.2" y1="-220.4" x2="-58.2" y2="-198.6"/>
</g>
<g transform="translate(125,436.4)">
	<rect x="-108" y="-273.9" class="st4" width="33.2" height="13.6"/>
	<line class="st5" x1="-91.4" y1="-278" x2="-91.4" y2="-256.2"/>
</g>
</svg>
