<?xml version="1.0" encoding="utf-8"?>
<!-- Generator: Adobe Illustrator 19.2.1, SVG Export Plug-In . SVG Version: 6.00 Build 0)  -->
<svg version="1.1" id="Layer_1" xmlns="http://www.w3.org/2000/svg" xmlns:xlink="http://www.w3.org/1999/xlink" x="0px" y="0px"
	 viewBox="0 0 200 200" style="enable-background:new 0 0 200 200;" xml:space="preserve">
<style type="text/css">
	.st0{fill:none;}
	.st1{fill:#008EB0;}
	.st2{fill:none;stroke:#008EB0;stroke-width:9;stroke-miterlimit:10;stroke-opacity:0.35;}
</style>
<g>
	<g>
		<rect y="0" class="st0" width="200" height="200"/>
	</g>
</g>
<rect x="16.5" y="23.9" class="st1" width="34.2" height="13.2"/>
<rect x="16.5" y="46.9" class="st1" width="34.2" height="13.2"/>
<rect x="16.5" y="69.9" class="st1" width="34.2" height="13.2"/>
<rect x="16.5" y="92.9" class="st1" width="34.2" height="13.2"/>
<rect x="16.5" y="115.9" class="st1" width="34.2" height="13.2"/>
<rect x="16.5" y="138.9" class="st1" width="34.2" height="13.2"/>
<rect x="16.5" y="161.9" class="st1" width="34.2" height="13.2"/>
<rect x="82.7" y="23.9" class="st1" width="34.2" height="13.2"/>
<rect x="82.7" y="46.9" class="st1" width="34.2" height="13.2"/>
<rect x="82.7" y="69.9" class="st1" width="34.2" height="13.2"/>
<rect x="82.7" y="92.9" class="st1" width="34.2" height="13.2"/>
<rect x="82.7" y="115.9" class="st1" width="34.2" height="13.2"/>
<rect x="82.7" y="138.9" class="st1" width="34.2" height="13.2"/>
<rect x="82.7" y="161.9" class="st1" width="34.2" height="13.2"/>
<rect x="148.8" y="23.9" class="st1" width="34.2" height="13.2"/>
<rect x="148.8" y="46.9" class="st1" width="34.2" height="13.2"/>
<rect x="148.8" y="69.9" class="st1" width="34.2" height="13.2"/>
<rect x="148.8" y="92.9" class="st1" width="34.2" height="13.2"/>
<rect x="148.8" y="115.9" class="st1" width="34.2" height="13.2"/>
<rect x="148.8" y="138.9" class="st1" width="34.2" height="13.2"/>
<rect x="148.8" y="161.9" class="st1" width="34.2" height="13.2"/>
<path class="st2" d="M50.5,30.4c16.2,0,6.1,23,32,23"/>
<path class="st2" d="M116.4,30.4c16.2,0,6.1,0.5,32,0.5"/>
<path class="st2" d="M116.4,52.9c16.2,0,6.1,47.2,32,47.2"/>
<path class="st2" d="M116.4,122.1c16.2,0,6.1,24,32,24"/>
<path class="st2" d="M116.4,145.9c16.2,0,6.1,24,32,24"/>
<path class="st2" d="M116.4,76.9c16.2,0,6.1-22.8,32-22.8"/>
<path class="st2" d="M116.4,100.6c16.2,0,6.1-22.8,32-22.8"/>
<path class="st2" d="M116.4,169.4c16.2,0,6.1-46,32-46"/>
<path class="st2" d="M50.5,122.7c16.2,0,6.1,46,32,46"/>
<path class="st2" d="M50.5,145.6c16.2,0,6.1-23.3,32-23.3"/>
<path class="st2" d="M50.5,53.7c16.2,0,6.1,92.2,32,92.2"/>
<path class="st2" d="M50.5,76.9c16.2,0,6.1,22.8,32,22.8"/>
<path class="st2" d="M50.5,99.9c16.2,0,6.1-68.8,32-68.8"/>
<path class="st2" d="M50.5,169.1c16.2,0,6.1-91.8,32-91.8"/>
</svg>
