<?xml version="1.0" encoding="utf-8"?>
<!-- Generator: Adobe Illustrator 19.2.1, SVG Export Plug-In . SVG Version: 6.00 Build 0)  -->
<svg version="1.1" id="Layer_1" xmlns="http://www.w3.org/2000/svg" xmlns:xlink="http://www.w3.org/1999/xlink" x="0px" y="0px"
	 viewBox="0 0 200 200" style="enable-background:new 0 0 200 200;" xml:space="preserve">
<style type="text/css">
	.st0{fill:none;stroke:#ABBD67;stroke-width:2.5;stroke-miterlimit:10;}
	.st1{fill:#FFFFFF;}
	.st2{opacity:0.25;fill:none;}
	.st3{fill:none;stroke:#ABBD67;stroke-width:7.5;stroke-miterlimit:10;stroke-opacity:0.5;}
</style>
<g>
	<path class="st0" d="M179.5,101.9c-43.9,0-79.5-35.6-79.5-79.5"/>
	<path class="st0" d="M101.9,20.5c0,43.9-35.6,79.5-79.5,79.5"/>
	<path class="st0" d="M100,22.4c0,51.1-19.9,97.6-52.3,132.2"/>
	<path class="st0" d="M100,22.4c0,18-14.6,32.6-32.6,32.6c-9,0-17.1-3.6-23-9.5"/>
	<path class="st0" d="M154.9,157.5c-31-31-31-81.3,0-112.4"/>
	<path class="st0" d="M45.1,45.1c36.2,36.2,55,83.1,56.5,130.5"/>
	<path class="st0" d="M100,177.6c0-18,14.6-32.6,32.6-32.6c9,0,17.1,3.6,23,9.5"/>
	<circle class="st1" cx="100" cy="22.4" r="5.8"/>
	<ellipse transform="matrix(0.7071 -0.7071 0.7071 0.7071 -18.7001 45.1471)" class="st1" cx="45.1" cy="45.1" rx="5.8" ry="5.8"/>
	<circle class="st1" cx="22.4" cy="100" r="5.8"/>
	<ellipse transform="matrix(0.7071 -0.7071 0.7071 0.7071 -96.2751 77.2788)" class="st1" cx="45.1" cy="154.9" rx="5.8" ry="5.8"/>
	<circle class="st1" cx="100" cy="177.6" r="5.8"/>

		<ellipse transform="matrix(0.7071 -0.7071 0.7071 0.7071 -64.1425 154.8507)" class="st1" cx="154.9" cy="154.9" rx="5.8" ry="5.8"/>
	<circle class="st1" cx="177.6" cy="100" r="5.8"/>
	<ellipse transform="matrix(0.7071 -0.7071 0.7071 0.7071 13.4325 122.7212)" class="st1" cx="154.9" cy="45.1" rx="5.8" ry="5.8"/>
</g>
<g>
	<g>
		<rect class="st2" width="200" height="200"/>
	</g>
	<path class="st0" d="M179.5,101.9c-43.9,0-79.5-35.6-79.5-79.5"/>
	<path class="st0" d="M101.9,20.5c0,43.9-35.6,79.5-79.5,79.5"/>
	<path class="st0" d="M100,22.4c0,51.1-19.9,97.6-52.3,132.2"/>
	<path class="st0" d="M100,22.4c0,18-14.6,32.6-32.6,32.6c-9,0-17.1-3.6-23-9.5"/>
	<path class="st0" d="M154.9,157.5c-31-31-31-81.3,0-112.4"/>
	<path class="st0" d="M45.1,45.1c36.2,36.2,55,83.1,56.5,130.5"/>
	<path class="st0" d="M100,177.6c0-18,14.6-32.6,32.6-32.6c9,0,17.1,3.6,23,9.5"/>
	<circle class="st3" cx="100" cy="100" r="77.6"/>
	<circle class="st1" cx="100" cy="22.4" r="5.8"/>
	<ellipse transform="matrix(0.7071 -0.7071 0.7071 0.7071 -18.7001 45.1471)" class="st1" cx="45.1" cy="45.1" rx="5.8" ry="5.8"/>
	<circle class="st1" cx="22.4" cy="100" r="5.8"/>
	<ellipse transform="matrix(0.7071 -0.7071 0.7071 0.7071 -96.2751 77.2788)" class="st1" cx="45.1" cy="154.9" rx="5.8" ry="5.8"/>
	<circle class="st1" cx="100" cy="177.6" r="5.8"/>

		<ellipse transform="matrix(0.7071 -0.7071 0.7071 0.7071 -64.1425 154.8507)" class="st1" cx="154.9" cy="154.9" rx="5.8" ry="5.8"/>
	<circle class="st1" cx="177.6" cy="100" r="5.8"/>
	<ellipse transform="matrix(0.7071 -0.7071 0.7071 0.7071 13.4325 122.7212)" class="st1" cx="154.9" cy="45.1" rx="5.8" ry="5.8"/>
</g>
</svg>
