<?xml version="1.0" encoding="utf-8"?>
<!-- Generator: Adobe Illustrator 19.2.1, SVG Export Plug-In . SVG Version: 6.00 Build 0)  -->
<svg version="1.1" id="Layer_1" xmlns="http://www.w3.org/2000/svg" xmlns:xlink="http://www.w3.org/1999/xlink" x="0px" y="0px"
	 viewBox="0 0 200 200" style="enable-background:new 0 0 200 200;" xml:space="preserve">
<style type="text/css">
	.st0{opacity:0.25;fill:none;}
	.st1{fill:#0054A6;stroke:#FFFFFF;stroke-width:1.25;stroke-linecap:round;stroke-linejoin:round;stroke-miterlimit:10;}
</style>
<g>
	<g>
		<rect class="st0" width="200" height="200"/>
	</g>
	<path class="st1" d="M55.4,101.4c0-8,2.2-15.5,5.9-22L27.9,61.7l33.3,17.7c7.6-13.3,21.9-22.2,38.3-22.2c0.1,0,0.3,0,0.4,0V16.7
		c-18.4,0-34.1,5.1-49,15.9C13.8,59.6,5.5,111.7,32.6,149l30.7-22.3C58.3,119.5,55.4,110.8,55.4,101.4z"/>
	<path class="st1" d="M143.8,100c0,0.5,0.1,0.9,0.1,1.4c0,16.4-8.9,30.7-22.2,38.3l16.9,31l-16.9-31c-6.5,3.7-14,5.9-22,5.9
		c-15,0-28.3-7.5-36.3-19L32.6,149c16.2,22.3,39.8,34.3,67.4,34.3c46,0,83.3-37.3,83.3-83.3H143.8z"/>
	<path class="st1" d="M122.7,63.8l20.6-32.8L122.7,63.8c12.3,7.5,20.6,20.9,21.1,36.2h39.6c0-46-37.3-83.3-83.3-83.3v40.5
		C108.3,57.3,116.1,59.7,122.7,63.8z"/>
</g>
</svg>
