<?xml version="1.0" encoding="utf-8"?>
<!-- Generator: Adobe Illustrator 19.2.1, SVG Export Plug-In . SVG Version: 6.00 Build 0)  -->
<svg version="1.1" id="Layer_1" xmlns="http://www.w3.org/2000/svg" xmlns:xlink="http://www.w3.org/1999/xlink" x="0px" y="0px"
	 viewBox="0 0 200 200" style="enable-background:new 0 0 200 200;" xml:space="preserve">
<style type="text/css">
	.st0{opacity:0.25;fill:none;}
	.st1{fill:#A7A9AC;stroke:#FFFFFF;stroke-width:0.5;}
	.st2{fill:#6D6E71;stroke:#FFFFFF;stroke-width:0.5;}
	.st3{stroke:#FFFFFF;stroke-width:0.5;}
	.st4{fill:none;stroke:#000000;stroke-width:0.625;stroke-linejoin:round;}
</style>
<g>
	<g>
		<rect class="st0" width="200" height="200"/>
	</g>
	<polygon id="Wansbeck_3_" class="st1" points="100.7,19.1 99.3,16.7 96.5,16.7 95,19.1 96.5,21.6 99.3,21.6 	"/>
	<polygon id="Tynemouth_3_" class="st1" points="109.2,19.1 107.8,16.7 105,16.7 103.5,19.1 105,21.6 107.8,21.6 	"/>
	<polygon id="Berwick-Upon-Tweed_3_" class="st1" points="96.5,21.6 95,19.1 92.2,19.1 90.8,21.6 92.2,24 95,24 	"/>
	<polygon id="Blyth_Valley_3_" class="st1" points="105,21.6 103.5,19.1 100.7,19.1 99.3,21.6 100.7,24 103.5,24 	"/>
	<polygon id="South_Shields_3_" class="st1" points="113.4,21.6 112,19.1 109.2,19.1 107.8,21.6 109.2,24 112,24 	"/>
	<polygon id="Newcastle_Upon_Tyne_North_3_" class="st1" points="100.7,24 99.3,21.6 96.5,21.6 95,24 96.5,26.5 99.3,26.5 	"/>
	<polygon id="Jarrow_3_" class="st1" points="109.2,24 107.8,21.6 105,21.6 103.5,24 105,26.5 107.8,26.5 	"/>
	<polygon id="Sunderland_Central_3_" class="st1" points="117.7,24 116.3,21.6 113.4,21.6 112,24 113.4,26.5 116.3,26.5 	"/>
	<polygon id="Hexham_3_" class="st1" points="96.5,26.5 95,24 92.2,24 90.8,26.5 92.2,28.9 95,28.9 	"/>
	<polygon id="Tyneside_North_3_" class="st1" points="105,26.5 103.5,24 100.7,24 99.3,26.5 100.7,28.9 103.5,28.9 	"/>
	<polygon id="Washington__Sunderland_West_3_" class="st1" points="113.4,26.5 112,24 109.2,24 107.8,26.5 109.2,28.9 112,28.9 	"/>
	<polygon id="Newcastle_Upon_Tyne_Central_3_" class="st1" points="100.7,28.9 99.3,26.5 96.5,26.5 95,28.9 96.5,31.4 99.3,31.4
		"/>
	<polygon id="Gateshead_3_" class="st1" points="109.2,28.9 107.8,26.5 105,26.5 103.5,28.9 105,31.4 107.8,31.4 	"/>
	<polygon id="Easington_3_" class="st1" points="117.7,28.9 116.3,26.5 113.4,26.5 112,28.9 113.4,31.4 116.3,31.4 	"/>
	<polygon id="Blaydon_3_" class="st1" points="96.5,31.4 95,28.9 92.2,28.9 90.8,31.4 92.2,33.8 95,33.8 	"/>
	<polygon id="Newcastle_Upon_Tyne_East_3_" class="st1" points="105,31.4 103.5,28.9 100.7,28.9 99.3,31.4 100.7,33.8 103.5,33.8
		"/>
	<polygon id="Houghton__Sunderland_South_3_" class="st1" points="113.4,31.4 112,28.9 109.2,28.9 107.8,31.4 109.2,33.8 112,33.8
		"/>
	<polygon id="Hartlepool_3_" class="st1" points="121.9,31.4 120.5,28.9 117.7,28.9 116.3,31.4 117.7,33.8 120.5,33.8 	"/>
	<polygon id="Durham_North_West_3_" class="st1" points="100.7,33.8 99.3,31.4 96.5,31.4 95,33.8 96.5,36.3 99.3,36.3 	"/>
	<polygon id="Durham_City_of_3_" class="st1" points="109.2,33.8 107.8,31.4 105,31.4 103.5,33.8 105,36.3 107.8,36.3 	"/>
	<polygon id="Stockton_North_3_" class="st1" points="117.7,33.8 116.3,31.4 113.4,31.4 112,33.8 113.4,36.3 116.3,36.3 	"/>
	<polygon id="Redcar_3_" class="st1" points="126.2,33.8 124.8,31.4 121.9,31.4 120.5,33.8 121.9,36.3 124.8,36.3 	"/>
	<polygon id="Durham_North_3_" class="st1" points="105,36.3 103.5,33.8 100.7,33.8 99.3,36.3 100.7,38.7 103.5,38.7 	"/>
	<polygon id="Sedgefield_3_" class="st1" points="113.4,36.3 112,33.8 109.2,33.8 107.8,36.3 109.2,38.7 112,38.7 	"/>
	<polygon id="Middlesbrough_3_" class="st1" points="121.9,36.3 120.5,33.8 117.7,33.8 116.3,36.3 117.7,38.7 120.5,38.7 	"/>
	<polygon id="Bishop_Auckland_3_" class="st1" points="109.2,38.7 107.8,36.3 105,36.3 103.5,38.7 105,41.2 107.8,41.2 	"/>
	<polygon id="Darlington_3_" class="st1" points="117.7,38.7 116.3,36.3 113.4,36.3 112,38.7 113.4,41.2 116.3,41.2 	"/>
	<polygon id="Middlesbrough_South__Cleveland_East_3_" class="st1" points="126.2,38.7 124.8,36.3 121.9,36.3 120.5,38.7
		121.9,41.2 124.8,41.2 	"/>
	<polygon id="Stockton_South_3_" class="st1" points="121.9,41.2 120.5,38.7 117.7,38.7 116.3,41.2 117.7,43.6 120.5,43.6 	"/>
	<polygon id="Penrith__The_Border_3_" class="st2" points="92.2,28.9 90.8,26.5 88,26.5 86.6,28.9 88,31.4 90.8,31.4 	"/>
	<polygon id="Workington_3_" class="st2" points="88,31.4 86.6,28.9 83.7,28.9 82.3,31.4 83.7,33.8 86.6,33.8 	"/>
	<polygon id="Carlisle_3_" class="st2" points="92.2,33.8 90.8,31.4 88,31.4 86.6,33.8 88,36.3 90.8,36.3 	"/>
	<polygon id="Copeland_3_" class="st2" points="88,36.3 86.6,33.8 83.7,33.8 82.3,36.3 83.7,38.7 86.6,38.7 	"/>
	<polygon id="Westmorland__Lonsdale_3_" class="st2" points="96.5,36.3 95,33.8 92.2,33.8 90.8,36.3 92.2,38.7 95,38.7 	"/>
	<polygon id="Morecambe__Lunesdale_3_" class="st2" points="92.2,38.7 90.8,36.3 88,36.3 86.6,38.7 88,41.2 90.8,41.2 	"/>
	<polygon id="Lancaster__Fleetwood_3_" class="st2" points="100.7,38.7 99.3,36.3 96.5,36.3 95,38.7 96.5,41.2 99.3,41.2 	"/>
	<polygon id="Barrow__Furness_3_" class="st2" points="88,41.2 86.6,38.7 83.7,38.7 82.3,41.2 83.7,43.6 86.6,43.6 	"/>
	<polygon id="Wyre__Preston_North_3_" class="st2" points="96.5,41.2 95,38.7 92.2,38.7 90.8,41.2 92.2,43.6 95,43.6 	"/>
	<polygon id="Ribble_Valley_3_" class="st2" points="105,41.2 103.5,38.7 100.7,38.7 99.3,41.2 100.7,43.6 103.5,43.6 	"/>
	<polygon id="Blackpool_North__Cleveleys_3_" class="st2" points="83.7,43.6 82.3,41.2 79.5,41.2 78.1,43.6 79.5,46.1 82.3,46.1
		"/>
	<polygon id="Blackburn_3_" class="st2" points="92.2,43.6 90.8,41.2 88,41.2 86.6,43.6 88,46.1 90.8,46.1 	"/>
	<polygon id="Hyndburn_3_" class="st2" points="100.7,43.6 99.3,41.2 96.5,41.2 95,43.6 96.5,46.1 99.3,46.1 	"/>
	<polygon id="Blackpool_South_3_" class="st2" points="79.5,46.1 78.1,43.6 75.2,43.6 73.8,46.1 75.2,48.5 78.1,48.5 	"/>
	<polygon id="Preston_3_" class="st2" points="88,46.1 86.6,43.6 83.7,43.6 82.3,46.1 83.7,48.5 86.6,48.5 	"/>
	<polygon id="Bury_North_3_" class="st2" points="96.5,46.1 95,43.6 92.2,43.6 90.8,46.1 92.2,48.5 95,48.5 	"/>
	<polygon id="Pendle_3_" class="st2" points="105,46.1 103.5,43.6 100.7,43.6 99.3,46.1 100.7,48.5 103.5,48.5 	"/>
	<polygon id="Chorley_3_" class="st2" points="83.7,48.5 82.3,46.1 79.5,46.1 78.1,48.5 79.5,51 82.3,51 	"/>
	<polygon id="Bolton_North_East_3_" class="st2" points="92.2,48.5 90.8,46.1 88,46.1 86.6,48.5 88,51 90.8,51 	"/>
	<polygon id="Heywood__Middleton_3_" class="st2" points="100.7,48.5 99.3,46.1 96.5,46.1 95,48.5 96.5,51 99.3,51 	"/>
	<polygon id="Fylde_3_" class="st2" points="79.5,51 78.1,48.5 75.2,48.5 73.8,51 75.2,53.4 78.1,53.4 	"/>
	<polygon id="Bolton_West_3_" class="st2" points="88,51 86.6,48.5 83.7,48.5 82.3,51 83.7,53.4 86.6,53.4 	"/>
	<polygon id="Bury_South_3_" class="st2" points="96.5,51 95,48.5 92.2,48.5 90.8,51 92.2,53.4 95,53.4 	"/>
	<polygon id="Burnley_3_" class="st2" points="105,51 103.5,48.5 100.7,48.5 99.3,51 100.7,53.4 103.5,53.4 	"/>
	<polygon id="Wigan_3_" class="st2" points="83.7,53.4 82.3,51 79.5,51 78.1,53.4 79.5,55.9 82.3,55.9 	"/>
	<polygon id="Bolton_South_East_3_" class="st2" points="92.2,53.4 90.8,51 88,51 86.6,53.4 88,55.9 90.8,55.9 	"/>
	<polygon id="Oldham_West__Royton_3_" class="st2" points="100.7,53.4 99.3,51 96.5,51 95,53.4 96.5,55.9 99.3,55.9 	"/>
	<polygon id="Lancashire_West_3_" class="st2" points="79.5,55.9 78.1,53.4 75.2,53.4 73.8,55.9 75.2,58.3 78.1,58.3 	"/>
	<polygon id="Stretford__Urmston_3_" class="st2" points="88,55.9 86.6,53.4 83.7,53.4 82.3,55.9 83.7,58.3 86.6,58.3 	"/>
	<polygon id="Blackley__Broughton_3_" class="st2" points="96.5,55.9 95,53.4 92.2,53.4 90.8,55.9 92.2,58.3 95,58.3 	"/>
	<polygon id="Rossendale__Darwen_3_" class="st2" points="105,55.9 103.5,53.4 100.7,53.4 99.3,55.9 100.7,58.3 103.5,58.3 	"/>
	<polygon id="South_Ribble_3_" class="st2" points="75.2,58.3 73.8,55.9 71,55.9 69.6,58.3 71,60.8 73.8,60.8 	"/>
	<polygon id="Makerfield_3_" class="st2" points="83.7,58.3 82.3,55.9 79.5,55.9 78.1,58.3 79.5,60.8 82.3,60.8 	"/>
	<polygon id="Salford__Eccles_3_" class="st2" points="92.2,58.3 90.8,55.9 88,55.9 86.6,58.3 88,60.8 90.8,60.8 	"/>
	<polygon id="Ashton-under-Lyne_3_" class="st2" points="100.7,58.3 99.3,55.9 96.5,55.9 95,58.3 96.5,60.8 99.3,60.8 	"/>
	<polygon id="Southport_3_" class="st2" points="71,60.8 69.6,58.3 66.7,58.3 65.3,60.8 66.7,63.2 69.6,63.2 	"/>
	<polygon id="St_Helens_North__3_" class="st2" points="79.5,60.8 78.1,58.3 75.2,58.3 73.8,60.8 75.2,63.2 78.1,63.2 	"/>
	<polygon id="Manchester_Gorton_3_" class="st2" points="88,60.8 86.6,58.3 83.7,58.3 82.3,60.8 83.7,63.2 86.6,63.2 	"/>
	<polygon id="Manchester_Central_3_" class="st2" points="96.5,60.8 95,58.3 92.2,58.3 90.8,60.8 92.2,63.2 95,63.2 	"/>
	<polygon id="Rochdale_3_" class="st2" points="105,60.8 103.5,58.3 100.7,58.3 99.3,60.8 100.7,63.2 103.5,63.2 	"/>
	<polygon id="Liverpool_Walton_3_" class="st2" points="75.2,63.2 73.8,60.8 71,60.8 69.6,63.2 71,65.7 73.8,65.7 	"/>
	<polygon id="Leigh_3_" class="st2" points="83.7,63.2 82.3,60.8 79.5,60.8 78.1,63.2 79.5,65.7 82.3,65.7 	"/>
	<polygon id="Wythenshawe__Sale_East_3_" class="st2" points="92.2,63.2 90.8,60.8 88,60.8 86.6,63.2 88,65.7 90.8,65.7 	"/>
	<polygon id="Denton__Reddish_3_" class="st2" points="100.7,63.2 99.3,60.8 96.5,60.8 95,63.2 96.5,65.7 99.3,65.7 	"/>
	<polygon id="Sefton_Central_3_" class="st2" points="71,65.7 69.6,63.2 66.7,63.2 65.3,65.7 66.7,68.1 69.6,68.1 	"/>
	<polygon id="Knowsley_3_" class="st2" points="79.5,65.7 78.1,63.2 75.2,63.2 73.8,65.7 75.2,68.1 78.1,68.1 	"/>
	<polygon id="Worsley__Eccles_South_3_" class="st2" points="88,65.7 86.6,63.2 83.7,63.2 82.3,65.7 83.7,68.1 86.6,68.1 	"/>
	<polygon id="Manchester_Withington_3_" class="st2" points="96.5,65.7 95,63.2 92.2,63.2 90.8,65.7 92.2,68.1 95,68.1 	"/>
	<polygon id="Oldham_East__Saddleworth_3_" class="st2" points="105,65.7 103.5,63.2 100.7,63.2 99.3,65.7 100.7,68.1 103.5,68.1
		"/>
	<polygon id="Liverpool_West_Derby_3_" class="st2" points="75.2,68.1 73.8,65.7 71,65.7 69.6,68.1 71,70.6 73.8,70.6 	"/>
	<polygon id="Warrington_North_3_" class="st2" points="83.7,68.1 82.3,65.7 79.5,65.7 78.1,68.1 79.5,70.6 82.3,70.6 	"/>
	<polygon id="Altrincham__Sale_West_3_" class="st2" points="92.2,68.1 90.8,65.7 88,65.7 86.6,68.1 88,70.6 90.8,70.6 	"/>
	<polygon id="Stockport_3_" class="st2" points="100.7,68.1 99.3,65.7 96.5,65.7 95,68.1 96.5,70.6 99.3,70.6 	"/>
	<polygon id="Birkenhead_3_" class="st2" points="71,70.6 69.6,68.1 66.7,68.1 65.3,70.6 66.7,73 69.6,73 	"/>
	<polygon id="St_Helens_South__Whiston_3_" class="st2" points="79.5,70.6 78.1,68.1 75.2,68.1 73.8,70.6 75.2,73 78.1,73 	"/>
	<polygon id="Warrington_South_3_" class="st2" points="88,70.6 86.6,68.1 83.7,68.1 82.3,70.6 83.7,73 86.6,73 	"/>
	<polygon id="Cheadle_3_" class="st2" points="96.5,70.6 95,68.1 92.2,68.1 90.8,70.6 92.2,73 95,73 	"/>
	<polygon id="Stalybridge__Hyde_3_" class="st2" points="105,70.6 103.5,68.1 100.7,68.1 99.3,70.6 100.7,73 103.5,73 	"/>
	<polygon id="Bootle_3_" class="st2" points="66.7,73 65.3,70.6 62.5,70.6 61.1,73 62.5,75.5 65.3,75.5 	"/>
	<polygon id="Liverpool_Wavertree_3_" class="st2" points="75.2,73 73.8,70.6 71,70.6 69.6,73 71,75.5 73.8,75.5 	"/>
	<polygon id="Halton_3_" class="st2" points="83.7,73 82.3,70.6 79.5,70.6 78.1,73 79.5,75.5 82.3,75.5 	"/>
	<polygon id="Tatton_3_" class="st2" points="92.2,73 90.8,70.6 88,70.6 86.6,73 88,75.5 90.8,75.5 	"/>
	<polygon id="Macclesfield_3_" class="st2" points="100.7,73 99.3,70.6 96.5,70.6 95,73 96.5,75.5 99.3,75.5 	"/>
	<polygon id="Ellesmere_Port__Neston_3_" class="st2" points="71,75.5 69.6,73 66.7,73 65.3,75.5 66.7,77.9 69.6,77.9 	"/>
	<polygon id="Garston__Halewood_3_" class="st2" points="79.5,75.5 78.1,73 75.2,73 73.8,75.5 75.2,77.9 78.1,77.9 	"/>
	<polygon id="Crewe__Nantwich_3_" class="st2" points="88,75.5 86.6,73 83.7,73 82.3,75.5 83.7,77.9 86.6,77.9 	"/>
	<polygon id="Congleton_3_" class="st2" points="96.5,75.5 95,73 92.2,73 90.8,75.5 92.2,77.9 95,77.9 	"/>
	<polygon id="Hazel_Grove_3_" class="st2" points="105,75.5 103.5,73 100.7,73 99.3,75.5 100.7,77.9 103.5,77.9 	"/>
	<polygon id="Wallasey_3_" class="st2" points="66.7,77.9 65.3,75.5 62.5,75.5 61.1,77.9 62.5,80.4 65.3,80.4 	"/>
	<polygon id="Liverpool_Riverside_3_" class="st2" points="75.2,77.9 73.8,75.5 71,75.5 69.6,77.9 71,80.4 73.8,80.4 	"/>
	<polygon id="Weaver_Vale_3_" class="st2" points="83.7,77.9 82.3,75.5 79.5,75.5 78.1,77.9 79.5,80.4 82.3,80.4 	"/>
	<polygon id="Wirral_South_3_" class="st2" points="71,80.4 69.6,77.9 66.7,77.9 65.3,80.4 66.7,82.8 69.6,82.8 	"/>
	<polygon id="Eddisbury_3_" class="st2" points="79.5,80.4 78.1,77.9 75.2,77.9 73.8,80.4 75.2,82.8 78.1,82.8 	"/>
	<polygon id="Wirral_West_3_" class="st2" points="66.7,82.8 65.3,80.4 62.5,80.4 61.1,82.8 62.5,85.3 65.3,85.3 	"/>
	<polygon id="Chester_City_of_3_" class="st2" points="75.2,82.8 73.8,80.4 71,80.4 69.6,82.8 71,85.3 73.8,85.3 	"/>
	<polygon id="Richmond_Yorks_3_" class="st3" points="113.4,41.2 112,38.7 109.2,38.7 107.8,41.2 109.2,43.6 112,43.6 	"/>
	<polygon id="Skipton__Ripon_3_" class="st3" points="109.2,43.6 107.8,41.2 105,41.2 103.5,43.6 105,46.1 107.8,46.1 	"/>
	<polygon id="Shipley_3_" class="st3" points="117.7,43.6 116.3,41.2 113.4,41.2 112,43.6 113.4,46.1 116.3,46.1 	"/>
	<polygon id="Harrogate__Knaresborough_3_" class="st3" points="126.2,43.6 124.8,41.2 121.9,41.2 120.5,43.6 121.9,46.1
		124.8,46.1 	"/>
	<polygon id="Pudsey_3_" class="st3" points="113.4,46.1 112,43.6 109.2,43.6 107.8,46.1 109.2,48.5 112,48.5 	"/>
	<polygon id="Elmet__Rothwell_3_" class="st3" points="121.9,46.1 120.5,43.6 117.7,43.6 116.3,46.1 117.7,48.5 120.5,48.5 	"/>
	<polygon id="Scarborough__Whitby_3_" class="st3" points="130.4,46.1 129,43.6 126.2,43.6 124.8,46.1 126.2,48.5 129,48.5 	"/>
	<polygon id="Keighley_3_" class="st3" points="109.2,48.5 107.8,46.1 105,46.1 103.5,48.5 105,51 107.8,51 	"/>
	<polygon id="Leeds_West_3_" class="st3" points="117.7,48.5 116.3,46.1 113.4,46.1 112,48.5 113.4,51 116.3,51 	"/>
	<polygon id="Selby__Ainsty_3_" class="st3" points="126.2,48.5 124.8,46.1 121.9,46.1 120.5,48.5 121.9,51 124.8,51 	"/>
	<polygon id="Bradford_East_3_" class="st3" points="113.4,51 112,48.5 109.2,48.5 107.8,51 109.2,53.4 112,53.4 	"/>
	<polygon id="Normanton_Pontefract__Castleford_3_" class="st3" points="121.9,51 120.5,48.5 117.7,48.5 116.3,51 117.7,53.4
		120.5,53.4 	"/>
	<polygon id="York_Outer_3_" class="st3" points="130.4,51 129,48.5 126.2,48.5 124.8,51 126.2,53.4 129,53.4 	"/>
	<polygon id="Bradford_West_3_" class="st3" points="109.2,53.4 107.8,51 105,51 103.5,53.4 105,55.9 107.8,55.9 	"/>
	<polygon id="Leeds_North_West_3_" class="st3" points="117.7,53.4 116.3,51 113.4,51 112,53.4 113.4,55.9 116.3,55.9 	"/>
	<polygon id="York_Central_3_" class="st3" points="126.2,53.4 124.8,51 121.9,51 120.5,53.4 121.9,55.9 124.8,55.9 	"/>
	<polygon id="Thirsk__Malton_3_" class="st3" points="134.7,53.4 133.3,51 130.4,51 129,53.4 130.4,55.9 133.3,55.9 	"/>
	<polygon id="Leeds_Central_3_" class="st3" points="113.4,55.9 112,53.4 109.2,53.4 107.8,55.9 109.2,58.3 112,58.3 	"/>
	<polygon id="Leeds_North_East_3_" class="st3" points="121.9,55.9 120.5,53.4 117.7,53.4 116.3,55.9 117.7,58.3 120.5,58.3 	"/>
	<polygon id="Hemsworth_3_" class="st3" points="130.4,55.9 129,53.4 126.2,53.4 124.8,55.9 126.2,58.3 129,58.3 	"/>
	<polygon id="Yorkshire_East_3_" class="st3" points="138.9,55.9 137.5,53.4 134.7,53.4 133.3,55.9 134.7,58.3 137.5,58.3 	"/>
	<polygon id="Bradford_South_3_" class="st3" points="109.2,58.3 107.8,55.9 105,55.9 103.5,58.3 105,60.8 107.8,60.8 	"/>
	<polygon id="Wakefield_3_" class="st3" points="117.7,58.3 116.3,55.9 113.4,55.9 112,58.3 113.4,60.8 116.3,60.8 	"/>
	<polygon id="Leeds_East_3_" class="st3" points="126.2,58.3 124.8,55.9 121.9,55.9 120.5,58.3 121.9,60.8 124.8,60.8 	"/>
	<polygon id="Haltemprice__Howden_3_" class="st3" points="134.7,58.3 133.3,55.9 130.4,55.9 129,58.3 130.4,60.8 133.3,60.8 	"/>
	<polygon id="Batley__Spen_3_" class="st3" points="113.4,60.8 112,58.3 109.2,58.3 107.8,60.8 109.2,63.2 112,63.2 	"/>
	<polygon id="Morley__Outwood_3_" class="st3" points="121.9,60.8 120.5,58.3 117.7,58.3 116.3,60.8 117.7,63.2 120.5,63.2 	"/>
	<polygon id="Doncaster_North_3_" class="st3" points="130.4,60.8 129,58.3 126.2,58.3 124.8,60.8 126.2,63.2 129,63.2 	"/>
	<polygon id="Beverley__Holderness_3_" class="st3" points="138.9,60.8 137.5,58.3 134.7,58.3 133.3,60.8 134.7,63.2 137.5,63.2
		"/>
	<polygon id="Halifax_3_" class="st3" points="109.2,63.2 107.8,60.8 105,60.8 103.5,63.2 105,65.7 107.8,65.7 	"/>
	<polygon id="Dewsbury_3_" class="st3" points="117.7,63.2 116.3,60.8 113.4,60.8 112,63.2 113.4,65.7 116.3,65.7 	"/>
	<polygon id="Wentworth__Dearne_3_" class="st3" points="126.2,63.2 124.8,60.8 121.9,60.8 120.5,63.2 121.9,65.7 124.8,65.7 	"/>
	<polygon id="Hull_North_3_" class="st3" points="134.7,63.2 133.3,60.8 130.4,60.8 129,63.2 130.4,65.7 133.3,65.7 	"/>
	<polygon id="Huddersfield_3_" class="st3" points="113.4,65.7 112,63.2 109.2,63.2 107.8,65.7 109.2,68.1 112,68.1 	"/>
	<polygon id="Rotherham_3_" class="st3" points="121.9,65.7 120.5,63.2 117.7,63.2 116.3,65.7 117.7,68.1 120.5,68.1 	"/>
	<polygon id="Doncaster_Central_3_" class="st3" points="130.4,65.7 129,63.2 126.2,63.2 124.8,65.7 126.2,68.1 129,68.1 	"/>
	<polygon id="Calder_Valley_3_" class="st3" points="109.2,68.1 107.8,65.7 105,65.7 103.5,68.1 105,70.6 107.8,70.6 	"/>
	<polygon id="Barnsley_East_3_" class="st3" points="117.7,68.1 116.3,65.7 113.4,65.7 112,68.1 113.4,70.6 116.3,70.6 	"/>
	<polygon id="Don_Valley_3_" class="st3" points="126.2,68.1 124.8,65.7 121.9,65.7 120.5,68.1 121.9,70.6 124.8,70.6 	"/>
	<polygon id="Hull_East_3_" class="st3" points="134.7,68.1 133.3,65.7 130.4,65.7 129,68.1 130.4,70.6 133.3,70.6 	"/>
	<polygon id="Barnsley_Central_3_" class="st3" points="113.4,70.6 112,68.1 109.2,68.1 107.8,70.6 109.2,73 112,73 	"/>
	<polygon id="Sheffield_Brightside__Hillsborough_3_" class="st3" points="121.9,70.6 120.5,68.1 117.7,68.1 116.3,70.6 117.7,73
		120.5,73 	"/>
	<polygon id="Brigg__Goole_3_" class="st3" points="130.4,70.6 129,68.1 126.2,68.1 124.8,70.6 126.2,73 129,73 	"/>
	<polygon id="Colne_Valley_3_" class="st3" points="109.2,73 107.8,70.6 105,70.6 103.5,73 105,75.5 107.8,75.5 	"/>
	<polygon id="Sheffield_Central_3_" class="st3" points="117.7,73 116.3,70.6 113.4,70.6 112,73 113.4,75.5 116.3,75.5 	"/>
	<polygon id="Sheffield_South_East_3_" class="st3" points="126.2,73 124.8,70.6 121.9,70.6 120.5,73 121.9,75.5 124.8,75.5 	"/>
	<polygon id="Hull_West__Hessle_3_" class="st3" points="134.7,73 133.3,70.6 130.4,70.6 129,73 130.4,75.5 133.3,75.5 	"/>
	<polygon id="Penistone__Stocksbridge_3_" class="st3" points="113.4,75.5 112,73 109.2,73 107.8,75.5 109.2,77.9 112,77.9 	"/>
	<polygon id="Sheffield_Heeley_3_" class="st3" points="121.9,75.5 120.5,73 117.7,73 116.3,75.5 117.7,77.9 120.5,77.9 	"/>
	<polygon id="Rother_Valley_3_" class="st3" points="130.4,75.5 129,73 126.2,73 124.8,75.5 126.2,77.9 129,77.9 	"/>
	<polygon id="Great_Grimsby_3_" class="st3" points="138.9,75.5 137.5,73 134.7,73 133.3,75.5 134.7,77.9 137.5,77.9 	"/>
	<polygon id="Sheffield_Hallam_3_" class="st3" points="117.7,77.9 116.3,75.5 113.4,75.5 112,77.9 113.4,80.4 116.3,80.4 	"/>
	<polygon id="Scunthorpe_3_" class="st3" points="134.7,77.9 133.3,75.5 130.4,75.5 129,77.9 130.4,80.4 133.3,80.4 	"/>
	<polygon id="Cleethorpes_3_" class="st3" points="138.9,80.4 137.5,77.9 134.7,77.9 133.3,80.4 134.7,82.8 137.5,82.8 	"/>
	<polygon id="Staffordshire_Moorlands_3_" class="st3" points="92.2,77.9 90.8,75.5 88,75.5 86.6,77.9 88,80.4 90.8,80.4 	"/>
	<polygon id="Burton_3_" class="st3" points="100.7,77.9 99.3,75.5 96.5,75.5 95,77.9 96.5,80.4 99.3,80.4 	"/>
	<polygon id="Stoke-on-Trent_Central_3_" class="st3" points="88,80.4 86.6,77.9 83.7,77.9 82.3,80.4 83.7,82.8 86.6,82.8 	"/>
	<polygon id="Stone_3_" class="st3" points="96.5,80.4 95,77.9 92.2,77.9 90.8,80.4 92.2,82.8 95,82.8 	"/>
	<polygon id="Tamworth_3_" class="st3" points="105,80.4 103.5,77.9 100.7,77.9 99.3,80.4 100.7,82.8 103.5,82.8 	"/>
	<polygon id="Stoke-on-Trent_North_3_" class="st3" points="83.7,82.8 82.3,80.4 79.5,80.4 78.1,82.8 79.5,85.3 82.3,85.3 	"/>
	<polygon id="Wolverhampton_North_East_3_" class="st3" points="92.2,82.8 90.8,80.4 88,80.4 86.6,82.8 88,85.3 90.8,85.3 	"/>
	<polygon id="Lichfield_3_" class="st3" points="100.7,82.8 99.3,80.4 96.5,80.4 95,82.8 96.5,85.3 99.3,85.3 	"/>
	<polygon id="Newcastle-under-Lyme_3_" class="st3" points="79.5,85.3 78.1,82.8 75.2,82.8 73.8,85.3 75.2,87.7 78.1,87.7 	"/>
	<polygon id="Stoke-on-Trent_South_3_" class="st3" points="88,85.3 86.6,82.8 83.7,82.8 82.3,85.3 83.7,87.7 86.6,87.7 	"/>
	<polygon id="Stafford_3_" class="st3" points="96.5,85.3 95,82.8 92.2,82.8 90.8,85.3 92.2,87.7 95,87.7 	"/>
	<polygon id="Warwickshire_North_3_" class="st3" points="105,85.3 103.5,82.8 100.7,82.8 99.3,85.3 100.7,87.7 103.5,87.7 	"/>
	<polygon id="Staffordshire_South_3_" class="st3" points="83.7,87.7 82.3,85.3 79.5,85.3 78.1,87.7 79.5,90.2 82.3,90.2 	"/>
	<polygon id="Walsall_North_3_" class="st3" points="92.2,87.7 90.8,85.3 88,85.3 86.6,87.7 88,90.2 90.8,90.2 	"/>
	<polygon id="Aldridge-Brownhills_3_" class="st3" points="100.7,87.7 99.3,85.3 96.5,85.3 95,87.7 96.5,90.2 99.3,90.2 	"/>
	<polygon id="Shropshire_North_3_" class="st3" points="79.5,90.2 78.1,87.7 75.2,87.7 73.8,90.2 75.2,92.6 78.1,92.6 	"/>
	<polygon id="Wolverhampton_South_West_3_" class="st3" points="88,90.2 86.6,87.7 83.7,87.7 82.3,90.2 83.7,92.6 86.6,92.6 	"/>
	<polygon id="Cannock_Chase_3_" class="st3" points="96.5,90.2 95,87.7 92.2,87.7 90.8,90.2 92.2,92.6 95,92.6 	"/>
	<polygon id="Nuneaton_3_" class="st3" points="105,90.2 103.5,87.7 100.7,87.7 99.3,90.2 100.7,92.6 103.5,92.6 	"/>
	<polygon id="Telford_3_" class="st3" points="83.7,92.6 82.3,90.2 79.5,90.2 78.1,92.6 79.5,95.1 82.3,95.1 	"/>
	<polygon id="Walsall_South_3_" class="st3" points="92.2,92.6 90.8,90.2 88,90.2 86.6,92.6 88,95.1 90.8,95.1 	"/>
	<polygon id="Sutton_Coldfield_3_" class="st3" points="100.7,92.6 99.3,90.2 96.5,90.2 95,92.6 96.5,95.1 99.3,95.1 	"/>
	<polygon id="Shrewsbury__Atcham_3_" class="st3" points="79.5,95.1 78.1,92.6 75.2,92.6 73.8,95.1 75.2,97.5 78.1,97.5 	"/>
	<polygon id="Wolverhampton_South_East_3_" class="st3" points="88,95.1 86.6,92.6 83.7,92.6 82.3,95.1 83.7,97.5 86.6,97.5 	"/>
	<polygon id="Birmingham_Erdington_3_" class="st3" points="96.5,95.1 95,92.6 92.2,92.6 90.8,95.1 92.2,97.5 95,97.5 	"/>
	<polygon id="Coventry_North_East_3_" class="st3" points="105,95.1 103.5,92.6 100.7,92.6 99.3,95.1 100.7,97.5 103.5,97.5 	"/>
	<polygon id="Dudley_North_3_" class="st3" points="83.7,97.5 82.3,95.1 79.5,95.1 78.1,97.5 79.5,100 82.3,100 	"/>
	<polygon id="West_Bromwich_East_3_" class="st3" points="92.2,97.5 90.8,95.1 88,95.1 86.6,97.5 88,100 90.8,100 	"/>
	<polygon id="Meriden_3_" class="st3" points="100.7,97.5 99.3,95.1 96.5,95.1 95,97.5 96.5,100 99.3,100 	"/>
	<polygon id="Wrekin_The_3_" class="st3" points="79.5,100 78.1,97.5 75.2,97.5 73.8,100 75.2,102.5 78.1,102.5 	"/>
	<polygon id="Warley_3_" class="st3" points="88,100 86.6,97.5 83.7,97.5 82.3,100 83.7,102.5 86.6,102.5 	"/>
	<polygon id="Birmingham_Hodge_Hill_3_" class="st3" points="96.5,100 95,97.5 92.2,97.5 90.8,100 92.2,102.5 95,102.5 	"/>
	<polygon id="Coventry_North_West_3_" class="st3" points="105,100 103.5,97.5 100.7,97.5 99.3,100 100.7,102.5 103.5,102.5 	"/>
	<polygon id="Dudley_South_3_" class="st3" points="83.7,102.5 82.3,100 79.5,100 78.1,102.5 79.5,104.9 82.3,104.9 	"/>
	<polygon id="Birmingham_Perry_Barr_3_" class="st3" points="92.2,102.5 90.8,100 88,100 86.6,102.5 88,104.9 90.8,104.9 	"/>
	<polygon id="Coventry_South_3_" class="st3" points="100.7,102.5 99.3,100 96.5,100 95,102.5 96.5,104.9 99.3,104.9 	"/>
	<polygon id="Ludlow_3_" class="st3" points="79.5,104.9 78.1,102.5 75.2,102.5 73.8,104.9 75.2,107.4 78.1,107.4 	"/>
	<polygon id="Birmingham_Selly_Oak_3_" class="st3" points="88,104.9 86.6,102.5 83.7,102.5 82.3,104.9 83.7,107.4 86.6,107.4 	"/>
	<polygon id="Birmingham_Yardley_3_" class="st3" points="96.5,104.9 95,102.5 92.2,102.5 90.8,104.9 92.2,107.4 95,107.4 	"/>
	<polygon id="West_Bromwich_West_3_" class="st3" points="83.7,107.4 82.3,104.9 79.5,104.9 78.1,107.4 79.5,109.8 82.3,109.8 	"/>
	<polygon id="Birmingham_Ladywood_3_" class="st3" points="92.2,107.4 90.8,104.9 88,104.9 86.6,107.4 88,109.8 90.8,109.8 	"/>
	<polygon id="Rugby_3_" class="st3" points="100.7,107.4 99.3,104.9 96.5,104.9 95,107.4 96.5,109.8 99.3,109.8 	"/>
	<polygon id="Wyre_Forest_3_" class="st3" points="79.5,109.8 78.1,107.4 75.2,107.4 73.8,109.8 75.2,112.3 78.1,112.3 	"/>
	<polygon id="Halesowen__Rowley_Regis_3_" class="st3" points="88,109.8 86.6,107.4 83.7,107.4 82.3,109.8 83.7,112.3 86.6,112.3
		"/>
	<polygon id="Solihull_3_" class="st3" points="96.5,109.8 95,107.4 92.2,107.4 90.8,109.8 92.2,112.3 95,112.3 	"/>
	<polygon id="Stourbridge_3_" class="st3" points="83.7,112.3 82.3,109.8 79.5,109.8 78.1,112.3 79.5,114.7 82.3,114.7 	"/>
	<polygon id="Birmingham_Hall_Green_3_" class="st3" points="92.2,112.3 90.8,109.8 88,109.8 86.6,112.3 88,114.7 90.8,114.7 	"/>
	<polygon id="Warwick__Leamington_3_" class="st3" points="100.7,112.3 99.3,109.8 96.5,109.8 95,112.3 96.5,114.7 99.3,114.7 	"/>
	<polygon id="Herefordshire_North_3_" class="st3" points="79.5,114.7 78.1,112.3 75.2,112.3 73.8,114.7 75.2,117.2 78.1,117.2 	"/>
	<polygon id="Birmingham_Northfield_3_" class="st3" points="88,114.7 86.6,112.3 83.7,112.3 82.3,114.7 83.7,117.2 86.6,117.2 	"/>
	<polygon id="Kenilworth__Southam_3_" class="st3" points="96.5,114.7 95,112.3 92.2,112.3 90.8,114.7 92.2,117.2 95,117.2 	"/>
	<polygon id="Birmingham_Edgbaston_3_" class="st3" points="83.7,117.2 82.3,114.7 79.5,114.7 78.1,117.2 79.5,119.6 82.3,119.6
		"/>
	<polygon id="Bromsgrove_3_" class="st3" points="92.2,117.2 90.8,114.7 88,114.7 86.6,117.2 88,119.6 90.8,119.6 	"/>
	<polygon id="Redditch_3_" class="st3" points="88,119.6 86.6,117.2 83.7,117.2 82.3,119.6 83.7,122.1 86.6,122.1 	"/>
	<polygon id="Stratford-on-Avon_3_" class="st3" points="96.5,119.6 95,117.2 92.2,117.2 90.8,119.6 92.2,122.1 95,122.1 	"/>
	<polygon id="Worcester_3_" class="st3" points="83.7,122.1 82.3,119.6 79.5,119.6 78.1,122.1 79.5,124.5 82.3,124.5 	"/>
	<polygon id="Worcestershire_Mid_3_" class="st3" points="92.2,122.1 90.8,119.6 88,119.6 86.6,122.1 88,124.5 90.8,124.5 	"/>
	<polygon id="Worcestershire_West_3_" class="st3" points="88,124.5 86.6,122.1 83.7,122.1 82.3,124.5 83.7,127 86.6,127 	"/>
	<polygon id="Hereford__Herefordshire_South_3_" class="st3" points="83.7,127 82.3,124.5 79.5,124.5 78.1,127 79.5,129.4
		82.3,129.4 	"/>
	<polygon id="High_Peak_3_" class="st1" points="109.2,77.9 107.8,75.5 105,75.5 103.5,77.9 105,80.4 107.8,80.4 	"/>
	<polygon id="Mansfield_3_" class="st1" points="126.2,77.9 124.8,75.5 121.9,75.5 120.5,77.9 121.9,80.4 124.8,80.4 	"/>
	<polygon id="Derbyshire_North_East_3_" class="st1" points="113.4,80.4 112,77.9 109.2,77.9 107.8,80.4 109.2,82.8 112,82.8 	"/>
	<polygon id="Bolsover_3_" class="st1" points="121.9,80.4 120.5,77.9 117.7,77.9 116.3,80.4 117.7,82.8 120.5,82.8 	"/>
	<polygon id="Bassetlaw_3_" class="st1" points="130.4,80.4 129,77.9 126.2,77.9 124.8,80.4 126.2,82.8 129,82.8 	"/>
	<polygon id="Derbyshire_Dales_3_" class="st1" points="109.2,82.8 107.8,80.4 105,80.4 103.5,82.8 105,85.3 107.8,85.3 	"/>
	<polygon id="Chesterfield_3_" class="st1" points="117.7,82.8 116.3,80.4 113.4,80.4 112,82.8 113.4,85.3 116.3,85.3 	"/>
	<polygon id="Sherwood_3_" class="st1" points="126.2,82.8 124.8,80.4 121.9,80.4 120.5,82.8 121.9,85.3 124.8,85.3 	"/>
	<polygon id="Newark_3_" class="st1" points="134.7,82.8 133.3,80.4 130.4,80.4 129,82.8 130.4,85.3 133.3,85.3 	"/>
	<polygon id="Derbyshire_Mid_3_" class="st1" points="113.4,85.3 112,82.8 109.2,82.8 107.8,85.3 109.2,87.7 112,87.7 	"/>
	<polygon id="Ashfield_3_" class="st1" points="121.9,85.3 120.5,82.8 117.7,82.8 116.3,85.3 117.7,87.7 120.5,87.7 	"/>
	<polygon id="Nottingham_North_3_" class="st1" points="130.4,85.3 129,82.8 126.2,82.8 124.8,85.3 126.2,87.7 129,87.7 	"/>
	<polygon id="Gainsborough_3_" class="st1" points="138.9,85.3 137.5,82.8 134.7,82.8 133.3,85.3 134.7,87.7 137.5,87.7 	"/>
	<polygon id="Derby_North_3_" class="st1" points="109.2,87.7 107.8,85.3 105,85.3 103.5,87.7 105,90.2 107.8,90.2 	"/>
	<polygon id="Amber_Valley_3_" class="st1" points="117.7,87.7 116.3,85.3 113.4,85.3 112,87.7 113.4,90.2 116.3,90.2 	"/>
	<polygon id="Broxtowe_3_" class="st1" points="126.2,87.7 124.8,85.3 121.9,85.3 120.5,87.7 121.9,90.2 124.8,90.2 	"/>
	<polygon id="Gedling_3_" class="st1" points="134.7,87.7 133.3,85.3 130.4,85.3 129,87.7 130.4,90.2 133.3,90.2 	"/>
	<polygon id="Derby_South_3_" class="st1" points="113.4,90.2 112,87.7 109.2,87.7 107.8,90.2 109.2,92.6 112,92.6 	"/>
	<polygon id="Erewash_3_" class="st1" points="121.9,90.2 120.5,87.7 117.7,87.7 116.3,90.2 117.7,92.6 120.5,92.6 	"/>
	<polygon id="Nottingham_East_3_" class="st1" points="130.4,90.2 129,87.7 126.2,87.7 124.8,90.2 126.2,92.6 129,92.6 	"/>
	<polygon id="Louth__Horncastle_3_" class="st1" points="138.9,90.2 137.5,87.7 134.7,87.7 133.3,90.2 134.7,92.6 137.5,92.6 	"/>
	<polygon id="Derbyshire_South_3_" class="st1" points="109.2,92.6 107.8,90.2 105,90.2 103.5,92.6 105,95.1 107.8,95.1 	"/>
	<polygon id="Loughborough_3_" class="st1" points="117.7,92.6 116.3,90.2 113.4,90.2 112,92.6 113.4,95.1 116.3,95.1 	"/>
	<polygon id="Nottingham_South_3_" class="st1" points="126.2,92.6 124.8,90.2 121.9,90.2 120.5,92.6 121.9,95.1 124.8,95.1 	"/>
	<polygon id="Lincoln_3_" class="st1" points="134.7,92.6 133.3,90.2 130.4,90.2 129,92.6 130.4,95.1 133.3,95.1 	"/>
	<polygon id="Leicestershire_North_West_3_" class="st1" points="113.4,95.1 112,92.6 109.2,92.6 107.8,95.1 109.2,97.5 112,97.5
		"/>
	<polygon id="Charnwood_3_" class="st1" points="121.9,95.1 120.5,92.6 117.7,92.6 116.3,95.1 117.7,97.5 120.5,97.5 	"/>
	<polygon id="Rushcliffe_3_" class="st1" points="130.4,95.1 129,92.6 126.2,92.6 124.8,95.1 126.2,97.5 129,97.5 	"/>
	<polygon id="Boston__Skegness_3_" class="st1" points="138.9,95.1 137.5,92.6 134.7,92.6 133.3,95.1 134.7,97.5 137.5,97.5 	"/>
	<polygon id="Bosworth_3_" class="st1" points="109.2,97.5 107.8,95.1 105,95.1 103.5,97.5 105,100 107.8,100 	"/>
	<polygon id="Leicester_East_3_" class="st1" points="117.7,97.5 116.3,95.1 113.4,95.1 112,97.5 113.4,100 116.3,100 	"/>
	<polygon id="Corby_3_" class="st1" points="126.2,97.5 124.8,95.1 121.9,95.1 120.5,97.5 121.9,100 124.8,100 	"/>
	<polygon id="Sleaford__North_Hykeham_3_" class="st1" points="134.7,97.5 133.3,95.1 130.4,95.1 129,97.5 130.4,100 133.3,100 	"/>
	<polygon id="Leicester_West_3_" class="st1" points="113.4,100 112,97.5 109.2,97.5 107.8,100 109.2,102.5 112,102.5 	"/>
	<polygon id="Kettering_3_" class="st1" points="121.9,100 120.5,97.5 117.7,97.5 116.3,100 117.7,102.5 120.5,102.5 	"/>
	<polygon id="Rutland__Melton_3_" class="st1" points="130.4,100 129,97.5 126.2,97.5 124.8,100 126.2,102.5 129,102.5 	"/>
	<polygon id="South_Holland__The_Deepings_3_" class="st1" points="138.9,100 137.5,97.5 134.7,97.5 133.3,100 134.7,102.5
		137.5,102.5 	"/>
	<polygon id="Leicestershire_South_3_" class="st1" points="109.2,102.5 107.8,100 105,100 103.5,102.5 105,104.9 107.8,104.9 	"/>
	<polygon id="Harborough_3_" class="st1" points="117.7,102.5 116.3,100 113.4,100 112,102.5 113.4,104.9 116.3,104.9 	"/>
	<polygon id="Grantham__Stamford_3_" class="st1" points="134.7,102.5 133.3,100 130.4,100 129,102.5 130.4,104.9 133.3,104.9 	"/>
	<polygon id="Daventry_3_" class="st1" points="105,104.9 103.5,102.5 100.7,102.5 99.3,104.9 100.7,107.4 103.5,107.4 	"/>
	<polygon id="Leicester_South_3_" class="st1" points="113.4,104.9 112,102.5 109.2,102.5 107.8,104.9 109.2,107.4 112,107.4 	"/>
	<polygon id="Wellingborough_3_" class="st1" points="109.2,107.4 107.8,104.9 105,104.9 103.5,107.4 105,109.8 107.8,109.8 	"/>
	<polygon id="Northampton_North_3_" class="st1" points="105,109.8 103.5,107.4 100.7,107.4 99.3,109.8 100.7,112.3 103.5,112.3
		"/>
	<polygon id="Northampton_South_3_" class="st1" points="105,114.7 103.5,112.3 100.7,112.3 99.3,114.7 100.7,117.2 103.5,117.2
		"/>
	<polygon id="Northamptonshire_South_3_" class="st1" points="100.7,117.2 99.3,114.7 96.5,114.7 95,117.2 96.5,119.6 99.3,119.6
		"/>
	<polygon id="Delyn_3_" class="st2" points="71,85.3 69.6,82.8 66.7,82.8 65.3,85.3 66.7,87.7 69.6,87.7 	"/>
	<polygon id="Ynys_Mon_3_" class="st2" points="58.3,87.7 56.8,85.3 54,85.3 52.6,87.7 54,90.2 56.8,90.2 	"/>
	<polygon id="Alyn__Deeside_3_" class="st2" points="75.2,87.7 73.8,85.3 71,85.3 69.6,87.7 71,90.2 73.8,90.2 	"/>
	<polygon id="Vale_Of_Clwyd_3_" class="st2" points="71,90.2 69.6,87.7 66.7,87.7 65.3,90.2 66.7,92.6 69.6,92.6 	"/>
	<polygon id="Aberconwy_3_" class="st2" points="66.7,92.6 65.3,90.2 62.5,90.2 61.1,92.6 62.5,95.1 65.3,95.1 	"/>
	<polygon id="Wrexham_3_" class="st2" points="75.2,92.6 73.8,90.2 71,90.2 69.6,92.6 71,95.1 73.8,95.1 	"/>
	<polygon id="Arfon_3_" class="st2" points="62.5,95.1 61.1,92.6 58.3,92.6 56.8,95.1 58.3,97.5 61.1,97.5 	"/>
	<polygon id="Clwyd_West_3_" class="st2" points="71,95.1 69.6,92.6 66.7,92.6 65.3,95.1 66.7,97.5 69.6,97.5 	"/>
	<polygon id="Dwyfor_Meirionnydd_3_" class="st2" points="66.7,97.5 65.3,95.1 62.5,95.1 61.1,97.5 62.5,100 65.3,100 	"/>
	<polygon id="Clwyd_South_3_" class="st2" points="75.2,97.5 73.8,95.1 71,95.1 69.6,97.5 71,100 73.8,100 	"/>
	<polygon id="Montgomeryshire_3_" class="st2" points="75.2,102.5 73.8,100 71,100 69.6,102.5 71,104.9 73.8,104.9 	"/>
	<polygon id="Brecon__Radnorshire_3_" class="st2" points="75.2,107.4 73.8,104.9 71,104.9 69.6,107.4 71,109.8 73.8,109.8 	"/>
	<polygon id="Ceredigion_3_" class="st2" points="75.2,112.3 73.8,109.8 71,109.8 69.6,112.3 71,114.7 73.8,114.7 	"/>
	<polygon id="Blaenau_Gwent_3_" class="st2" points="75.2,117.2 73.8,114.7 71,114.7 69.6,117.2 71,119.6 73.8,119.6 	"/>
	<polygon id="Merthyr_Tydfil__Rhymney_3_" class="st2" points="71,119.6 69.6,117.2 66.7,117.2 65.3,119.6 66.7,122.1 69.6,122.1
		"/>
	<polygon id="Torfaen_3_" class="st2" points="79.5,119.6 78.1,117.2 75.2,117.2 73.8,119.6 75.2,122.1 78.1,122.1 	"/>
	<polygon id="Rhondda_3_" class="st2" points="66.7,122.1 65.3,119.6 62.5,119.6 61.1,122.1 62.5,124.5 65.3,124.5 	"/>
	<polygon id="Islwyn_3_" class="st2" points="75.2,122.1 73.8,119.6 71,119.6 69.6,122.1 71,124.5 73.8,124.5 	"/>
	<polygon id="Neath_3_" class="st2" points="62.5,124.5 61.1,122.1 58.3,122.1 56.8,124.5 58.3,127 61.1,127 	"/>
	<polygon id="Cynon_Valley_3_" class="st2" points="71,124.5 69.6,122.1 66.7,122.1 65.3,124.5 66.7,127 69.6,127 	"/>
	<polygon id="Monmouth_3_" class="st2" points="79.5,124.5 78.1,122.1 75.2,122.1 73.8,124.5 75.2,127 78.1,127 	"/>
	<polygon id="Preseli_Pembrokeshire_3_" class="st2" points="49.8,127 48.4,124.5 45.5,124.5 44.1,127 45.5,129.4 48.4,129.4 	"/>
	<polygon id="Carmarthen_East__Dinefwr_3_" class="st2" points="58.3,127 56.8,124.5 54,124.5 52.6,127 54,129.4 56.8,129.4 	"/>
	<polygon id="Pontypridd_3_" class="st2" points="66.7,127 65.3,124.5 62.5,124.5 61.1,127 62.5,129.4 65.3,129.4 	"/>
	<polygon id="Caerphilly_3_" class="st2" points="75.2,127 73.8,124.5 71,124.5 69.6,127 71,129.4 73.8,129.4 	"/>
	<polygon id="Llanelli_3_" class="st2" points="54,129.4 52.6,127 49.8,127 48.4,129.4 49.8,131.9 52.6,131.9 	"/>
	<polygon id="Aberavon_3_" class="st2" points="62.5,129.4 61.1,127 58.3,127 56.8,129.4 58.3,131.9 61.1,131.9 	"/>
	<polygon id="Cardiff_Central_3_" class="st2" points="71,129.4 69.6,127 66.7,127 65.3,129.4 66.7,131.9 69.6,131.9 	"/>
	<polygon id="Newport_East_3_" class="st2" points="79.5,129.4 78.1,127 75.2,127 73.8,129.4 75.2,131.9 78.1,131.9 	"/>
	<polygon id="Carmarthen_West__Pembrokeshire_South_3_" class="st2" points="49.8,131.9 48.4,129.4 45.5,129.4 44.1,131.9
		45.5,134.3 48.4,134.3 	"/>
	<polygon id="Swansea_West_3_" class="st2" points="58.3,131.9 56.8,129.4 54,129.4 52.6,131.9 54,134.3 56.8,134.3 	"/>
	<polygon id="Cardiff_West_3_" class="st2" points="66.7,131.9 65.3,129.4 62.5,129.4 61.1,131.9 62.5,134.3 65.3,134.3 	"/>
	<polygon id="Cardiff_North_3_" class="st2" points="75.2,131.9 73.8,129.4 71,129.4 69.6,131.9 71,134.3 73.8,134.3 	"/>
	<polygon id="Gower_3_" class="st2" points="54,134.3 52.6,131.9 49.8,131.9 48.4,134.3 49.8,136.8 52.6,136.8 	"/>
	<polygon id="Ogmore_3_" class="st2" points="62.5,134.3 61.1,131.9 58.3,131.9 56.8,134.3 58.3,136.8 61.1,136.8 	"/>
	<polygon id="Cardiff_South__Penarth_3_" class="st2" points="71,134.3 69.6,131.9 66.7,131.9 65.3,134.3 66.7,136.8 69.6,136.8
		"/>
	<polygon id="Swansea_East_3_" class="st2" points="58.3,136.8 56.8,134.3 54,134.3 52.6,136.8 54,139.2 56.8,139.2 	"/>
	<polygon id="Vale_Of_Glamorgan_3_" class="st2" points="66.7,136.8 65.3,134.3 62.5,134.3 61.1,136.8 62.5,139.2 65.3,139.2 	"/>
	<polygon id="Newport_West_3_" class="st2" points="75.2,136.8 73.8,134.3 71,134.3 69.6,136.8 71,139.2 73.8,139.2 	"/>
	<polygon id="Bridgend_3_" class="st2" points="62.5,139.2 61.1,136.8 58.3,136.8 56.8,139.2 58.3,141.7 61.1,141.7 	"/>
	<polygon id="Norfolk_Mid_3_" class="st2" points="126.2,102.5 124.8,100 121.9,100 120.5,102.5 121.9,104.9 124.8,104.9 	"/>
	<polygon id="Norfolk_North_West_3_" class="st2" points="143.2,102.5 141.7,100 138.9,100 137.5,102.5 138.9,104.9 141.7,104.9
		"/>
	<polygon id="Cambridgeshire_North_West_3_" class="st2" points="121.9,104.9 120.5,102.5 117.7,102.5 116.3,104.9 117.7,107.4
		120.5,107.4 	"/>
	<polygon id="Peterborough_3_" class="st2" points="130.4,104.9 129,102.5 126.2,102.5 124.8,104.9 126.2,107.4 129,107.4 	"/>
	<polygon id="Cambridgeshire_North_East_3_" class="st2" points="138.9,104.9 137.5,102.5 134.7,102.5 133.3,104.9 134.7,107.4
		137.5,107.4 	"/>
	<polygon id="Broadland_3_" class="st2" points="147.4,104.9 146,102.5 143.2,102.5 141.7,104.9 143.2,107.4 146,107.4 	"/>
	<polygon id="Huntingdon_3_" class="st2" points="117.7,107.4 116.3,104.9 113.4,104.9 112,107.4 113.4,109.8 116.3,109.8 	"/>
	<polygon id="Cambridgeshire_South_3_" class="st2" points="126.2,107.4 124.8,104.9 121.9,104.9 120.5,107.4 121.9,109.8
		124.8,109.8 	"/>
	<polygon id="Hertfordshire_North_East_3_" class="st2" points="134.7,107.4 133.3,104.9 130.4,104.9 129,107.4 130.4,109.8
		133.3,109.8 	"/>
	<polygon id="Norwich_North_3_" class="st2" points="143.2,107.4 141.7,104.9 138.9,104.9 137.5,107.4 138.9,109.8 141.7,109.8 	"/>
	<polygon id="Norfolk_North_3_" class="st2" points="151.6,107.4 150.2,104.9 147.4,104.9 146,107.4 147.4,109.8 150.2,109.8 	"/>
	<polygon id="Bedford_3_" class="st2" points="113.4,109.8 112,107.4 109.2,107.4 107.8,109.8 109.2,112.3 112,112.3 	"/>
	<polygon id="Stevenage_3_" class="st2" points="121.9,109.8 120.5,107.4 117.7,107.4 116.3,109.8 117.7,112.3 120.5,112.3 	"/>
	<polygon id="Hemel_Hempstead_3_" class="st2" points="130.4,109.8 129,107.4 126.2,107.4 124.8,109.8 126.2,112.3 129,112.3 	"/>
	<polygon id="Norfolk_South_West_3_" class="st2" points="138.9,109.8 137.5,107.4 134.7,107.4 133.3,109.8 134.7,112.3
		137.5,112.3 	"/>
	<polygon id="Norwich_South_3_" class="st2" points="147.4,109.8 146,107.4 143.2,107.4 141.7,109.8 143.2,112.3 146,112.3 	"/>
	<polygon id="Great_Yarmouth_3_" class="st2" points="155.9,109.8 154.5,107.4 151.6,107.4 150.2,109.8 151.6,112.3 154.5,112.3
		"/>
	<polygon id="Bedfordshire_North_East_3_" class="st2" points="109.2,112.3 107.8,109.8 105,109.8 103.5,112.3 105,114.7
		107.8,114.7 	"/>
	<polygon id="Hitchin__Harpenden_3_" class="st2" points="117.7,112.3 116.3,109.8 113.4,109.8 112,112.3 113.4,114.7 116.3,114.7
		"/>
	<polygon id="St_Albans_3_" class="st2" points="126.2,112.3 124.8,109.8 121.9,109.8 120.5,112.3 121.9,114.7 124.8,114.7 	"/>
	<polygon id="Hertford__Stortford_3_" class="st2" points="134.7,112.3 133.3,109.8 130.4,109.8 129,112.3 130.4,114.7 133.3,114.7
			"/>
	<polygon id="Suffolk_West_3_" class="st2" points="143.2,112.3 141.7,109.8 138.9,109.8 137.5,112.3 138.9,114.7 141.7,114.7 	"/>
	<polygon id="Norfolk_South_3_" class="st2" points="151.6,112.3 150.2,109.8 147.4,109.8 146,112.3 147.4,114.7 150.2,114.7 	"/>
	<polygon id="Waveney_3_" class="st2" points="160.1,112.3 158.7,109.8 155.9,109.8 154.5,112.3 155.9,114.7 158.7,114.7 	"/>
	<polygon id="Luton_South_3_" class="st2" points="113.4,114.7 112,112.3 109.2,112.3 107.8,114.7 109.2,117.2 112,117.2 	"/>
	<polygon id="Welwyn_Hatfield_3_" class="st2" points="121.9,114.7 120.5,112.3 117.7,112.3 116.3,114.7 117.7,117.2 120.5,117.2
		"/>
	<polygon id="Broxbourne_3_" class="st2" points="130.4,114.7 129,112.3 126.2,112.3 124.8,114.7 126.2,117.2 129,117.2 	"/>
	<polygon id="Cambridge_3_" class="st2" points="138.9,114.7 137.5,112.3 134.7,112.3 133.3,114.7 134.7,117.2 137.5,117.2 	"/>
	<polygon id="Bury_St_Edmunds_3_" class="st2" points="147.4,114.7 146,112.3 143.2,112.3 141.7,114.7 143.2,117.2 146,117.2 	"/>
	<polygon id="Ipswich_3_" class="st2" points="155.9,114.7 154.5,112.3 151.6,112.3 150.2,114.7 151.6,117.2 154.5,117.2 	"/>
	<polygon id="Suffolk_Coastal_3_" class="st2" points="164.4,114.7 163,112.3 160.1,112.3 158.7,114.7 160.1,117.2 163,117.2 	"/>
	<polygon id="Luton_North_3_" class="st2" points="109.2,117.2 107.8,114.7 105,114.7 103.5,117.2 105,119.6 107.8,119.6 	"/>
	<polygon id="Hertsmere_3_" class="st2" points="117.7,117.2 116.3,114.7 113.4,114.7 112,117.2 113.4,119.6 116.3,119.6 	"/>
	<polygon id="Harlow_3_" class="st2" points="134.7,117.2 133.3,114.7 130.4,114.7 129,117.2 130.4,119.6 133.3,119.6 	"/>
	<polygon id="Cambridgeshire_South_East_3_" class="st2" points="143.2,117.2 141.7,114.7 138.9,114.7 137.5,117.2 138.9,119.6
		141.7,119.6 	"/>
	<polygon id="Suffolk_South_3_" class="st2" points="151.6,117.2 150.2,114.7 147.4,114.7 146,117.2 147.4,119.6 150.2,119.6 	"/>
	<polygon id="Suffolk_Central__Ipswich_North_3_" class="st2" points="160.1,117.2 158.7,114.7 155.9,114.7 154.5,117.2
		155.9,119.6 158.7,119.6 	"/>
	<polygon id="Bedfordshire_Mid_3_" class="st2" points="105,119.6 103.5,117.2 100.7,117.2 99.3,119.6 100.7,122.1 103.5,122.1 	"/>
	<polygon id="Watford_3_" class="st2" points="113.4,119.6 112,117.2 109.2,117.2 107.8,119.6 109.2,122.1 112,122.1 	"/>
	<polygon id="Epping_Forest_3_" class="st2" points="138.9,119.6 137.5,117.2 134.7,117.2 133.3,119.6 134.7,122.1 137.5,122.1 	"/>
	<polygon id="Braintree_3_" class="st2" points="147.4,119.6 146,117.2 143.2,117.2 141.7,119.6 143.2,122.1 146,122.1 	"/>
	<polygon id="Harwich__Essex_North_3_" class="st2" points="155.9,119.6 154.5,117.2 151.6,117.2 150.2,119.6 151.6,122.1
		154.5,122.1 	"/>
	<polygon id="Clacton_3_" class="st2" points="164.4,119.6 163,117.2 160.1,117.2 158.7,119.6 160.1,122.1 163,122.1 	"/>
	<polygon id="Hertfordshire_South_West_3_" class="st2" points="109.2,122.1 107.8,119.6 105,119.6 103.5,122.1 105,124.5
		107.8,124.5 	"/>
	<polygon id="Brentwood__Ongar_3_" class="st2" points="143.2,122.1 141.7,119.6 138.9,119.6 137.5,122.1 138.9,124.5 141.7,124.5
		"/>
	<polygon id="Colchester_3_" class="st2" points="151.6,122.1 150.2,119.6 147.4,119.6 146,122.1 147.4,124.5 150.2,124.5 	"/>
	<polygon id="Witham_3_" class="st2" points="160.1,122.1 158.7,119.6 155.9,119.6 154.5,122.1 155.9,124.5 158.7,124.5 	"/>
	<polygon id="Bedfordshire_South_West_3_" class="st2" points="105,124.5 103.5,122.1 100.7,122.1 99.3,124.5 100.7,127 103.5,127
		"/>
	<polygon id="Saffron_Walden_3_" class="st2" points="147.4,124.5 146,122.1 143.2,122.1 141.7,124.5 143.2,127 146,127 	"/>
	<polygon id="Rayleigh__Wickford_3_" class="st2" points="155.9,124.5 154.5,122.1 151.6,122.1 150.2,124.5 151.6,127 154.5,127
		"/>
	<polygon id="Maldon_3_" class="st2" points="164.4,124.5 163,122.1 160.1,122.1 158.7,124.5 160.1,127 163,127 	"/>
	<polygon id="Chelmsford_3_" class="st2" points="151.6,127 150.2,124.5 147.4,124.5 146,127 147.4,129.4 150.2,129.4 	"/>
	<polygon id="Southend_West_3_" class="st2" points="160.1,127 158.7,124.5 155.9,124.5 154.5,127 155.9,129.4 158.7,129.4 	"/>
	<polygon id="Basildon__Billericay_3_" class="st2" points="155.9,129.4 154.5,127 151.6,127 150.2,129.4 151.6,131.9 154.5,131.9
		"/>
	<polygon id="Rochford__Southend_East_3_" class="st2" points="164.4,129.4 163,127 160.1,127 158.7,129.4 160.1,131.9 163,131.9
		"/>
	<polygon id="Basildon_South__Thurrock_East_3_" class="st2" points="160.1,131.9 158.7,129.4 155.9,129.4 154.5,131.9 155.9,134.3
		158.7,134.3 	"/>
	<polygon id="Castle_Point_3_" class="st2" points="164.4,134.3 163,131.9 160.1,131.9 158.7,134.3 160.1,136.8 163,136.8 	"/>
	<polygon id="Thurrock_3_" class="st2" points="160.1,136.8 158.7,134.3 155.9,134.3 154.5,136.8 155.9,139.2 158.7,139.2 	"/>
	<polygon id="Chipping_Barnet_3_" class="st3" points="126.2,117.2 124.8,114.7 121.9,114.7 120.5,117.2 121.9,119.6 124.8,119.6
		"/>
	<polygon id="Hendon_3_" class="st3" points="121.9,119.6 120.5,117.2 117.7,117.2 116.3,119.6 117.7,122.1 120.5,122.1 	"/>
	<polygon id="Enfield_Southgate_3_" class="st3" points="130.4,119.6 129,117.2 126.2,117.2 124.8,119.6 126.2,122.1 129,122.1 	"/>
	<polygon id="Harrow_East_3_" class="st3" points="117.7,122.1 116.3,119.6 113.4,119.6 112,122.1 113.4,124.5 116.3,124.5 	"/>
	<polygon id="Finchley__Golders_Green_3_" class="st3" points="126.2,122.1 124.8,119.6 121.9,119.6 120.5,122.1 121.9,124.5
		124.8,124.5 	"/>
	<polygon id="Enfield_North_3_" class="st3" points="134.7,122.1 133.3,119.6 130.4,119.6 129,122.1 130.4,124.5 133.3,124.5 	"/>
	<polygon id="Harrow_West_3_" class="st3" points="113.4,124.5 112,122.1 109.2,122.1 107.8,124.5 109.2,127 112,127 	"/>
	<polygon id="Brent_Central_3_" class="st3" points="121.9,124.5 120.5,122.1 117.7,122.1 116.3,124.5 117.7,127 120.5,127 	"/>
	<polygon id="Tottenham_3_" class="st3" points="130.4,124.5 129,122.1 126.2,122.1 124.8,124.5 126.2,127 129,127 	"/>
	<polygon id="Edmonton_3_" class="st3" points="138.9,124.5 137.5,122.1 134.7,122.1 133.3,124.5 134.7,127 137.5,127 	"/>
	<polygon id="Ruislip_Northwood__Pinner_3_" class="st3" points="109.2,127 107.8,124.5 105,124.5 103.5,127 105,129.4 107.8,129.4
			"/>
	<polygon id="Brent_North_3_" class="st3" points="117.7,127 116.3,124.5 113.4,124.5 112,127 113.4,129.4 116.3,129.4 	"/>
	<polygon id="Islington_North_3_" class="st3" points="126.2,127 124.8,124.5 121.9,124.5 120.5,127 121.9,129.4 124.8,129.4 	"/>
	<polygon id="Walthamstow_3_" class="st3" points="134.7,127 133.3,124.5 130.4,124.5 129,127 130.4,129.4 133.3,129.4 	"/>
	<polygon id="Chingford__Woodford_Green_3_" class="st3" points="143.2,127 141.7,124.5 138.9,124.5 137.5,127 138.9,129.4
		141.7,129.4 	"/>
	<polygon id="Ealing_Central__Acton_3_" class="st3" points="113.4,129.4 112,127 109.2,127 107.8,129.4 109.2,131.9 112,131.9 	"/>
	<polygon id="Hornsey__Wood_Green_3_" class="st3" points="121.9,129.4 120.5,127 117.7,127 116.3,129.4 117.7,131.9 120.5,131.9
		"/>
	<polygon id="Hackney_North__Stoke_Newington_3_" class="st3" points="130.4,129.4 129,127 126.2,127 124.8,129.4 126.2,131.9
		129,131.9 	"/>
	<polygon id="Leyton__Wanstead_3_" class="st3" points="138.9,129.4 137.5,127 134.7,127 133.3,129.4 134.7,131.9 137.5,131.9 	"/>
	<polygon id="Ilford_North_3_" class="st3" points="147.4,129.4 146,127 143.2,127 141.7,129.4 143.2,131.9 146,131.9 	"/>
	<polygon id="Ealing_North_3_" class="st3" points="109.2,131.9 107.8,129.4 105,129.4 103.5,131.9 105,134.3 107.8,134.3 	"/>
	<polygon id="Hampstead__Kilburn_3_" class="st3" points="117.7,131.9 116.3,129.4 113.4,129.4 112,131.9 113.4,134.3 116.3,134.3
		"/>
	<polygon id="Holborn__St_Pancras_3_" class="st3" points="126.2,131.9 124.8,129.4 121.9,129.4 120.5,131.9 121.9,134.3
		124.8,134.3 	"/>
	<polygon id="Hackney_South__Shoreditch_3_" class="st3" points="134.7,131.9 133.3,129.4 130.4,129.4 129,131.9 130.4,134.3
		133.3,134.3 	"/>
	<polygon id="West_Ham_3_" class="st3" points="143.2,131.9 141.7,129.4 138.9,129.4 137.5,131.9 138.9,134.3 141.7,134.3 	"/>
	<polygon id="Ilford_South_3_" class="st3" points="151.6,131.9 150.2,129.4 147.4,129.4 146,131.9 147.4,134.3 150.2,134.3 	"/>
	<polygon id="Uxbridge__South_Ruislip_3_" class="st3" points="105,134.3 103.5,131.9 100.7,131.9 99.3,134.3 100.7,136.8
		103.5,136.8 	"/>
	<polygon id="Brentford__Isleworth_3_" class="st3" points="113.4,134.3 112,131.9 109.2,131.9 107.8,134.3 109.2,136.8 112,136.8
		"/>
	<polygon id="Westminster_North_3_" class="st3" points="121.9,134.3 120.5,131.9 117.7,131.9 116.3,134.3 117.7,136.8 120.5,136.8
			"/>
	<polygon id="Islington_South__Finsbury_3_" class="st3" points="130.4,134.3 129,131.9 126.2,131.9 124.8,134.3 126.2,136.8
		129,136.8 	"/>
	<polygon id="Bethnal_Green__Bow_3_" class="st3" points="138.9,134.3 137.5,131.9 134.7,131.9 133.3,134.3 134.7,136.8
		137.5,136.8 	"/>
	<polygon id="East_Ham_3_" class="st3" points="147.4,134.3 146,131.9 143.2,131.9 141.7,134.3 143.2,136.8 146,136.8 	"/>
	<polygon id="Romford_3_" class="st3" points="155.9,134.3 154.5,131.9 151.6,131.9 150.2,134.3 151.6,136.8 154.5,136.8 	"/>
	<polygon id="Ealing_Southall_3_" class="st3" points="109.2,136.8 107.8,134.3 105,134.3 103.5,136.8 105,139.2 107.8,139.2 	"/>
	<polygon id="Kensington_3_" class="st3" points="117.7,136.8 116.3,134.3 113.4,134.3 112,136.8 113.4,139.2 116.3,139.2 	"/>
	<polygon id="Cities_Of_London__Westminster_3_" class="st3" points="126.2,136.8 124.8,134.3 121.9,134.3 120.5,136.8 121.9,139.2
		124.8,139.2 	"/>
	<polygon id="Poplar__Limehouse_3_" class="st3" points="134.7,136.8 133.3,134.3 130.4,134.3 129,136.8 130.4,139.2 133.3,139.2
		"/>
	<polygon id="Greenwich__Woolwich_3_" class="st3" points="143.2,136.8 141.7,134.3 138.9,134.3 137.5,136.8 138.9,139.2
		141.7,139.2 	"/>
	<polygon id="Barking_3_" class="st3" points="151.6,136.8 150.2,134.3 147.4,134.3 146,136.8 147.4,139.2 150.2,139.2 	"/>
	<polygon id="Hayes__Harlington_3_" class="st3" points="105,139.2 103.5,136.8 100.7,136.8 99.3,139.2 100.7,141.7 103.5,141.7
		"/>
	<polygon id="Richmond_Park_3_" class="st3" points="113.4,139.2 112,136.8 109.2,136.8 107.8,139.2 109.2,141.7 112,141.7 	"/>
	<polygon id="Chelsea__Fulham_3_" class="st3" points="121.9,139.2 120.5,136.8 117.7,136.8 116.3,139.2 117.7,141.7 120.5,141.7
		"/>
	<polygon id="Bermondsey__Old_Southwark_3_" class="st3" points="130.4,139.2 129,136.8 126.2,136.8 124.8,139.2 126.2,141.7
		129,141.7 	"/>
	<polygon id="Lewisham_Deptford_3_" class="st3" points="138.9,139.2 137.5,136.8 134.7,136.8 133.3,139.2 134.7,141.7 137.5,141.7
			"/>
	<polygon id="Old_Bexley__Sidcup_3_" class="st3" points="147.4,139.2 146,136.8 143.2,136.8 141.7,139.2 143.2,141.7 146,141.7
		"/>
	<polygon id="Hornchurch__Upminster_3_" class="st3" points="155.9,139.2 154.5,136.8 151.6,136.8 150.2,139.2 151.6,141.7
		154.5,141.7 	"/>
	<polygon id="Feltham__Heston_3_" class="st3" points="109.2,141.7 107.8,139.2 105,139.2 103.5,141.7 105,144.1 107.8,144.1 	"/>
	<polygon id="Hammersmith_3_" class="st3" points="117.7,141.7 116.3,139.2 113.4,139.2 112,141.7 113.4,144.1 116.3,144.1 	"/>
	<polygon id="Vauxhall_3_" class="st3" points="126.2,141.7 124.8,139.2 121.9,139.2 120.5,141.7 121.9,144.1 124.8,144.1 	"/>
	<polygon id="Camberwell__Peckham_3_" class="st3" points="134.7,141.7 133.3,139.2 130.4,139.2 129,141.7 130.4,144.1 133.3,144.1
			"/>
	<polygon id="Eltham_3_" class="st3" points="143.2,141.7 141.7,139.2 138.9,139.2 137.5,141.7 138.9,144.1 141.7,144.1 	"/>
	<polygon id="Dagenham__Rainham_3_" class="st3" points="151.6,141.7 150.2,139.2 147.4,139.2 146,141.7 147.4,144.1 150.2,144.1
		"/>
	<polygon id="Putney_3_" class="st3" points="113.4,144.1 112,141.7 109.2,141.7 107.8,144.1 109.2,146.6 112,146.6 	"/>
	<polygon id="Battersea_3_" class="st3" points="121.9,144.1 120.5,141.7 117.7,141.7 116.3,144.1 117.7,146.6 120.5,146.6 	"/>
	<polygon id="Dulwich__West_Norwood_3_" class="st3" points="130.4,144.1 129,141.7 126.2,141.7 124.8,144.1 126.2,146.6 129,146.6
			"/>
	<polygon id="Bromley__Chislehurst_3_" class="st3" points="138.9,144.1 137.5,141.7 134.7,141.7 133.3,144.1 134.7,146.6
		137.5,146.6 	"/>
	<polygon id="Erith__Thamesmead_3_" class="st3" points="147.4,144.1 146,141.7 143.2,141.7 141.7,144.1 143.2,146.6 146,146.6 	"/>
	<polygon id="Twickenham_3_" class="st3" points="109.2,146.6 107.8,144.1 105,144.1 103.5,146.6 105,149 107.8,149 	"/>
	<polygon id="Wimbledon_3_" class="st3" points="117.7,146.6 116.3,144.1 113.4,144.1 112,146.6 113.4,149 116.3,149 	"/>
	<polygon id="Streatham_3_" class="st3" points="126.2,146.6 124.8,144.1 121.9,144.1 120.5,146.6 121.9,149 124.8,149 	"/>
	<polygon id="Lewisham_East_3_" class="st3" points="134.7,146.6 133.3,144.1 130.4,144.1 129,146.6 130.4,149 133.3,149 	"/>
	<polygon id="Bexleyheath__Crayford_3_" class="st3" points="143.2,146.6 141.7,144.1 138.9,144.1 137.5,146.6 138.9,149 141.7,149
			"/>
	<polygon id="Sutton__Cheam_3_" class="st3" points="113.4,149 112,146.6 109.2,146.6 107.8,149 109.2,151.5 112,151.5 	"/>
	<polygon id="Tooting_3_" class="st3" points="121.9,149 120.5,146.6 117.7,146.6 116.3,149 117.7,151.5 120.5,151.5 	"/>
	<polygon id="Lewisham_West__Penge_3_" class="st3" points="130.4,149 129,146.6 126.2,146.6 124.8,149 126.2,151.5 129,151.5 	"/>
	<polygon id="Orpington_3_" class="st3" points="138.9,149 137.5,146.6 134.7,146.6 133.3,149 134.7,151.5 137.5,151.5 	"/>
	<polygon id="Kingston__Surbiton_3_" class="st3" points="109.2,151.5 107.8,149 105,149 103.5,151.5 105,153.9 107.8,153.9 	"/>
	<polygon id="Mitcham__Morden_3_" class="st3" points="117.7,151.5 116.3,149 113.4,149 112,151.5 113.4,153.9 116.3,153.9 	"/>
	<polygon id="Croydon_North_3_" class="st3" points="126.2,151.5 124.8,149 121.9,149 120.5,151.5 121.9,153.9 124.8,153.9 	"/>
	<polygon id="Beckenham_3_" class="st3" points="134.7,151.5 133.3,149 130.4,149 129,151.5 130.4,153.9 133.3,153.9 	"/>
	<polygon id="Carshalton__Wallington_3_" class="st3" points="121.9,153.9 120.5,151.5 117.7,151.5 116.3,153.9 117.7,156.4
		120.5,156.4 	"/>
	<polygon id="Croydon_Central_3_" class="st3" points="130.4,153.9 129,151.5 126.2,151.5 124.8,153.9 126.2,156.4 129,156.4 	"/>
	<polygon id="Croydon_South_3_" class="st3" points="126.2,156.4 124.8,153.9 121.9,153.9 120.5,156.4 121.9,158.8 124.8,158.8 	"/>
	<polygon id="Milton_Keynes_North_3_" class="st3" points="100.7,122.1 99.3,119.6 96.5,119.6 95,122.1 96.5,124.5 99.3,124.5 	"/>
	<polygon id="Henley_3_" class="st3" points="96.5,124.5 95,122.1 92.2,122.1 90.8,124.5 92.2,127 95,127 	"/>
	<polygon id="Banbury_3_" class="st3" points="92.2,127 90.8,124.5 88,124.5 86.6,127 88,129.4 90.8,129.4 	"/>
	<polygon id="Milton_Keynes_South_3_" class="st3" points="100.7,127 99.3,124.5 96.5,124.5 95,127 96.5,129.4 99.3,129.4 	"/>
	<polygon id="Chesham__Amersham_3_" class="st3" points="96.5,129.4 95,127 92.2,127 90.8,129.4 92.2,131.9 95,131.9 	"/>
	<polygon id="Buckingham_3_" class="st3" points="105,129.4 103.5,127 100.7,127 99.3,129.4 100.7,131.9 103.5,131.9 	"/>
	<polygon id="Witney_3_" class="st3" points="92.2,131.9 90.8,129.4 88,129.4 86.6,131.9 88,134.3 90.8,134.3 	"/>
	<polygon id="Beaconsfield_3_" class="st3" points="100.7,131.9 99.3,129.4 96.5,129.4 95,131.9 96.5,134.3 99.3,134.3 	"/>
	<polygon id="Wycombe_3_" class="st3" points="96.5,134.3 95,131.9 92.2,131.9 90.8,134.3 92.2,136.8 95,136.8 	"/>
	<polygon id="Aylesbury_3_" class="st3" points="92.2,136.8 90.8,134.3 88,134.3 86.6,136.8 88,139.2 90.8,139.2 	"/>
	<polygon id="Slough_3_" class="st3" points="100.7,136.8 99.3,134.3 96.5,134.3 95,136.8 96.5,139.2 99.3,139.2 	"/>
	<polygon id="Oxford_East_3_" class="st3" points="96.5,139.2 95,136.8 92.2,136.8 90.8,139.2 92.2,141.7 95,141.7 	"/>
	<polygon id="Oxford_West__Abingdon_3_" class="st3" points="92.2,141.7 90.8,139.2 88,139.2 86.6,141.7 88,144.1 90.8,144.1 	"/>
	<polygon id="Runnymede__Weybridge_3_" class="st3" points="100.7,141.7 99.3,139.2 96.5,139.2 95,141.7 96.5,144.1 99.3,144.1 	"/>
	<polygon id="Rochester__Strood_3_" class="st3" points="160.1,141.7 158.7,139.2 155.9,139.2 154.5,141.7 155.9,144.1 158.7,144.1
			"/>
	<polygon id="Wantage_3_" class="st3" points="88,144.1 86.6,141.7 83.7,141.7 82.3,144.1 83.7,146.6 86.6,146.6 	"/>
	<polygon id="Maidenhead_3_" class="st3" points="96.5,144.1 95,141.7 92.2,141.7 90.8,144.1 92.2,146.6 95,146.6 	"/>
	<polygon id="Windsor_3_" class="st3" points="105,144.1 103.5,141.7 100.7,141.7 99.3,144.1 100.7,146.6 103.5,146.6 	"/>
	<polygon id="Gravesham_3_" class="st3" points="155.9,144.1 154.5,141.7 151.6,141.7 150.2,144.1 151.6,146.6 154.5,146.6 	"/>
	<polygon id="Sittingbourne__Sheppey_3_" class="st3" points="164.4,144.1 163,141.7 160.1,141.7 158.7,144.1 160.1,146.6
		163,146.6 	"/>
	<polygon id="Reading_East_3_" class="st3" points="92.2,146.6 90.8,144.1 88,144.1 86.6,146.6 88,149 90.8,149 	"/>
	<polygon id="Spelthorne_3_" class="st3" points="100.7,146.6 99.3,144.1 96.5,144.1 95,146.6 96.5,149 99.3,149 	"/>
	<polygon id="Dartford_3_" class="st3" points="151.6,146.6 150.2,144.1 147.4,144.1 146,146.6 147.4,149 150.2,149 	"/>
	<polygon id="Chatham__Aylesford_3_" class="st3" points="160.1,146.6 158.7,144.1 155.9,144.1 154.5,146.6 155.9,149 158.7,149
		"/>
	<polygon id="Canterbury_3_" class="st3" points="168.6,146.6 167.2,144.1 164.4,144.1 163,146.6 164.4,149 167.2,149 	"/>
	<polygon id="Newbury_3_" class="st3" points="88,149 86.6,146.6 83.7,146.6 82.3,149 83.7,151.5 86.6,151.5 	"/>
	<polygon id="Bracknell_3_" class="st3" points="96.5,149 95,146.6 92.2,146.6 90.8,149 92.2,151.5 95,151.5 	"/>
	<polygon id="Esher__Walton_3_" class="st3" points="105,149 103.5,146.6 100.7,146.6 99.3,149 100.7,151.5 103.5,151.5 	"/>
	<polygon id="Tonbridge__Malling_3_" class="st3" points="147.4,149 146,146.6 143.2,146.6 141.7,149 143.2,151.5 146,151.5 	"/>
	<polygon id="Maidstone__The_Weald_3_" class="st3" points="155.9,149 154.5,146.6 151.6,146.6 150.2,149 151.6,151.5 154.5,151.5
		"/>
	<polygon id="Gillingham__Rainham_3_" class="st3" points="164.4,149 163,146.6 160.1,146.6 158.7,149 160.1,151.5 163,151.5 	"/>
	<polygon id="Thanet_North_3_" class="st3" points="172.9,149 171.5,146.6 168.6,146.6 167.2,149 168.6,151.5 171.5,151.5 	"/>
	<polygon id="Reading_West_3_" class="st3" points="92.2,151.5 90.8,149 88,149 86.6,151.5 88,153.9 90.8,153.9 	"/>
	<polygon id="Surrey_Heath_3_" class="st3" points="100.7,151.5 99.3,149 96.5,149 95,151.5 96.5,153.9 99.3,153.9 	"/>
	<polygon id="Sevenoaks_3_" class="st3" points="143.2,151.5 141.7,149 138.9,149 137.5,151.5 138.9,153.9 141.7,153.9 	"/>
	<polygon id="Tunbridge_Wells_3_" class="st3" points="151.6,151.5 150.2,149 147.4,149 146,151.5 147.4,153.9 150.2,153.9 	"/>
	<polygon id="Faversham__Mid_Kent_3_" class="st3" points="160.1,151.5 158.7,149 155.9,149 154.5,151.5 155.9,153.9 158.7,153.9
		"/>
	<polygon id="Thanet_South_3_" class="st3" points="168.6,151.5 167.2,149 164.4,149 163,151.5 164.4,153.9 167.2,153.9 	"/>
	<polygon id="Hampshire_North_West_3_" class="st3" points="88,153.9 86.6,151.5 83.7,151.5 82.3,153.9 83.7,156.4 86.6,156.4 	"/>
	<polygon id="Hampshire_North_East_3_" class="st3" points="96.5,153.9 95,151.5 92.2,151.5 90.8,153.9 92.2,156.4 95,156.4 	"/>
	<polygon id="Mole_Valley_3_" class="st3" points="105,153.9 103.5,151.5 100.7,151.5 99.3,153.9 100.7,156.4 103.5,156.4 	"/>
	<polygon id="Epsom__Ewell_3_" class="st3" points="113.4,153.9 112,151.5 109.2,151.5 107.8,153.9 109.2,156.4 112,156.4 	"/>
	<polygon id="Surrey_East_3_" class="st3" points="138.9,153.9 137.5,151.5 134.7,151.5 133.3,153.9 134.7,156.4 137.5,156.4 	"/>
	<polygon id="Wealden_3_" class="st3" points="147.4,153.9 146,151.5 143.2,151.5 141.7,153.9 143.2,156.4 146,156.4 	"/>
	<polygon id="Ashford_3_" class="st3" points="155.9,153.9 154.5,151.5 151.6,151.5 150.2,153.9 151.6,156.4 154.5,156.4 	"/>
	<polygon id="Dover_3_" class="st3" points="164.4,153.9 163,151.5 160.1,151.5 158.7,153.9 160.1,156.4 163,156.4 	"/>
	<polygon id="Wokingham_3_" class="st3" points="92.2,156.4 90.8,153.9 88,153.9 86.6,156.4 88,158.8 90.8,158.8 	"/>
	<polygon id="Woking_3_" class="st3" points="100.7,156.4 99.3,153.9 96.5,153.9 95,156.4 96.5,158.8 99.3,158.8 	"/>
	<polygon id="Guildford_3_" class="st3" points="109.2,156.4 107.8,153.9 105,153.9 103.5,156.4 105,158.8 107.8,158.8 	"/>
	<polygon id="Reigate_3_" class="st3" points="117.7,156.4 116.3,153.9 113.4,153.9 112,156.4 113.4,158.8 116.3,158.8 	"/>
	<polygon id="Horsham_3_" class="st3" points="134.7,156.4 133.3,153.9 130.4,153.9 129,156.4 130.4,158.8 133.3,158.8 	"/>
	<polygon id="Sussex_Mid_3_" class="st3" points="143.2,156.4 141.7,153.9 138.9,153.9 137.5,156.4 138.9,158.8 141.7,158.8 	"/>
	<polygon id="Bexhill__Battle_3_" class="st3" points="151.6,156.4 150.2,153.9 147.4,153.9 146,156.4 147.4,158.8 150.2,158.8 	"/>
	<polygon id="Folkestone__Hythe_3_" class="st3" points="160.1,156.4 158.7,153.9 155.9,153.9 154.5,156.4 155.9,158.8 158.7,158.8
			"/>
	<polygon id="Romsey__Southampton_North_3_" class="st3" points="88,158.8 86.6,156.4 83.7,156.4 82.3,158.8 83.7,161.3 86.6,161.3
			"/>
	<polygon id="Aldershot_3_" class="st3" points="96.5,158.8 95,156.4 92.2,156.4 90.8,158.8 92.2,161.3 95,161.3 	"/>
	<polygon id="Surrey_South_West_3_" class="st3" points="105,158.8 103.5,156.4 100.7,156.4 99.3,158.8 100.7,161.3 103.5,161.3
		"/>
	<polygon id="Hampshire_East_3_" class="st3" points="113.4,158.8 112,156.4 109.2,156.4 107.8,158.8 109.2,161.3 112,161.3 	"/>
	<polygon id="Crawley_3_" class="st3" points="121.9,158.8 120.5,156.4 117.7,156.4 116.3,158.8 117.7,161.3 120.5,161.3 	"/>
	<polygon id="Arundel__South_Downs_3_" class="st3" points="130.4,158.8 129,156.4 126.2,156.4 124.8,158.8 126.2,161.3 129,161.3
		"/>
	<polygon id="Brighton_Pavilion_3_" class="st3" points="138.9,158.8 137.5,156.4 134.7,156.4 133.3,158.8 134.7,161.3 137.5,161.3
			"/>
	<polygon id="Lewes_3_" class="st3" points="147.4,158.8 146,156.4 143.2,156.4 141.7,158.8 143.2,161.3 146,161.3 	"/>
	<polygon id="Hastings__Rye_3_" class="st3" points="155.9,158.8 154.5,156.4 151.6,156.4 150.2,158.8 151.6,161.3 154.5,161.3 	"/>
	<polygon id="Basingstoke_3_" class="st3" points="92.2,161.3 90.8,158.8 88,158.8 86.6,161.3 88,163.7 90.8,163.7 	"/>
	<polygon id="Winchester_3_" class="st3" points="100.7,161.3 99.3,158.8 96.5,158.8 95,161.3 96.5,163.7 99.3,163.7 	"/>
	<polygon id="Portsmouth_North_3_" class="st3" points="109.2,161.3 107.8,158.8 105,158.8 103.5,161.3 105,163.7 107.8,163.7 	"/>
	<polygon id="Havant_3_" class="st3" points="117.7,161.3 116.3,158.8 113.4,158.8 112,161.3 113.4,163.7 116.3,163.7 	"/>
	<polygon id="Bognor_Regis__Littlehampton_3_" class="st3" points="126.2,161.3 124.8,158.8 121.9,158.8 120.5,161.3 121.9,163.7
		124.8,163.7 	"/>
	<polygon id="Worthing_East__Shoreham_3_" class="st3" points="134.7,161.3 133.3,158.8 130.4,158.8 129,161.3 130.4,163.7
		133.3,163.7 	"/>
	<polygon id="Brighton_Kemptown_3_" class="st3" points="143.2,161.3 141.7,158.8 138.9,158.8 137.5,161.3 138.9,163.7 141.7,163.7
			"/>
	<polygon id="Eastbourne_3_" class="st3" points="151.6,161.3 150.2,158.8 147.4,158.8 146,161.3 147.4,163.7 150.2,163.7 	"/>
	<polygon id="New_Forest_East_3_" class="st3" points="88,163.7 86.6,161.3 83.7,161.3 82.3,163.7 83.7,166.2 86.6,166.2 	"/>
	<polygon id="Southampton_Itchen_3_" class="st3" points="96.5,163.7 95,161.3 92.2,161.3 90.8,163.7 92.2,166.2 95,166.2 	"/>
	<polygon id="Meon_Valley_3_" class="st3" points="105,163.7 103.5,161.3 100.7,161.3 99.3,163.7 100.7,166.2 103.5,166.2 	"/>
	<polygon id="Portsmouth_South_3_" class="st3" points="113.4,163.7 112,161.3 109.2,161.3 107.8,163.7 109.2,166.2 112,166.2 	"/>
	<polygon id="Chichester_3_" class="st3" points="121.9,163.7 120.5,161.3 117.7,161.3 116.3,163.7 117.7,166.2 120.5,166.2 	"/>
	<polygon id="Worthing_West_3_" class="st3" points="130.4,163.7 129,161.3 126.2,161.3 124.8,163.7 126.2,166.2 129,166.2 	"/>
	<polygon id="Hove_3_" class="st3" points="138.9,163.7 137.5,161.3 134.7,161.3 133.3,163.7 134.7,166.2 137.5,166.2 	"/>
	<polygon id="Southampton_Test_3_" class="st3" points="92.2,166.2 90.8,163.7 88,163.7 86.6,166.2 88,168.6 90.8,168.6 	"/>
	<polygon id="Eastleigh_3_" class="st3" points="100.7,166.2 99.3,163.7 96.5,163.7 95,166.2 96.5,168.6 99.3,168.6 	"/>
	<polygon id="Gosport_3_" class="st3" points="109.2,166.2 107.8,163.7 105,163.7 103.5,166.2 105,168.6 107.8,168.6 	"/>
	<polygon id="New_Forest_West_3_" class="st3" points="88,168.6 86.6,166.2 83.7,166.2 82.3,168.6 83.7,171.1 86.6,171.1 	"/>
	<polygon id="Fareham_3_" class="st3" points="105,168.6 103.5,166.2 100.7,166.2 99.3,168.6 100.7,171.1 103.5,171.1 	"/>
	<polygon id="Isle_Of_Wight_3_" class="st3" points="96.5,173.5 95,171.1 92.2,171.1 90.8,173.5 92.2,176 95,176 	"/>
	<polygon id="Cheltenham_3_" class="st2" points="88,129.4 86.6,127 83.7,127 82.3,129.4 83.7,131.9 86.6,131.9 	"/>
	<polygon id="Tewkesbury_3_" class="st2" points="83.7,131.9 82.3,129.4 79.5,129.4 78.1,131.9 79.5,134.3 82.3,134.3 	"/>
	<polygon id="Forest_Of_Dean_3_" class="st2" points="79.5,134.3 78.1,131.9 75.2,131.9 73.8,134.3 75.2,136.8 78.1,136.8 	"/>
	<polygon id="Cotswolds_The_3_" class="st2" points="88,134.3 86.6,131.9 83.7,131.9 82.3,134.3 83.7,136.8 86.6,136.8 	"/>
	<polygon id="Gloucester_3_" class="st2" points="83.7,136.8 82.3,134.3 79.5,134.3 78.1,136.8 79.5,139.2 82.3,139.2 	"/>
	<polygon id="Thornbury__Yate_3_" class="st2" points="79.5,139.2 78.1,136.8 75.2,136.8 73.8,139.2 75.2,141.7 78.1,141.7 	"/>
	<polygon id="Swindon_North_3_" class="st2" points="88,139.2 86.6,136.8 83.7,136.8 82.3,139.2 83.7,141.7 86.6,141.7 	"/>
	<polygon id="Filton__Bradley_Stoke_3_" class="st2" points="75.2,141.7 73.8,139.2 71,139.2 69.6,141.7 71,144.1 73.8,144.1 	"/>
	<polygon id="Stroud_3_" class="st2" points="83.7,141.7 82.3,139.2 79.5,139.2 78.1,141.7 79.5,144.1 82.3,144.1 	"/>
	<polygon id="Kingswood_3_" class="st2" points="79.5,144.1 78.1,141.7 75.2,141.7 73.8,144.1 75.2,146.6 78.1,146.6 	"/>
	<polygon id="Bristol_East_3_" class="st2" points="75.2,146.6 73.8,144.1 71,144.1 69.6,146.6 71,149 73.8,149 	"/>
	<polygon id="Swindon_South_3_" class="st2" points="83.7,146.6 82.3,144.1 79.5,144.1 78.1,146.6 79.5,149 82.3,149 	"/>
	<polygon id="Bristol_North_West_3_" class="st2" points="71,149 69.6,146.6 66.7,146.6 65.3,149 66.7,151.5 69.6,151.5 	"/>
	<polygon id="Bath_3_" class="st2" points="79.5,149 78.1,146.6 75.2,146.6 73.8,149 75.2,151.5 78.1,151.5 	"/>
	<polygon id="Somerset_North_3_" class="st2" points="66.7,151.5 65.3,149 62.5,149 61.1,151.5 62.5,153.9 65.3,153.9 	"/>
	<polygon id="Bristol_West_3_" class="st2" points="75.2,151.5 73.8,149 71,149 69.6,151.5 71,153.9 73.8,153.9 	"/>
	<polygon id="Wiltshire_North_3_" class="st2" points="83.7,151.5 82.3,149 79.5,149 78.1,151.5 79.5,153.9 82.3,153.9 	"/>
	<polygon id="Bristol_South_3_" class="st2" points="71,153.9 69.6,151.5 66.7,151.5 65.3,153.9 66.7,156.4 69.6,156.4 	"/>
	<polygon id="Chippenham_3_" class="st2" points="79.5,153.9 78.1,151.5 75.2,151.5 73.8,153.9 75.2,156.4 78.1,156.4 	"/>
	<polygon id="Weston-Super-Mare_3_" class="st2" points="66.7,156.4 65.3,153.9 62.5,153.9 61.1,156.4 62.5,158.8 65.3,158.8 	"/>
	<polygon id="Somerset_North_East_3_" class="st2" points="75.2,156.4 73.8,153.9 71,153.9 69.6,156.4 71,158.8 73.8,158.8 	"/>
	<polygon id="Devizes_3_" class="st2" points="83.7,156.4 82.3,153.9 79.5,153.9 78.1,156.4 79.5,158.8 82.3,158.8 	"/>
	<polygon id="Wells_3_" class="st2" points="62.5,158.8 61.1,156.4 58.3,156.4 56.8,158.8 58.3,161.3 61.1,161.3 	"/>
	<polygon id="Wiltshire_South_West_3_" class="st2" points="71,158.8 69.6,156.4 66.7,156.4 65.3,158.8 66.7,161.3 69.6,161.3 	"/>
	<polygon id="Bournemouth_West_3_" class="st2" points="79.5,158.8 78.1,156.4 75.2,156.4 73.8,158.8 75.2,161.3 78.1,161.3 	"/>
	<polygon id="Bridgwater__West_Somerset_3_" class="st2" points="58.3,161.3 56.8,158.8 54,158.8 52.6,161.3 54,163.7 56.8,163.7
		"/>
	<polygon id="Somerton__Frome_3_" class="st2" points="66.7,161.3 65.3,158.8 62.5,158.8 61.1,161.3 62.5,163.7 65.3,163.7 	"/>
	<polygon id="Dorset_North_3_" class="st2" points="75.2,161.3 73.8,158.8 71,158.8 69.6,161.3 71,163.7 73.8,163.7 	"/>
	<polygon id="Salisbury_3_" class="st2" points="83.7,161.3 82.3,158.8 79.5,158.8 78.1,161.3 79.5,163.7 82.3,163.7 	"/>
	<polygon id="Devon_North_3_" class="st2" points="54,163.7 52.6,161.3 49.8,161.3 48.4,163.7 49.8,166.2 52.6,166.2 	"/>
	<polygon id="Yeovil_3_" class="st2" points="62.5,163.7 61.1,161.3 58.3,161.3 56.8,163.7 58.3,166.2 61.1,166.2 	"/>
	<polygon id="Dorset_Mid__Poole_North_3_" class="st2" points="71,163.7 69.6,161.3 66.7,161.3 65.3,163.7 66.7,166.2 69.6,166.2
		"/>
	<polygon id="Bournemouth_East_3_" class="st2" points="79.5,163.7 78.1,161.3 75.2,161.3 73.8,163.7 75.2,166.2 78.1,166.2 	"/>
	<polygon id="Taunton_Deane_3_" class="st2" points="58.3,166.2 56.8,163.7 54,163.7 52.6,166.2 54,168.6 56.8,168.6 	"/>
	<polygon id="Tiverton__Honiton_3_" class="st2" points="66.7,166.2 65.3,163.7 62.5,163.7 61.1,166.2 62.5,168.6 65.3,168.6 	"/>
	<polygon id="Poole_3_" class="st2" points="75.2,166.2 73.8,163.7 71,163.7 69.6,166.2 71,168.6 73.8,168.6 	"/>
	<polygon id="Christchurch_3_" class="st2" points="83.7,166.2 82.3,163.7 79.5,163.7 78.1,166.2 79.5,168.6 82.3,168.6 	"/>
	<polygon id="Devon_Central_3_" class="st2" points="54,168.6 52.6,166.2 49.8,166.2 48.4,168.6 49.8,171.1 52.6,171.1 	"/>
	<polygon id="Devon_East_3_" class="st2" points="62.5,168.6 61.1,166.2 58.3,166.2 56.8,168.6 58.3,171.1 61.1,171.1 	"/>
	<polygon id="Dorset_West_3_" class="st2" points="71,168.6 69.6,166.2 66.7,166.2 65.3,168.6 66.7,171.1 69.6,171.1 	"/>
	<polygon id="Devon_West__Torridge_3_" class="st2" points="49.8,171.1 48.4,168.6 45.5,168.6 44.1,171.1 45.5,173.5 48.4,173.5
		"/>
	<polygon id="Exeter_3_" class="st2" points="58.3,171.1 56.8,168.6 54,168.6 52.6,171.1 54,173.5 56.8,173.5 	"/>
	<polygon id="Dorset_South_3_" class="st2" points="75.2,171.1 73.8,168.6 71,168.6 69.6,171.1 71,173.5 73.8,173.5 	"/>
	<polygon id="Cornwall_North_3_" class="st2" points="45.5,173.5 44.1,171.1 41.3,171.1 39.9,173.5 41.3,176 44.1,176 	"/>
	<polygon id="Plymouth_Moor_View_3_" class="st2" points="54,173.5 52.6,171.1 49.8,171.1 48.4,173.5 49.8,176 52.6,176 	"/>
	<polygon id="Newton_Abbot_3_" class="st2" points="62.5,173.5 61.1,171.1 58.3,171.1 56.8,173.5 58.3,176 61.1,176 	"/>
	<polygon id="St_Austell__Newquay_3_" class="st2" points="41.3,176 39.9,173.5 37,173.5 35.6,176 37,178.4 39.9,178.4 	"/>
	<polygon id="Plymouth_Sutton__Devonport_3_" class="st2" points="49.8,176 48.4,173.5 45.5,173.5 44.1,176 45.5,178.4 48.4,178.4
		"/>
	<polygon id="Torbay_3_" class="st2" points="58.3,176 56.8,173.5 54,173.5 52.6,176 54,178.4 56.8,178.4 	"/>
	<polygon id="Camborne__Redruth_3_" class="st2" points="37,178.4 35.6,176 32.8,176 31.4,178.4 32.8,180.9 35.6,180.9 	"/>
	<polygon id="Cornwall_South_East_3_" class="st2" points="45.5,178.4 44.1,176 41.3,176 39.9,178.4 41.3,180.9 44.1,180.9 	"/>
	<polygon id="Devon_South_West_3_" class="st2" points="54,178.4 52.6,176 49.8,176 48.4,178.4 49.8,180.9 52.6,180.9 	"/>
	<polygon id="St_Ives_3_" class="st2" points="32.8,180.9 31.4,178.4 28.5,178.4 27.1,180.9 28.5,183.3 31.4,183.3 	"/>
	<polygon id="Truro__Falmouth_3_" class="st2" points="41.3,180.9 39.9,178.4 37,178.4 35.6,180.9 37,183.3 39.9,183.3 	"/>
	<polygon id="Totnes_3_" class="st2" points="58.3,180.9 56.8,178.4 54,178.4 52.6,180.9 54,183.3 56.8,183.3 	"/>
	<path id="scotland-b_3_" class="st4" d="M83.7,28.9h2.8l1.4-2.5h2.8l1.4-2.5l-1.4-2.5l1.4-2.5"/>
	<path id="wales-b_3_" class="st4" d="M71,139.2h2.8l1.4-2.5l-1.4-2.5l1.4-2.5h2.8l1.4-2.5l-1.4-2.5l1.4-2.5l-1.4-2.5l1.4-2.5
		l-1.4-2.5h-2.8l-1.4-2.5l1.4-2.5l-1.4-2.5l1.4-2.5l-1.4-2.5l1.4-2.5l-1.4-2.5l1.4-2.5l-1.4-2.5l1.4-2.5l-1.4-2.5l1.4-2.5l-1.4-2.5
		H71l-1.4-2.5h-2.8l-1.4,2.5"/>
	<path id="london-b_3_" class="st4" d="M124.8,114.7l1.4,2.5h2.8l1.4,2.5h2.8l1.4,2.5h2.8l1.4,2.5h2.8l1.4,2.5h2.8l1.4,2.5h2.8
		l1.4,2.5h2.8l1.4,2.5l-1.4,2.5l1.4,2.5l-1.4,2.5h-2.8l-1.4,2.5h-2.8l-1.4,2.5h-2.8l-1.4,2.5h-2.8l-1.4,2.5h-2.8l-1.4,2.5h-2.8
		l-1.4,2.5h-2.8l-1.4,2.5h-2.8l-1.4-2.5h-2.8l-1.4-2.5h-2.8l-1.4-2.5h-2.8l-1.4,2.5H105l-1.4-2.5l1.4-2.5l-1.4-2.5l1.4-2.5l-1.4-2.5
		h-2.8l-1.4-2.5l1.4-2.5l-1.4-2.5l1.4-2.5h2.8l1.4-2.5l-1.4-2.5l1.4-2.5h2.8l1.4-2.5h2.8l1.4-2.5h2.8l1.4-2.5h2.8l1.4-2.5H124.8"/>
	<path id="south-west-b_3_" class="st4" d="M82.3,168.6l1.4-2.5l-1.4-2.5l1.4-2.5l-1.4-2.5l1.4-2.5l-1.4-2.5l1.4-2.5l-1.4-2.5
		l1.4-2.5l-1.4-2.5l1.4-2.5h2.8l1.4-2.5l-1.4-2.5l1.4-2.5l-1.4-2.5l1.4-2.5l-1.4-2.5h-2.8l-1.4,2.5h-2.8l-1.4,2.5h-2.8l-1.4,2.5
		l1.4,2.5l-1.4,2.5H71"/>
	<path id="south-east-b_3_" class="st4" d="M82.3,168.6l1.4-2.5l-1.4-2.5l1.4-2.5l-1.4-2.5l1.4-2.5l-1.4-2.5l1.4-2.5l-1.4-2.5
		l1.4-2.5l-1.4-2.5l1.4-2.5h2.8l1.4-2.5l-1.4-2.5l1.4-2.5l-1.4-2.5l1.4-2.5l-1.4-2.5l1.4-2.5h2.8l1.4-2.5H95l1.4-2.5h2.8l1.4,2.5
		l-1.4,2.5l1.4,2.5h2.8l1.4,2.5l-1.4,2.5h-2.8l-1.4,2.5l1.4,2.5l-1.4,2.5l1.4,2.5h2.8l1.4,2.5l-1.4,2.5l1.4,2.5l-1.4,2.5l1.4,2.5
		h2.8l1.4-2.5h2.8l1.4,2.5h2.8l1.4,2.5h2.8l1.4,2.5h2.8l1.4-2.5h2.8l1.4-2.5h2.8l1.4-2.5h2.8l1.4-2.5h2.8l1.4-2.5h2.8l1.4-2.5h2.8
		l1.4-2.5h2.8l1.4-2.5h2.8"/>
	<path id="east-england-b_3_" class="st4" d="M138.9,100l-1.4,2.5h-2.8l-1.4,2.5h-2.8l-1.4-2.5h-2.8l-1.4-2.5h-2.8l-1.4,2.5h-2.8
		l-1.4,2.5h-2.8l-1.4,2.5h-2.8l-1.4,2.5H105l-1.4,2.5l1.4,2.5l-1.4,2.5h-2.8l-1.4,2.5l1.4,2.5l-1.4,2.5l1.4,2.5h2.8l1.4-2.5h2.8
		l1.4-2.5h2.8l1.4-2.5h2.8l1.4-2.5h2.8l1.4-2.5h2.8l1.4,2.5h2.8l1.4,2.5h2.8l1.4,2.5h2.8l1.4,2.5h2.8l1.4,2.5h2.8l1.4,2.5h2.8
		l1.4,2.5h2.8l1.4,2.5l-1.4,2.5l1.4,2.5h2.8"/>
	<path id="west-midlands-b_3_" class="st4" d="M73.8,85.3l1.4-2.5h2.8l1.4-2.5h2.8l1.4-2.5h2.8l1.4-2.5h2.8l1.4,2.5H95l1.4-2.5h2.8
		l1.4,2.5h2.8l1.4,2.5l-1.4,2.5l1.4,2.5l-1.4,2.5l1.4,2.5l-1.4,2.5l1.4,2.5l-1.4,2.5l1.4,2.5l-1.4,2.5h-2.8l-1.4,2.5l1.4,2.5
		l-1.4,2.5l1.4,2.5l-1.4,2.5h-2.8l-1.4,2.5l1.4,2.5l-1.4,2.5h-2.8l-1.4,2.5H88l-1.4,2.5h-2.8l-1.4,2.5h-2.8l-1.4-2.5l1.4-2.5
		l-1.4-2.5l1.4-2.5l-1.4-2.5h-2.8l-1.4-2.5l1.4-2.5l-1.4-2.5l1.4-2.5l-1.4-2.5l1.4-2.5l-1.4-2.5l1.4-2.5l-1.4-2.5l1.4-2.5l-1.4-2.5
		l1.4-2.5L73.8,85.3"/>
	<path id="east-midlands-b_3_" class="st4" d="M137.5,82.8h-2.8l-1.4-2.5h-2.8l-1.4-2.5h-2.8l-1.4-2.5h-2.8l-1.4,2.5h-2.8l-1.4,2.5
		h-2.8l-1.4-2.5h-2.8l-1.4-2.5H105l-1.4,2.5l1.4,2.5l-1.4,2.5l1.4,2.5l-1.4,2.5l1.4,2.5l-1.4,2.5l1.4,2.5l-1.4,2.5l1.4,2.5l-1.4,2.5
		h-2.8l-1.4,2.5l1.4,2.5l-1.4,2.5l1.4,2.5l-1.4,2.5h-2.8l-1.4,2.5l1.4,2.5h2.8l1.4-2.5h2.8l1.4-2.5l-1.4-2.5l1.4-2.5h2.8l1.4-2.5
		h2.8l1.4-2.5h2.8l1.4-2.5h2.8l1.4-2.5h2.8l1.4,2.5h2.8l1.4,2.5h2.8l1.4-2.5h2.8l1.4-2.5"/>
	<path id="north-west-b_3_" class="st4" d="M65.3,85.3l1.4-2.5h2.8l1.4,2.5h2.8l1.4-2.5h2.8l1.4-2.5h2.8l1.4-2.5h2.8l1.4-2.5h2.8
		l1.4,2.5H95l1.4-2.5h2.8l1.4,2.5h2.8l1.4-2.5l-1.4-2.5l1.4-2.5l-1.4-2.5l1.4-2.5l-1.4-2.5l1.4-2.5l-1.4-2.5l1.4-2.5l-1.4-2.5
		L105,51l-1.4-2.5l1.4-2.5l-1.4-2.5l1.4-2.5l-1.4-2.5h-2.8l-1.4-2.5h-2.8L95,33.8h-2.8l-1.4-2.5l1.4-2.5l-1.4-2.5H88l-1.4,2.5h-2.8"
		/>
	<path id="north-east-b_3_" class="st4" d="M92.2,19.1l-1.4,2.5l1.4,2.5l-1.4,2.5l1.4,2.5l-1.4,2.5l1.4,2.5H95l1.4,2.5h2.8l1.4,2.5
		h2.8l1.4,2.5h2.8l1.4-2.5h2.8l1.4,2.5h2.8l1.4,2.5h2.8l1.4-2.5h2.8"/>
	<path id="yorkshire-humber-b_3_" class="st4" d="M124.8,41.2h-2.8l-1.4,2.5h-2.8l-1.4-2.5h-2.8l-1.4-2.5h-2.8l-1.4,2.5H105
		l-1.4,2.5l1.4,2.5l-1.4,2.5L105,51l-1.4,2.5l1.4,2.5l-1.4,2.5l1.4,2.5l-1.4,2.5l1.4,2.5l-1.4,2.5l1.4,2.5l-1.4,2.5l1.4,2.5h2.8
		l1.4,2.5h2.8l1.4,2.5h2.8l1.4-2.5h2.8l1.4-2.5h2.8l1.4,2.5h2.8l1.4,2.5h2.8l1.4,2.5h2.8"/>
</g>
</svg>
