<?xml version="1.0" encoding="utf-8"?>
<!-- Generator: Adobe Illustrator 19.2.1, SVG Export Plug-In . SVG Version: 6.00 Build 0)  -->
<svg version="1.1" id="Layer_1" xmlns="http://www.w3.org/2000/svg" xmlns:xlink="http://www.w3.org/1999/xlink" x="0px" y="0px"
	 viewBox="0 0 200 200" style="enable-background:new 0 0 200 200;" xml:space="preserve">
<style type="text/css">
	.st0{opacity:0.25;fill:none;}
	.st1{fill:#0054A6;fill-opacity:0.5;}
	.st2{fill:#0054A6;}
</style>
<g>
	<g>
		<rect class="st0" width="200" height="200"/>
	</g>
	<path class="st1" d="M38,40.5H18.1c-0.8,0-1.4-0.6-1.4-1.4V18.9c0-0.8,0.6-1.4,1.4-1.4H38c0.8,0,1.4,0.6,1.4,1.4v20.2
		C39.4,39.9,38.8,40.5,38,40.5z"/>
	<path class="st1" d="M66.8,40.5H46.9c-0.8,0-1.4-0.6-1.4-1.4V18.9c0-0.8,0.6-1.4,1.4-1.4h19.9c0.8,0,1.4,0.6,1.4,1.4v20.2
		C68.2,39.9,67.6,40.5,66.8,40.5z"/>
	<path class="st1" d="M95.6,40.5H75.6c-0.8,0-1.4-0.6-1.4-1.4V18.9c0-0.8,0.6-1.4,1.4-1.4h19.9c0.8,0,1.4,0.6,1.4,1.4v20.2
		C97,39.9,96.4,40.5,95.6,40.5z"/>
	<path class="st1" d="M124.4,40.5h-19.9c-0.8,0-1.4-0.6-1.4-1.4V18.9c0-0.8,0.6-1.4,1.4-1.4h19.9c0.8,0,1.4,0.6,1.4,1.4v20.2
		C125.8,39.9,125.1,40.5,124.4,40.5z"/>
	<path class="st1" d="M153.1,40.5h-19.9c-0.8,0-1.4-0.6-1.4-1.4V18.9c0-0.8,0.6-1.4,1.4-1.4h19.9c0.8,0,1.4,0.6,1.4,1.4v20.2
		C154.6,39.9,153.9,40.5,153.1,40.5z"/>
	<path class="st1" d="M181.9,40.5H162c-0.8,0-1.4-0.6-1.4-1.4V18.9c0-0.8,0.6-1.4,1.4-1.4h19.9c0.8,0,1.4,0.6,1.4,1.4v20.2
		C183.3,39.9,182.7,40.5,181.9,40.5z"/>
	<path class="st1" d="M38,68.9H18.1c-0.8,0-1.4-0.6-1.4-1.4V47.3c0-0.8,0.6-1.4,1.4-1.4H38c0.8,0,1.4,0.6,1.4,1.4v20.2
		C39.4,68.3,38.8,68.9,38,68.9z"/>
	<path class="st1" d="M66.8,68.9H46.9c-0.8,0-1.4-0.6-1.4-1.4V47.3c0-0.8,0.6-1.4,1.4-1.4h19.9c0.8,0,1.4,0.6,1.4,1.4v20.2
		C68.2,68.3,67.6,68.9,66.8,68.9z"/>
	<path class="st1" d="M95.6,68.9H75.6c-0.8,0-1.4-0.6-1.4-1.4V47.3c0-0.8,0.6-1.4,1.4-1.4h19.9c0.8,0,1.4,0.6,1.4,1.4v20.2
		C97,68.3,96.4,68.9,95.6,68.9z"/>
	<path class="st1" d="M124.4,68.9h-19.9c-0.8,0-1.4-0.6-1.4-1.4V47.3c0-0.8,0.6-1.4,1.4-1.4h19.9c0.8,0,1.4,0.6,1.4,1.4v20.2
		C125.8,68.3,125.1,68.9,124.4,68.9z"/>
	<path class="st1" d="M153.1,68.9h-19.9c-0.8,0-1.4-0.6-1.4-1.4V47.3c0-0.8,0.6-1.4,1.4-1.4h19.9c0.8,0,1.4,0.6,1.4,1.4v20.2
		C154.6,68.3,153.9,68.9,153.1,68.9z"/>
	<path class="st1" d="M181.9,68.9H162c-0.8,0-1.4-0.6-1.4-1.4V47.3c0-0.8,0.6-1.4,1.4-1.4h19.9c0.8,0,1.4,0.6,1.4,1.4v20.2
		C183.3,68.3,182.7,68.9,181.9,68.9z"/>
	<path class="st1" d="M38,97.3H18.1c-0.8,0-1.4-0.6-1.4-1.4V75.7c0-0.8,0.6-1.4,1.4-1.4H38c0.8,0,1.4,0.6,1.4,1.4v20.2
		C39.4,96.7,38.8,97.3,38,97.3z"/>
	<path class="st1" d="M66.8,97.3H46.9c-0.8,0-1.4-0.6-1.4-1.4V75.7c0-0.8,0.6-1.4,1.4-1.4h19.9c0.8,0,1.4,0.6,1.4,1.4v20.2
		C68.2,96.7,67.6,97.3,66.8,97.3z"/>
	<path class="st2" d="M95.6,97.3H75.6c-0.8,0-1.4-0.6-1.4-1.4V75.7c0-0.8,0.6-1.4,1.4-1.4h19.9c0.8,0,1.4,0.6,1.4,1.4v20.2
		C97,96.7,96.4,97.3,95.6,97.3z"/>
	<path class="st2" d="M124.4,97.3h-19.9c-0.8,0-1.4-0.6-1.4-1.4V75.7c0-0.8,0.6-1.4,1.4-1.4h19.9c0.8,0,1.4,0.6,1.4,1.4v20.2
		C125.8,96.7,125.1,97.3,124.4,97.3z"/>
	<path class="st2" d="M153.1,97.3h-19.9c-0.8,0-1.4-0.6-1.4-1.4V75.7c0-0.8,0.6-1.4,1.4-1.4h19.9c0.8,0,1.4,0.6,1.4,1.4v20.2
		C154.6,96.7,153.9,97.3,153.1,97.3z"/>
	<path class="st2" d="M181.9,97.3H162c-0.8,0-1.4-0.6-1.4-1.4V75.7c0-0.8,0.6-1.4,1.4-1.4h19.9c0.8,0,1.4,0.6,1.4,1.4v20.2
		C183.3,96.7,182.7,97.3,181.9,97.3z"/>
	<path class="st2" d="M38,125.7H18.1c-0.8,0-1.4-0.6-1.4-1.4v-20.2c0-0.8,0.6-1.4,1.4-1.4H38c0.8,0,1.4,0.6,1.4,1.4v20.2
		C39.4,125.1,38.8,125.7,38,125.7z"/>
	<path class="st2" d="M66.8,125.7H46.9c-0.8,0-1.4-0.6-1.4-1.4v-20.2c0-0.8,0.6-1.4,1.4-1.4h19.9c0.8,0,1.4,0.6,1.4,1.4v20.2
		C68.2,125.1,67.6,125.7,66.8,125.7z"/>
	<path class="st2" d="M95.6,125.7H75.6c-0.8,0-1.4-0.6-1.4-1.4v-20.2c0-0.8,0.6-1.4,1.4-1.4h19.9c0.8,0,1.4,0.6,1.4,1.4v20.2
		C97,125.1,96.4,125.7,95.6,125.7z"/>
	<path class="st2" d="M124.4,125.7h-19.9c-0.8,0-1.4-0.6-1.4-1.4v-20.2c0-0.8,0.6-1.4,1.4-1.4h19.9c0.8,0,1.4,0.6,1.4,1.4v20.2
		C125.8,125.1,125.1,125.7,124.4,125.7z"/>
	<path class="st2" d="M153.1,125.7h-19.9c-0.8,0-1.4-0.6-1.4-1.4v-20.2c0-0.8,0.6-1.4,1.4-1.4h19.9c0.8,0,1.4,0.6,1.4,1.4v20.2
		C154.6,125.1,153.9,125.7,153.1,125.7z"/>
	<path class="st2" d="M181.9,125.7H162c-0.8,0-1.4-0.6-1.4-1.4v-20.2c0-0.8,0.6-1.4,1.4-1.4h19.9c0.8,0,1.4,0.6,1.4,1.4v20.2
		C183.3,125.1,182.7,125.7,181.9,125.7z"/>
	<path class="st2" d="M38,154.1H18.1c-0.8,0-1.4-0.6-1.4-1.4v-20.2c0-0.8,0.6-1.4,1.4-1.4H38c0.8,0,1.4,0.6,1.4,1.4v20.2
		C39.4,153.4,38.8,154.1,38,154.1z"/>
	<path class="st2" d="M66.8,154.1H46.9c-0.8,0-1.4-0.6-1.4-1.4v-20.2c0-0.8,0.6-1.4,1.4-1.4h19.9c0.8,0,1.4,0.6,1.4,1.4v20.2
		C68.2,153.4,67.6,154.1,66.8,154.1z"/>
	<path class="st2" d="M95.6,154.1H75.6c-0.8,0-1.4-0.6-1.4-1.4v-20.2c0-0.8,0.6-1.4,1.4-1.4h19.9c0.8,0,1.4,0.6,1.4,1.4v20.2
		C97,153.4,96.4,154.1,95.6,154.1z"/>
	<path class="st2" d="M124.4,154.1h-19.9c-0.8,0-1.4-0.6-1.4-1.4v-20.2c0-0.8,0.6-1.4,1.4-1.4h19.9c0.8,0,1.4,0.6,1.4,1.4v20.2
		C125.8,153.4,125.1,154.1,124.4,154.1z"/>
	<path class="st2" d="M153.1,154.1h-19.9c-0.8,0-1.4-0.6-1.4-1.4v-20.2c0-0.8,0.6-1.4,1.4-1.4h19.9c0.8,0,1.4,0.6,1.4,1.4v20.2
		C154.6,153.4,153.9,154.1,153.1,154.1z"/>
	<path class="st2" d="M181.9,154.1H162c-0.8,0-1.4-0.6-1.4-1.4v-20.2c0-0.8,0.6-1.4,1.4-1.4h19.9c0.8,0,1.4,0.6,1.4,1.4v20.2
		C183.3,153.4,182.7,154.1,181.9,154.1z"/>
	<path class="st2" d="M38,182.5H18.1c-0.8,0-1.4-0.6-1.4-1.4v-20.2c0-0.8,0.6-1.4,1.4-1.4H38c0.8,0,1.4,0.6,1.4,1.4v20.2
		C39.4,181.8,38.8,182.5,38,182.5z"/>
	<path class="st2" d="M66.8,182.5H46.9c-0.8,0-1.4-0.6-1.4-1.4v-20.2c0-0.8,0.6-1.4,1.4-1.4h19.9c0.8,0,1.4,0.6,1.4,1.4v20.2
		C68.2,181.8,67.6,182.5,66.8,182.5z"/>
	<path class="st2" d="M95.6,182.5H75.6c-0.8,0-1.4-0.6-1.4-1.4v-20.2c0-0.8,0.6-1.4,1.4-1.4h19.9c0.8,0,1.4,0.6,1.4,1.4v20.2
		C97,181.8,96.4,182.5,95.6,182.5z"/>
	<path class="st2" d="M124.4,182.5h-19.9c-0.8,0-1.4-0.6-1.4-1.4v-20.2c0-0.8,0.6-1.4,1.4-1.4h19.9c0.8,0,1.4,0.6,1.4,1.4v20.2
		C125.8,181.8,125.1,182.5,124.4,182.5z"/>
	<path class="st2" d="M153.1,182.5h-19.9c-0.8,0-1.4-0.6-1.4-1.4v-20.2c0-0.8,0.6-1.4,1.4-1.4h19.9c0.8,0,1.4,0.6,1.4,1.4v20.2
		C154.6,181.8,153.9,182.5,153.1,182.5z"/>
	<path class="st2" d="M181.9,182.5H162c-0.8,0-1.4-0.6-1.4-1.4v-20.2c0-0.8,0.6-1.4,1.4-1.4h19.9c0.8,0,1.4,0.6,1.4,1.4v20.2
		C183.3,181.8,182.7,182.5,181.9,182.5z"/>
</g>
</svg>
