<?xml version="1.0" encoding="utf-8"?>
<!-- Generator: Adobe Illustrator 19.2.1, SVG Export Plug-In . SVG Version: 6.00 Build 0)  -->
<svg version="1.1" id="Layer_1" xmlns="http://www.w3.org/2000/svg" xmlns:xlink="http://www.w3.org/1999/xlink" x="0px" y="0px"
	 viewBox="0 0 200 200" style="enable-background:new 0 0 200 200;" xml:space="preserve">
<style type="text/css">
	.st0{opacity:0.25;fill:none;}
	.st1{fill:#A3488C;}
</style>
<g>
	<g>
		<rect class="st0" width="200" height="200"/>
	</g>
	<path class="st1" d="M31.6,30.4c3.8,0,6.9-3.1,6.9-6.9c0-3.8-3.1-6.9-6.9-6.9c-3.8,0-6.9,3.1-6.9,6.9
		C24.7,27.3,27.8,30.4,31.6,30.4z M41,32.3c-5.2,0-9.6,0-9.6,0s-4.5,0-9.7,0c-5.2,0-5,5.8-5,5.8v21.6c0,1.4,1.1,2.5,2.5,2.5
		c1.4,0,2.5-1.1,2.5-2.5V44.5c0-0.6,0.5-1,1.1-1c0.6,0,1,0.5,1,1v48.7c0,1.8,1.5,3.3,3.3,3.3c1.8,0,3.3-1.5,3.3-3.3V62.8
		c0-0.6,0.5-1.1,1-1.1c0.6,0,1,0.5,1,1.1v30.3c0,1.8,1.5,3.3,3.3,3.3c1.8,0,3.3-1.5,3.3-3.3V44.5c0-0.6,0.5-1,1-1c0.6,0,1,0.5,1,1
		v15.2c0,1.4,1.1,2.5,2.5,2.5c1.4,0,2.5-1.1,2.5-2.5V38.1C46,38.1,46.2,32.3,41,32.3z"/>
	<path class="st1" d="M65.9,30.4c3.8,0,6.9-3.1,6.9-6.9c0-3.8-3.1-6.9-6.9-6.9c-3.8,0-6.9,3.1-6.9,6.9C59,27.3,62.1,30.4,65.9,30.4z
		 M75.3,32.3c-5.2,0-9.6,0-9.6,0s-4.5,0-9.7,0c-5.2,0-5,5.8-5,5.8v21.6c0,1.4,1.1,2.5,2.5,2.5c1.4,0,2.5-1.1,2.5-2.5V44.5
		c0-0.6,0.5-1,1.1-1c0.6,0,1,0.5,1,1v48.7c0,1.8,1.5,3.3,3.3,3.3c1.8,0,3.3-1.5,3.3-3.3V62.8c0-0.6,0.5-1.1,1-1.1c0.6,0,1,0.5,1,1.1
		v30.3c0,1.8,1.5,3.3,3.3,3.3c1.8,0,3.3-1.5,3.3-3.3V44.5c0-0.6,0.5-1,1-1c0.6,0,1,0.5,1,1v15.2c0,1.4,1.1,2.5,2.5,2.5
		c1.4,0,2.5-1.1,2.5-2.5V38.1C80.4,38.1,80.5,32.3,75.3,32.3z"/>
	<path class="st1" d="M100.2,30.4c3.8,0,6.9-3.1,6.9-6.9c0-3.8-3.1-6.9-6.9-6.9c-3.8,0-6.9,3.1-6.9,6.9
		C93.3,27.3,96.4,30.4,100.2,30.4z M109.7,32.3c-5.2,0-9.6,0-9.6,0s-4.5,0-9.7,0c-5.2,0-5,5.8-5,5.8v21.6c0,1.4,1.1,2.5,2.5,2.5
		c1.4,0,2.5-1.1,2.5-2.5V44.5c0-0.6,0.5-1,1.1-1c0.6,0,1,0.5,1,1v48.7c0,1.8,1.5,3.3,3.3,3.3c1.8,0,3.3-1.5,3.3-3.3V62.8
		c0-0.6,0.5-1.1,1-1.1c0.6,0,1,0.5,1,1.1v30.3c0,1.8,1.5,3.3,3.3,3.3c1.8,0,3.3-1.5,3.3-3.3V44.5c0-0.6,0.5-1,1-1c0.6,0,1,0.5,1,1
		v15.2c0,1.4,1.1,2.5,2.5,2.5c1.4,0,2.5-1.1,2.5-2.5V38.1C114.7,38.1,114.9,32.3,109.7,32.3z"/>
	<path class="st1" d="M31.6,117.3c3.8,0,6.9-3.1,6.9-6.9c0-3.8-3.1-6.9-6.9-6.9c-3.8,0-6.9,3.1-6.9,6.9
		C24.7,114.2,27.8,117.3,31.6,117.3z M41,119.2c-5.2,0-9.6,0-9.6,0s-4.5,0-9.7,0c-5.2,0-5,5.8-5,5.8v21.6c0,1.4,1.1,2.5,2.5,2.5
		c1.4,0,2.5-1.1,2.5-2.5v-15.2c0-0.6,0.5-1,1.1-1c0.6,0,1,0.5,1,1V180c0,1.8,1.5,3.3,3.3,3.3c1.8,0,3.3-1.5,3.3-3.3v-30.3
		c0-0.6,0.5-1.1,1-1.1c0.6,0,1,0.5,1,1.1V180c0,1.8,1.5,3.3,3.3,3.3c1.8,0,3.3-1.5,3.3-3.3v-48.7c0-0.6,0.5-1,1-1c0.6,0,1,0.5,1,1
		v15.2c0,1.4,1.1,2.5,2.5,2.5c1.4,0,2.5-1.1,2.5-2.5V125C46,125,46.2,119.2,41,119.2z"/>
	<path class="st1" d="M65.9,117.3c3.8,0,6.9-3.1,6.9-6.9c0-3.8-3.1-6.9-6.9-6.9c-3.8,0-6.9,3.1-6.9,6.9
		C59,114.2,62.1,117.3,65.9,117.3z M75.3,119.2c-5.2,0-9.6,0-9.6,0s-4.5,0-9.7,0c-5.2,0-5,5.8-5,5.8v21.6c0,1.4,1.1,2.5,2.5,2.5
		c1.4,0,2.5-1.1,2.5-2.5v-15.2c0-0.6,0.5-1,1.1-1c0.6,0,1,0.5,1,1V180c0,1.8,1.5,3.3,3.3,3.3c1.8,0,3.3-1.5,3.3-3.3v-30.3
		c0-0.6,0.5-1.1,1-1.1c0.6,0,1,0.5,1,1.1V180c0,1.8,1.5,3.3,3.3,3.3c1.8,0,3.3-1.5,3.3-3.3v-48.7c0-0.6,0.5-1,1-1c0.6,0,1,0.5,1,1
		v15.2c0,1.4,1.1,2.5,2.5,2.5c1.4,0,2.5-1.1,2.5-2.5V125C80.4,125,80.5,119.2,75.3,119.2z"/>
	<path class="st1" d="M100.2,117.3c3.8,0,6.9-3.1,6.9-6.9c0-3.8-3.1-6.9-6.9-6.9c-3.8,0-6.9,3.1-6.9,6.9
		C93.3,114.2,96.4,117.3,100.2,117.3z M109.7,119.2c-5.2,0-9.6,0-9.6,0s-4.5,0-9.7,0c-5.2,0-5,5.8-5,5.8v21.6c0,1.4,1.1,2.5,2.5,2.5
		c1.4,0,2.5-1.1,2.5-2.5v-15.2c0-0.6,0.5-1,1.1-1c0.6,0,1,0.5,1,1V180c0,1.8,1.5,3.3,3.3,3.3c1.8,0,3.3-1.5,3.3-3.3v-30.3
		c0-0.6,0.5-1.1,1-1.1c0.6,0,1,0.5,1,1.1V180c0,1.8,1.5,3.3,3.3,3.3c1.8,0,3.3-1.5,3.3-3.3v-48.7c0-0.6,0.5-1,1-1c0.6,0,1,0.5,1,1
		v15.2c0,1.4,1.1,2.5,2.5,2.5c1.4,0,2.5-1.1,2.5-2.5V125C114.7,125,114.9,119.2,109.7,119.2z"/>
	<path class="st1" d="M134.5,30.4c3.8,0,6.9-3.1,6.9-6.9c0-3.8-3.1-6.9-6.9-6.9c-3.8,0-6.9,3.1-6.9,6.9
		C127.7,27.3,130.7,30.4,134.5,30.4z M144,32.3c-5.2,0-9.6,0-9.6,0s-4.5,0-9.7,0c-5.2,0-5,5.8-5,5.8v21.6c0,1.4,1.1,2.5,2.5,2.5
		c1.4,0,2.5-1.1,2.5-2.5V44.5c0-0.6,0.5-1,1.1-1c0.6,0,1,0.5,1,1v48.7c0,1.8,1.5,3.3,3.3,3.3c1.8,0,3.3-1.5,3.3-3.3V62.8
		c0-0.6,0.5-1.1,1-1.1c0.6,0,1,0.5,1,1.1v30.3c0,1.8,1.5,3.3,3.3,3.3c1.8,0,3.3-1.5,3.3-3.3V44.5c0-0.6,0.5-1,1-1c0.6,0,1,0.5,1,1
		v15.2c0,1.4,1.1,2.5,2.5,2.5c1.4,0,2.5-1.1,2.5-2.5V38.1C149,38.1,149.2,32.3,144,32.3z"/>
	<path class="st1" d="M168.9,30.4c3.8,0,6.9-3.1,6.9-6.9c0-3.8-3.1-6.9-6.9-6.9c-3.8,0-6.9,3.1-6.9,6.9
		C162,27.3,165.1,30.4,168.9,30.4z M178.3,32.3c-5.2,0-9.6,0-9.6,0s-4.5,0-9.7,0c-5.2,0-5,5.8-5,5.8v21.6c0,1.4,1.1,2.5,2.5,2.5
		c1.4,0,2.5-1.1,2.5-2.5V44.5c0-0.6,0.5-1,1.1-1c0.6,0,1,0.5,1,1v48.7c0,1.8,1.5,3.3,3.3,3.3c1.8,0,3.3-1.5,3.3-3.3V62.8
		c0-0.6,0.5-1.1,1-1.1c0.6,0,1,0.5,1,1.1v30.3c0,1.8,1.5,3.3,3.3,3.3c1.8,0,3.3-1.5,3.3-3.3V44.5c0-0.6,0.5-1,1-1c0.6,0,1,0.5,1,1
		v15.2c0,1.4,1.1,2.5,2.5,2.5c1.4,0,2.5-1.1,2.5-2.5V38.1C183.3,38.1,183.5,32.3,178.3,32.3z"/>
</g>
</svg>
