<?xml version="1.0" encoding="utf-8"?>
<!-- Generator: Adobe Illustrator 19.2.1, SVG Export Plug-In . SVG Version: 6.00 Build 0)  -->
<svg version="1.1" id="Layer_1" xmlns="http://www.w3.org/2000/svg" xmlns:xlink="http://www.w3.org/1999/xlink" x="0px" y="0px"
	 viewBox="0 0 200 200" style="enable-background:new 0 0 200 200;" xml:space="preserve">
<style type="text/css">
	.st0{opacity:0.25;fill:none;}
	.st1{fill:none;stroke:#28903B;stroke-width:3.75;stroke-linecap:round;stroke-linejoin:round;stroke-miterlimit:10;}
</style>
<g>
	<g>
		<rect class="st0" width="200" height="200"/>
	</g>
	<polyline class="st1" points="16.7,175.5 17,173.5 17.3,171.6 17.6,169.6 17.9,169.6 18.2,167.6 18.5,167.6 18.8,167.6 19.2,163.7 
		19.5,163.7 19.8,161.8 20.1,161.8 20.4,161.8 20.7,161.8 21,161.8 21.3,163.7 21.6,163.7 21.9,165.7 22.3,165.7 22.6,167.6 
		22.9,167.6 23.2,167.6 23.5,169.6 23.8,171.6 24.1,173.5 24.4,175.5 24.7,175.5 25,177.4 25.3,177.4 25.6,179.4 26,179.4 
		26.3,181.4 26.6,181.4 26.9,183.3 27.2,183.3 27.5,181.4 27.8,179.4 28.1,179.4 28.4,179.4 28.7,179.4 29,179.4 29.3,177.4 
		29.7,177.4 30,177.4 30.3,177.4 30.6,177.4 30.9,175.5 31.2,173.5 31.5,171.6 31.8,169.6 32.1,167.6 32.4,165.7 32.7,161.8 
		33.1,159.8 33.4,157.8 33.7,155.9 34,153.9 34.3,152 34.6,150 34.9,148 35.2,146.1 35.5,146.1 35.8,144.1 36.2,144.1 36.5,144.1 
		36.8,144.1 37.1,142.2 37.4,142.2 37.7,142.2 38,142.2 38.3,142.2 38.6,142.2 38.9,142.2 39.2,142.2 39.6,142.2 39.9,142.2 
		40.2,140.2 40.5,140.2 40.8,138.2 41.1,138.2 41.4,138.2 41.7,138.2 42,138.2 42.4,140.2 42.6,140.2 43,140.2 43.3,140.2 
		43.6,140.2 43.9,142.2 44.2,142.2 44.5,142.2 44.8,142.2 45.1,144.1 45.4,144.1 45.7,146.1 46.1,146.1 46.3,144.1 46.7,146.1 
		47,146.1 47.3,146.1 47.6,146.1 47.9,146.1 48.2,144.1 48.5,144.1 48.8,144.1 49.1,142.2 49.5,140.2 49.8,138.2 50.1,136.3 
		50.4,132.4 50.7,130.4 51,126.5 51.3,122.5 51.6,116.7 51.9,110.8 52.2,104.9 52.6,99 52.9,93.1 53.2,87.3 53.5,81.4 53.8,75.5 
		54.1,71.6 54.4,65.7 54.7,61.8 55,59.8 55.3,57.8 55.6,55.9 55.9,53.9 56.3,52 56.6,50 56.9,48 57.2,46.1 57.5,46.1 57.8,44.1 
		58.1,44.1 58.4,42.2 58.7,42.2 59,40.2 59.3,38.2 59.7,36.3 60,34.3 60.3,32.4 60.6,30.4 60.9,30.4 61.2,28.4 61.5,28.4 61.8,28.4 
		62.1,26.5 62.4,24.5 62.7,24.5 63.1,24.5 63.4,22.5 63.7,22.5 64,20.6 64.3,20.6 64.6,18.6 64.9,18.6 65.2,16.7 65.5,16.7 
		65.8,16.7 66.1,18.6 66.5,18.6 66.8,20.6 67.1,20.6 67.4,20.6 67.7,22.5 68,22.5 68.3,24.5 68.6,24.5 68.9,26.5 69.2,26.5 
		69.5,26.5 69.8,28.4 70.2,28.4 70.5,28.4 70.8,28.4 71.1,28.4 71.4,28.4 71.7,28.4 72,28.4 72.3,28.4 72.6,28.4 72.9,28.4 
		73.3,28.4 73.6,26.5 73.9,26.5 74.2,26.5 74.5,28.4 74.8,28.4 75.1,28.4 75.4,30.4 75.7,30.4 76,32.4 76.3,34.3 76.6,36.3 77,40.2 
		77.3,42.2 77.6,46.1 77.9,50 78.2,53.9 78.5,55.9 78.8,59.8 79.1,63.7 79.5,65.7 79.7,69.6 80.1,73.5 80.4,75.5 80.7,79.4 81,81.4 
		81.3,83.3 81.6,85.3 81.9,87.3 82.2,89.2 82.5,93.1 82.9,95.1 83.2,99 83.4,101 83.8,104.9 84.1,106.9 84.4,108.8 84.7,108.8 
		85,110.8 85.3,110.8 85.6,110.8 85.9,112.7 86.2,112.7 86.6,112.7 86.9,114.7 87.2,114.7 87.5,114.7 87.8,114.7 88.1,114.7 
		88.4,114.7 88.7,112.7 89,110.8 89.3,108.8 89.6,106.9 90,102.9 90.3,101 90.6,97.1 90.9,93.1 91.2,89.2 91.5,83.3 91.8,79.4 
		92.1,77.4 92.4,73.5 92.7,69.6 93,67.6 93.4,65.7 93.7,63.7 94,63.7 94.3,61.8 94.6,59.8 94.9,57.8 95.2,57.2 95.5,58.1 95.8,56.1 
		96.1,55.2 96.5,55.2 96.8,52.6 97.1,49.2 97.4,46.6 97.7,43.2 98,40.5 98.3,41.8 98.6,42.5 98.9,45 99.2,46.4 99.5,46.6 99.8,47.8 
		100.2,49.1 100.5,49 100.8,49.4 101.1,49 101.4,49 101.7,52.2 102,55 102.3,57.6 102.6,58.8 102.9,59.7 103.2,62 103.6,62.9 
		103.9,66.5 104.2,68.5 104.5,72 104.8,74.2 105.1,75.6 105.4,76 105.7,76.2 106,76.8 106.3,78.1 106.6,80.1 106.9,80 107.3,80.9 
		107.6,80.4 107.9,81.2 108.2,82.3 108.5,87.2 108.8,85.7 109.1,86.9 109.4,88.5 109.7,87.4 110,87.6 110.4,88.1 110.7,89.8 
		111,91.9 111.3,91.9 111.6,92.1 111.9,94 112.2,96.2 112.5,99.6 112.9,103.1 113.1,106.4 113.5,108.7 113.8,109.1 114.1,109.2 
		114.4,107 114.7,111 115,115.9 115.3,118.7 115.6,120.2 115.9,121.7 116.2,124.5 116.6,125 116.8,125.2 117.2,126.3 117.5,127.1 
		117.8,126.8 118.1,126.5 118.4,126.2 118.7,127.6 119,128.1 119.3,129.3 119.6,129.5 119.9,128.1 120.3,127.9 120.5,128.9 
		120.9,129.3 121.2,130.2 121.5,131.5 121.8,132.8 122.1,134.2 122.4,134.6 122.7,135.5 123,135.4 123.3,136.2 123.7,135 124,136.1 
		124.3,136.4 124.6,138.3 124.9,139.4 125.2,142.1 125.5,145.4 125.8,146.9 126.1,145.7 126.4,144.1 126.8,146.1 127.1,147.5 
		127.4,148.8 127.7,148 128,150.2 128.3,151.8 128.6,153.7 128.9,151.4 129.2,151.1 129.5,150.4 129.8,150.1 130.1,150.2 
		130.5,149.9 130.8,148.4 131.1,148.4 131.4,149.1 131.7,148.6 132,148.4 132.3,147.2 132.6,148.8 132.9,148.3 133.2,147.7 
		133.6,145.9 133.9,147.5 134.2,148.5 134.5,149.7 134.8,151.8 135.1,149.4 135.4,148.7 135.7,149.7 136,151.9 136.3,153.1 
		136.6,150.7 136.9,150.8 137.3,151 137.6,152.9 137.9,153.7 138.2,154 138.5,155.3 138.8,155.7 139.1,155.9 139.4,155.7 
		139.7,155.9 140,155.8 140.3,156.6 140.7,157.8 141,158.2 141.3,158.5 141.6,158.2 141.9,157.3 142.2,157.3 142.5,156.2 142.8,158 
		143.1,157.8 143.4,156.8 143.7,156.8 144.1,157.8 144.4,158.2 144.7,157.2 145,153.3 145.3,150.9 145.6,149.1 145.9,150.3 
		146.2,148.4 146.5,147.4 146.8,145.8 147.1,143.8 147.5,142.7 147.8,142 148.1,142.8 148.4,142.5 148.7,142.6 149,143.7 
		149.3,142.1 149.6,142 149.9,141.6 150.2,141.9 150.5,142.7 150.9,144.3 151.2,145.1 151.5,146 151.8,146 152.1,145.9 152.4,147.3 
		152.7,147.3 153,148.9 153.3,148.5 153.7,148.4 153.9,148.4 154.3,145.8 154.6,148.5 154.9,145.1 155.2,142.4 155.5,138 
		155.8,135.2 156.1,133 156.4,129.2 156.7,125.4 157.1,122.3 157.4,117.8 157.7,111.3 158,107.4 158.3,101.2 158.6,97.8 158.9,95.7 
		159.2,95.7 159.5,96.1 159.8,95.7 160.1,97.4 160.4,97.6 160.8,98.4 161.1,94.7 161.4,92.9 161.7,94.1 162,94.6 162.3,96 
		162.6,96.7 162.9,97.4 163.2,97.9 163.5,95.2 163.9,95.7 164.2,95.8 164.5,94.9 164.8,97 165.1,97.5 165.4,98.7 165.7,96.6 
		166,94.3 166.3,92.9 166.6,89.5 166.9,86.4 167.2,85.7 167.6,84.2 167.9,85.6 168.2,86.5 168.5,87.7 168.8,89.2 169.1,89.8 
		169.4,91.2 169.7,93 170,92 170.3,95.2 170.7,95.6 171,95.8 171.3,97 171.6,97.2 171.9,96.8 172.2,93.8 172.5,96.2 172.8,97.1 
		173.1,97.2 173.4,97.4 173.7,98.8 174,98.8 174.4,100.3 174.7,105 175,109.8 175.3,108.9 175.6,109.8 175.9,115 176.2,117.5 
		176.5,120.7 176.8,123.1 177.1,125.9 177.4,128.8 177.8,131.9 178.1,132.7 178.4,132.8 178.7,135.3 179,138.6 179.3,139 
		179.6,140.4 179.9,141.2 180.2,141.8 180.5,139.3 180.8,139.6 181.2,141.4 181.5,144.3 181.8,145.9 182.1,148.3 182.4,150.7 
		182.7,149.9 183,150.2 183.3,149.6 	"/>
</g>
</svg>
