<?xml version="1.0" encoding="utf-8"?>
<!-- Generator: Adobe Illustrator 19.2.1, SVG Export Plug-In . SVG Version: 6.00 Build 0)  -->
<svg version="1.1" id="Layer_1" xmlns="http://www.w3.org/2000/svg" xmlns:xlink="http://www.w3.org/1999/xlink" x="0px" y="0px"
	 viewBox="0 0 200 200" style="enable-background:new 0 0 200 200;" xml:space="preserve">
<style type="text/css">
	.st0{fill:none;stroke:#ABBD67;stroke-width:1.25;}
	.st1{opacity:0.25;fill:none;}
	.st2{fill:#ABBD67;}
</style>
<g>
	<polyline class="st0" points="23.8,110.3 68.3,65.8 114,111.4 23.8,110.3 	"/>
	<polyline class="st0" points="166.4,40.6 114.4,111.4 164.9,162.7 	"/>
	<path class="st0" d="M68.3,65.8"/>
	<polyline class="st0" points="96.1,184.1 114.4,111.4 176.2,113.9 	"/>
	<line class="st0" x1="68.3" y1="65.8" x2="30.3" y2="25.1"/>
	<circle cx="114" cy="111.4" r="7.2"/>
	<circle cx="96.1" cy="184.1" r="7.2"/>
	<circle cx="164.9" cy="162.7" r="7.2"/>
	<circle cx="176.2" cy="113.9" r="7.2"/>
	<circle cx="166.4" cy="40.6" r="7.2"/>
	<circle cx="30.3" cy="25.1" r="7.2"/>
	<line class="st0" x1="68.3" y1="65.8" x2="95.4" y2="37.3"/>
	<circle cx="95.4" cy="37.3" r="7.2"/>
	<line class="st0" x1="23.8" y1="110.3" x2="59.6" y2="170.4"/>
	<circle cx="59.6" cy="170.4" r="7.2"/>
	<circle cx="68.3" cy="65.8" r="7.2"/>
	<circle cx="23.8" cy="110.3" r="7.2"/>
</g>
<g>
	<g>
		<rect class="st1" width="200" height="200"/>
	</g>
</g>
<g>
	<polyline class="st0" points="23.8,110.3 68.3,65.8 114,111.4 23.8,110.3 	"/>
	<polyline class="st0" points="166.4,40.6 114.4,111.4 164.9,162.7 	"/>
	<path class="st0" d="M68.3,65.8"/>
	<polyline class="st0" points="96.1,184.1 114.4,111.4 176.2,113.9 	"/>
	<line class="st0" x1="68.3" y1="65.8" x2="30.3" y2="25.1"/>
	<circle class="st2" cx="114" cy="111.4" r="7.2"/>
	<circle class="st2" cx="96.1" cy="184.1" r="7.2"/>
	<circle class="st2" cx="164.9" cy="162.7" r="7.2"/>
	<circle class="st2" cx="176.2" cy="113.9" r="7.2"/>
	<circle class="st2" cx="166.4" cy="40.6" r="7.2"/>
	<circle class="st2" cx="30.3" cy="25.1" r="7.2"/>
	<line class="st0" x1="68.3" y1="65.8" x2="95.4" y2="37.3"/>
	<circle class="st2" cx="95.4" cy="37.3" r="7.2"/>
	<line class="st0" x1="23.8" y1="110.3" x2="59.6" y2="170.4"/>
	<circle class="st2" cx="59.6" cy="170.4" r="7.2"/>
	<circle class="st2" cx="68.3" cy="65.8" r="7.2"/>
	<circle class="st2" cx="23.8" cy="110.3" r="7.2"/>
</g>
</svg>
