<?xml version="1.0" encoding="utf-8"?>
<!-- Generator: Adobe Illustrator 19.2.1, SVG Export Plug-In . SVG Version: 6.00 Build 0)  -->
<svg version="1.1" id="Layer_1" xmlns="http://www.w3.org/2000/svg" xmlns:xlink="http://www.w3.org/1999/xlink" x="0px" y="0px"
	 viewBox="0 0 200 200" style="enable-background:new 0 0 200 200;" xml:space="preserve">
<style type="text/css">
	.st0{opacity:0.25;fill:none;}
	.st1{fill:none;stroke:#A3488C;stroke-width:1.875;}
	.st2{fill:#A3488C;}
	.st3{fill:#A3488C;fill-opacity:0.5;}
</style>
<g>
	<g>
		<rect class="st0" width="200" height="200"/>
	</g>
</g>
<g>
	<line class="st1" x1="101.1" y1="27.8" x2="101.1" y2="174.7"/>
	<line class="st1" x1="135.2" y1="67.1" x2="79.7" y2="122.6"/>
	<line class="st1" x1="151.8" y1="101.2" x2="47" y2="101.2"/>
	<line class="st1" x1="153" y1="153.2" x2="75" y2="75.2"/>
	<circle class="st2" cx="101.1" cy="27.8" r="8.3"/>
	<circle class="st2" cx="135.2" cy="67.1" r="8.3"/>
	<circle class="st2" cx="151.8" cy="101.2" r="8.3"/>
	<circle class="st2" cx="153" cy="153.1" r="8.3"/>
	<circle class="st2" cx="101.1" cy="173.5" r="8.3"/>
	<circle class="st2" cx="80.3" cy="122" r="8.3"/>
	<circle class="st2" cx="47" cy="101.2" r="8.3"/>
	<circle class="st2" cx="75.2" cy="75.2" r="8.3"/>
	<polygon class="st1" points="101.1,27.8 135.2,67.1 151.8,101.2 153,153.1 101.1,171.9 80.3,122 47,101.2 75.2,75.2 	"/>
</g>
<g>
	<polygon class="st3" points="101.1,27.8 135.2,67.1 151.8,101.2 153,153.1 101.1,171.9 80.3,122 47,101.2 75.2,75.2 	"/>
	<line class="st1" x1="101.1" y1="27.8" x2="101.1" y2="174.7"/>
	<line class="st1" x1="135.2" y1="67.1" x2="79.7" y2="122.6"/>
	<line class="st1" x1="151.8" y1="101.2" x2="47" y2="101.2"/>
	<line class="st1" x1="153" y1="153.2" x2="75" y2="75.2"/>
	<circle class="st2" cx="101.1" cy="27.8" r="8.3"/>
	<circle class="st2" cx="135.2" cy="67.1" r="8.3"/>
	<circle class="st2" cx="151.8" cy="101.2" r="8.3"/>
	<circle class="st2" cx="153" cy="153.1" r="8.3"/>
	<circle class="st2" cx="101.1" cy="173.5" r="8.3"/>
	<circle class="st2" cx="80.3" cy="122" r="8.3"/>
	<circle class="st2" cx="47" cy="101.2" r="8.3"/>
	<circle class="st2" cx="75.2" cy="75.2" r="8.3"/>
	<polygon class="st1" points="101.1,27.8 135.2,67.1 151.8,101.2 153,153.1 101.1,171.9 80.3,122 47,101.2 75.2,75.2 	"/>
</g>
</svg>
