<?xml version="1.0" encoding="utf-8"?>
<!-- Generator: Adobe Illustrator 19.2.1, SVG Export Plug-In . SVG Version: 6.00 Build 0)  -->
<svg version="1.1" id="Layer_1" xmlns="http://www.w3.org/2000/svg" xmlns:xlink="http://www.w3.org/1999/xlink" x="0px" y="0px"
	 viewBox="0 0 200 200" style="enable-background:new 0 0 200 200;" xml:space="preserve">
<style type="text/css">
	.st0{fill:#ABBD67;fill-opacity:0.5;}
	.st1{fill:#131718;}
	.st2{opacity:0.25;fill:none;}
	.st3{fill:#ABBD67;fill-opacity:0.75;}
	.st4{fill:#ABBD67;}
</style>
<g>
	<path class="st0" d="M16.7,124.1v-19.7c38.8,0,57.9-11,78.1-22.7c10.7-6.2,21.7-12.5,35.7-17.4c15.7-5.5,33-8.1,52.9-8.1v19.7
		c-38.8,0-57.9,11-78.1,22.7c-10.7,6.2-21.7,12.5-35.7,17.4C53.9,121.4,36.6,124.1,16.7,124.1z"/>
	<path class="st1" d="M111,72.7c-5.7,2.9-11,6-16.2,9c-3.1,1.8-6.3,3.6-9.4,5.4c4.1,0.9,8.2,1.9,12.2,2.8c5.3,1.3,10.7,2.5,16.5,3.7
		c10.8-6,22.1-11.3,37-14.5C134.7,77.7,122.5,75.3,111,72.7z"/>
	<path class="st1" d="M44.6,102.1c13.7,2.2,24.3,6,34,10.4c8.1-3.4,15.2-7.4,22.1-11.3c-7-3.7-14.3-7.3-22.4-10.5
		C68.7,95.5,58.1,99.7,44.6,102.1z"/>
</g>
<g>
	<g>
		<rect class="st2" width="200" height="200"/>
	</g>
	<path class="st3" d="M16.7,60.5V21c41.1,0,61.1-1,82.2-2.1c20.8-1.1,42.2-2.2,84.4-2.2v39.5c-41.1,0-61.1,1-82.2,2.1
		C80.3,59.4,58.9,60.5,16.7,60.5z"/>
	<rect x="16.7" y="143.8" class="st0" width="166.7" height="39.5"/>
	<path class="st3" d="M183.3,100c-42.9,0-64.7-5.2-85.8-10.2c-20.8-4.9-40.5-9.6-80.9-9.6V60.5c42.9,0,64.7,5.2,85.8,10.2
		c20.8,4.9,40.5,9.6,80.9,9.6V100z"/>
	<path class="st3" d="M183.3,143.8c-44.3,0-66.6-11.8-88.2-23.1C74.9,110.1,55.7,100,16.7,100V80.3c44.3,0,66.6,11.8,88.2,23.1
		c20.3,10.7,39.4,20.7,78.4,20.7V143.8z"/>
	<path class="st0" d="M16.7,143.8v-19.7c40.2,0,59.7-5.6,80.4-11.6c21.2-6.1,43.1-12.5,86.3-12.5v19.7c-40.2,0-59.7,5.6-80.4,11.6
		C81.7,137.5,59.8,143.8,16.7,143.8z"/>
	<path class="st4" d="M111,72.7c-5.7,2.9-11,6-16.2,9c-3.1,1.8-6.3,3.6-9.4,5.4c4.1,0.9,8.2,1.9,12.2,2.8c5.3,1.3,10.7,2.5,16.5,3.7
		c10.8-6,22.1-11.3,37-14.5C134.7,77.7,122.5,75.3,111,72.7z"/>
	<path class="st4" d="M44.6,102.1c13.7,2.2,24.3,6,34,10.4c8.1-3.4,15.2-7.4,22.1-11.3c-7-3.7-14.3-7.3-22.4-10.5
		C68.7,95.5,58.1,99.7,44.6,102.1z"/>
</g>
</svg>
