<?xml version="1.0" encoding="utf-8"?>
<!-- Generator: Adobe Illustrator 19.2.1, SVG Export Plug-In . SVG Version: 6.00 Build 0)  -->
<svg version="1.1" id="Layer_1" xmlns="http://www.w3.org/2000/svg" xmlns:xlink="http://www.w3.org/1999/xlink" x="0px" y="0px"
	 viewBox="0 0 200 200" style="enable-background:new 0 0 200 200;" xml:space="preserve">
<style type="text/css">
	.st0{fill:none;stroke:#977348;stroke-width:1.25;stroke-miterlimit:10;stroke-opacity:0.5;}
	.st1{opacity:0.5;}
	.st2{fill:none;stroke:#977348;stroke-width:1.25;stroke-miterlimit:10;}
	.st3{fill:#977348;}
</style>
<g>
	<g>
	</g>
	<line class="st0" x1="151.9" y1="62.7" x2="166.4" y2="87.8"/>
	<g>
		<g class="st1">
			<polyline class="st2" points="129.4,51.6 133.4,30.6 151.5,62 			"/>
			<g>
				<path class="st3" d="M146.8,59.8c0.1-0.2,0.3-0.2,0.4-0.1l4.2,2.2l0.2-4.8c0-0.2,0.2-0.3,0.3-0.3c0.2,0,0.3,0.2,0.3,0.3
					l-0.2,5.3c0,0.1-0.1,0.2-0.2,0.3s-0.2,0.1-0.3,0l-4.7-2.4c-0.1,0-0.1-0.1-0.1-0.1C146.8,60,146.8,59.9,146.8,59.8z"/>
			</g>
		</g>
	</g>
	<g>
		<g class="st1">
			<polyline class="st2" points="104.3,107.6 109.1,62.7 124.7,75.7 129.2,52.3 			"/>
			<g>
				<path class="st3" d="M131.4,57.1c-0.2,0.1-0.3,0-0.4-0.2l-1.8-4.4l-3.3,3.5c-0.1,0.1-0.3,0.1-0.4,0c-0.1-0.1-0.1-0.3,0-0.4
					l3.6-3.8c0.1-0.1,0.2-0.1,0.3-0.1s0.2,0.1,0.2,0.2l1.9,4.9c0,0.1,0,0.1,0,0.2C131.6,56.9,131.5,57,131.4,57.1z"/>
			</g>
		</g>
	</g>
	<g>
		<g class="st1">
			<polyline class="st2" points="82.4,131.3 98,166.4 104.2,108.3 			"/>
			<g>
				<path class="st3" d="M106.8,112.9c-0.2,0.1-0.3,0-0.4-0.1l-2.1-4.3l-3,3.7c-0.1,0.1-0.3,0.2-0.4,0.1c-0.1-0.1-0.2-0.3,0-0.4
					l3.3-4.1c0.1-0.1,0.2-0.1,0.3-0.1c0.1,0,0.2,0.1,0.2,0.2l2.3,4.7c0,0.1,0,0.1,0,0.2C106.9,112.8,106.9,112.8,106.8,112.9z"/>
			</g>
		</g>
	</g>
	<g>
		<g class="st1">
			<polyline class="st2" points="53.4,121.8 67.7,98.3 82.1,130.7 			"/>
			<g>
				<path class="st3" d="M77.7,128c0.1-0.1,0.3-0.2,0.4-0.1l4,2.6l0.7-4.7c0-0.2,0.2-0.3,0.4-0.3c0.2,0,0.3,0.2,0.3,0.4l-0.8,5.2
					c0,0.1-0.1,0.2-0.2,0.2c-0.1,0-0.2,0-0.3,0l-4.4-2.9c-0.1,0-0.1-0.1-0.1-0.1C77.6,128.2,77.6,128.1,77.7,128z"/>
			</g>
		</g>
	</g>
	<g>
		<g class="st1">
			<line class="st2" x1="38.6" y1="146" x2="53" y2="122.4"/>
			<g>
				<path class="st3" d="M53.3,127.6c-0.2,0-0.3-0.1-0.3-0.3l-0.1-4.8l-4.3,2.1c-0.2,0.1-0.3,0-0.4-0.1s0-0.3,0.1-0.4l4.7-2.3
					c0.1,0,0.2,0,0.3,0c0.1,0.1,0.1,0.2,0.1,0.3l0.1,5.3c0,0.1,0,0.1,0,0.2C53.5,127.5,53.4,127.6,53.3,127.6z"/>
			</g>
		</g>
	</g>
	<polyline class="st2" points="16.7,16.7 16.7,183.3 183.3,183.3 	"/>
	<circle class="st3" cx="133.4" cy="30.6" r="5.2"/>
	<path class="st3" d="M129.6,73.8c0.9,3.9-2.5,7.3-6.3,6.3c-1.8-0.4-3.3-1.9-3.8-3.8c-0.9-3.9,2.5-7.3,6.3-6.3
		C127.6,70.4,129.1,71.9,129.6,73.8z"/>
	<circle class="st3" cx="109.1" cy="62.7" r="5.2"/>
	<circle class="st3" cx="67.7" cy="98.3" r="5.2"/>
	<circle class="st3" cx="166.4" cy="87.8" r="5.2"/>
	<circle class="st3" cx="38.6" cy="146" r="5.2"/>
	<circle class="st3" cx="97.6" cy="166.4" r="5.2"/>
</g>
</svg>
