<?xml version="1.0" encoding="utf-8"?>
<!-- Generator: Adobe Illustrator 19.2.1, SVG Export Plug-In . SVG Version: 6.00 Build 0)  -->
<svg version="1.1" id="Layer_1" xmlns="http://www.w3.org/2000/svg" xmlns:xlink="http://www.w3.org/1999/xlink" x="0px" y="0px"
	 viewBox="0 0 200 200" style="enable-background:new 0 0 200 200;" xml:space="preserve">
<style type="text/css">
	.st0{opacity:0.25;fill:none;}
	.st1{fill:#28903B;}
</style>
<g>
	<g>
		<rect class="st0" width="200" height="200"/>
	</g>
</g>
<g>
	<g>
		<rect x="94.9" y="11.3" class="st1" width="10.3" height="2.7"/>
		<rect x="91.2" y="14.1" class="st1" width="17.6" height="2.7"/>
		<rect x="94.1" y="16.8" class="st1" width="11.8" height="2.7"/>
		<rect x="86" y="19.5" class="st1" width="27.9" height="2.7"/>
		<rect x="94.9" y="22.3" class="st1" width="10.3" height="2.7"/>
		<rect x="94.1" y="25" class="st1" width="11.8" height="2.7"/>
		<rect x="89.7" y="27.7" class="st1" width="20.6" height="2.7"/>
		<rect x="89" y="30.4" class="st1" width="22" height="2.7"/>
		<rect x="94.9" y="33.2" class="st1" width="10.3" height="2.7"/>
		<rect x="89.7" y="35.9" class="st1" width="20.6" height="2.7"/>
		<rect x="95.6" y="38.6" class="st1" width="8.8" height="2.7"/>
		<rect x="94.1" y="41.3" class="st1" width="11.8" height="2.7"/>
		<rect x="92.7" y="44.1" class="st1" width="14.7" height="2.7"/>
		<rect x="98.5" y="46.8" class="st1" width="2.9" height="2.7"/>
		<rect x="83.9" y="49.5" class="st1" width="32.3" height="2.7"/>
		<rect x="96.3" y="52.3" class="st1" width="7.3" height="2.7"/>
		<rect x="88.3" y="55" class="st1" width="23.5" height="2.7"/>
		<rect x="94.9" y="57.7" class="st1" width="10.3" height="2.7"/>
		<rect x="89.7" y="60.4" class="st1" width="20.6" height="2.7"/>
		<rect x="89" y="63.2" class="st1" width="22" height="2.7"/>
		<rect x="93.4" y="65.9" class="st1" width="13.2" height="2.7"/>
		<rect x="91.9" y="68.6" class="st1" width="16.1" height="2.7"/>
		<rect x="86.8" y="71.4" class="st1" width="26.4" height="2.7"/>
		<rect x="88.3" y="74.1" class="st1" width="23.5" height="2.7"/>
		<rect x="87.5" y="76.8" class="st1" width="25" height="2.7"/>
		<rect x="85.3" y="79.5" class="st1" width="29.4" height="2.7"/>
		<rect x="86.8" y="82.3" class="st1" width="26.4" height="2.7"/>
		<rect x="77.2" y="85" class="st1" width="45.5" height="2.7"/>
		<rect x="96.3" y="87.7" class="st1" width="7.3" height="2.7"/>
		<rect x="92.7" y="90.5" class="st1" width="14.7" height="2.7"/>
		<rect x="86.8" y="93.2" class="st1" width="26.4" height="2.7"/>
		<rect x="89.7" y="95.9" class="st1" width="20.6" height="2.7"/>
		<rect x="83.1" y="98.6" class="st1" width="33.8" height="2.7"/>
		<rect x="90.5" y="101.4" class="st1" width="19.1" height="2.7"/>
		<rect x="86.8" y="104.1" class="st1" width="26.4" height="2.7"/>
		<rect x="93.4" y="106.8" class="st1" width="13.2" height="2.7"/>
		<rect x="81.6" y="109.5" class="st1" width="36.7" height="2.7"/>
		<rect x="61.1" y="112.3" class="st1" width="77.8" height="2.7"/>
		<rect x="72.8" y="115" class="st1" width="54.3" height="2.7"/>
		<rect x="86.8" y="117.7" class="st1" width="26.4" height="2.7"/>
		<rect x="89.7" y="120.5" class="st1" width="20.6" height="2.7"/>
		<rect x="70.6" y="123.2" class="st1" width="58.8" height="2.7"/>
		<rect x="60.4" y="125.9" class="st1" width="79.3" height="2.7"/>
		<rect x="76.5" y="128.6" class="st1" width="47" height="2.7"/>
		<rect x="81.6" y="131.4" class="st1" width="36.7" height="2.7"/>
		<rect x="78" y="134.1" class="st1" width="44.1" height="2.7"/>
		<rect x="66.2" y="136.8" class="st1" width="67.6" height="2.7"/>
		<rect x="49.3" y="139.6" class="st1" width="101.3" height="2.7"/>
		<rect x="75.8" y="142.3" class="st1" width="48.4" height="2.7"/>
		<rect x="86.8" y="145" class="st1" width="26.4" height="2.7"/>
		<rect x="72.8" y="147.7" class="st1" width="54.3" height="2.7"/>
		<rect x="61.1" y="150.5" class="st1" width="77.8" height="2.7"/>
		<rect x="36.9" y="153.2" class="st1" width="126.3" height="2.7"/>
		<rect x="44.9" y="155.9" class="st1" width="110.1" height="2.7"/>
		<rect x="75.8" y="158.7" class="st1" width="48.4" height="2.7"/>
		<rect x="72.8" y="161.4" class="st1" width="54.3" height="2.7"/>
		<rect x="50.1" y="164.1" class="st1" width="99.9" height="2.7"/>
		<rect x="58.9" y="166.8" class="st1" width="82.3" height="2.7"/>
		<rect x="75.8" y="169.6" class="st1" width="48.4" height="2.7"/>
		<rect x="57.4" y="172.3" class="st1" width="85.2" height="2.7"/>
		<rect x="68.4" y="175" class="st1" width="63.1" height="2.7"/>
		<rect x="11.9" y="177.7" class="st1" width="176.2" height="2.7"/>
		<rect x="42" y="180.5" class="st1" width="116" height="2.7"/>
		<rect x="47.1" y="183.2" class="st1" width="105.8" height="2.7"/>
		<rect x="59.6" y="185.9" class="st1" width="80.7" height="2.7"/>
	</g>
</g>
</svg>
