<?xml version="1.0" encoding="utf-8"?>
<!-- Generator: Adobe Illustrator 19.2.1, SVG Export Plug-In . SVG Version: 6.00 Build 0)  -->
<svg version="1.1" id="Layer_1" xmlns="http://www.w3.org/2000/svg" xmlns:xlink="http://www.w3.org/1999/xlink" x="0px" y="0px"
	 viewBox="0 0 200 195.7" style="enable-background:new 0 0 200 195.7;" xml:space="preserve">
<style type="text/css">
	.st0{opacity:0.25;fill:#F26522;}
	.st1{fill:#F26522;}
</style>
<g>
	<g>
		<rect class="st0" width="200" height="195.7"/>
	</g>
	<polygon class="st1" points="73,179.4 73,179.1 73.1,178.7 73.1,178.4 73.1,178.1 73.2,177.8 73.3,177.5 73.4,177.1 73.5,176.8 
		73.6,176.5 73.7,176.2 73.9,175.9 74.1,175.5 74.2,175.2 74.4,174.9 74.6,174.6 74.8,174.3 75.1,174 75.3,173.6 75.5,173.3 
		75.8,173 76.1,172.7 76.3,172.4 76.6,172 76.9,171.7 77.2,171.4 77.5,171.1 77.9,170.8 78.2,170.4 78.5,170.1 78.9,169.8 
		79.2,169.5 79.6,169.2 79.9,168.9 80.3,168.5 80.6,168.2 81,167.9 81.4,167.6 81.7,167.2 82.1,166.9 82.5,166.6 82.9,166.3 
		83.2,166 83.6,165.7 84,165.3 84.3,165 84.7,164.7 85.1,164.4 85.4,164.1 85.8,163.7 86.2,163.4 86.5,163.1 86.9,162.8 87.2,162.5 
		87.5,162.1 87.9,161.8 88.2,161.5 88.5,161.2 88.8,160.9 89.1,160.6 89.4,160.2 89.7,159.9 90,159.6 90.3,159.3 90.6,159 
		90.8,158.6 91.1,158.3 91.3,158 91.6,157.7 91.8,157.4 92,157 92.3,156.7 92.5,156.4 92.7,156.1 92.8,155.8 93,155.4 93.2,155.1 
		93.3,154.8 93.5,154.5 93.6,154.2 93.8,153.9 93.9,153.5 94,153.2 94.1,152.9 94.2,152.6 94.3,152.2 94.3,151.9 94.4,151.6 
		94.4,151.3 94.5,151 94.5,150.7 94.5,150.3 94.6,150 94.6,149.7 94.6,149.4 94.6,149.1 94.5,148.7 94.5,148.4 94.5,148.1 
		94.4,147.8 94.4,147.5 94.3,147.1 94.2,146.8 94.1,146.5 94.1,146.2 94,145.9 93.8,145.6 93.7,145.2 93.6,144.9 93.5,144.6 
		93.3,144.3 93.2,144 93.1,143.6 92.9,143.3 92.7,143 92.6,142.7 92.4,142.4 92.2,142 92,141.7 91.8,141.4 91.6,141.1 91.4,140.8 
		91.2,140.4 91,140.1 90.7,139.8 90.5,139.5 90.3,139.2 90,138.9 89.8,138.5 89.6,138.2 89.3,137.9 89,137.6 88.8,137.3 88.5,136.9 
		88.3,136.6 88,136.3 87.7,136 87.4,135.7 87.1,135.3 86.8,135 86.6,134.7 86.3,134.4 86,134.1 85.7,133.7 85.3,133.4 85,133.1 
		84.7,132.8 84.4,132.5 84.1,132.1 83.8,131.8 83.4,131.5 83.1,131.2 82.8,130.9 82.5,130.6 82.1,130.2 81.8,129.9 81.5,129.6 
		81.1,129.3 80.8,129 80.4,128.6 80,128.3 79.7,128 79.3,127.7 79,127.4 78.6,127 78.2,126.7 77.8,126.4 77.5,126.1 77.1,125.8 
		76.7,125.5 76.3,125.1 75.9,124.8 75.5,124.5 75.1,124.2 74.7,123.9 74.2,123.5 73.8,123.2 73.4,122.9 73,122.6 72.5,122.3 
		72.1,121.9 71.6,121.6 71.1,121.3 70.7,121 70.2,120.7 69.7,120.3 69.2,120 68.7,119.7 68.2,119.4 67.7,119.1 67.2,118.7 
		66.7,118.4 66.1,118.1 65.6,117.8 65,117.5 64.5,117.1 63.9,116.8 63.3,116.5 62.7,116.2 62.1,115.9 61.5,115.6 60.9,115.2 
		60.3,114.9 59.6,114.6 59,114.3 58.4,114 57.7,113.6 57,113.3 56.4,113 55.7,112.7 55,112.4 54.3,112 53.6,111.7 52.9,111.4 
		52.2,111.1 51.5,110.8 50.7,110.5 50,110.1 49.2,109.8 48.5,109.5 47.7,109.2 47,108.8 46.2,108.5 45.5,108.2 44.7,107.9 44,107.6 
		43.2,107.3 42.4,106.9 41.7,106.6 40.9,106.3 40.1,106 39.3,105.7 38.6,105.3 37.8,105 37.1,104.7 36.3,104.4 35.6,104.1 
		34.8,103.7 34.1,103.4 33.3,103.1 32.6,102.8 31.9,102.5 31.2,102.2 30.5,101.8 29.8,101.5 29.1,101.2 28.5,100.9 27.8,100.6 
		27.2,100.2 26.5,99.9 25.9,99.6 25.3,99.3 24.7,99 24.2,98.6 23.6,98.3 23.1,98 22.6,97.7 22.1,97.4 21.6,97 21.1,96.7 20.7,96.4 
		20.3,96.1 19.9,95.8 19.5,95.5 19.2,95.1 18.8,94.8 18.5,94.5 18.2,94.2 18,93.9 17.7,93.5 17.5,93.2 17.3,92.9 17.1,92.6 17,92.3 
		16.9,91.9 16.8,91.6 16.7,91.3 16.7,91 16.7,90.7 16.7,90.3 16.7,90 16.7,89.7 16.8,89.4 16.9,89.1 17.1,88.7 17.2,88.4 17.4,88.1 
		17.6,87.8 17.8,87.5 18,87.2 18.3,86.8 18.6,86.5 18.9,86.2 19.2,85.9 19.6,85.6 20,85.2 20.4,84.9 20.8,84.6 21.2,84.3 21.7,84 
		22.1,83.6 22.6,83.3 23.1,83 23.6,82.7 24.2,82.4 24.7,82 25.3,81.7 25.8,81.4 26.4,81.1 27,80.8 27.6,80.5 28.3,80.1 28.9,79.8 
		29.5,79.5 30.2,79.2 30.8,78.9 31.5,78.5 32.2,78.2 32.9,77.9 33.6,77.6 34.3,77.3 34.9,76.9 35.6,76.6 36.4,76.3 37.1,76 
		37.7,75.7 38.5,75.3 39.2,75 39.9,74.7 40.6,74.4 41.3,74.1 42,73.7 42.7,73.4 43.4,73.1 44.1,72.8 44.8,72.5 45.5,72.2 46.2,71.8 
		46.9,71.5 47.5,71.2 48.2,70.9 48.9,70.6 49.5,70.2 50.2,69.9 50.8,69.6 51.5,69.3 52.1,69 52.7,68.6 53.3,68.3 54,68 54.6,67.7 
		55.2,67.4 55.8,67.1 56.3,66.7 56.9,66.4 57.5,66.1 58,65.8 58.6,65.5 59.1,65.1 59.6,64.8 60.1,64.5 60.7,64.2 61.2,63.9 
		61.7,63.5 62.1,63.2 62.6,62.9 63.1,62.6 63.5,62.3 64,61.9 64.4,61.6 64.9,61.3 65.3,61 65.7,60.7 66.1,60.3 66.5,60 66.9,59.7 
		67.3,59.4 67.7,59.1 68,58.8 68.4,58.4 68.8,58.1 69.1,57.8 69.5,57.5 69.8,57.2 70.1,56.8 70.4,56.5 70.7,56.2 71.1,55.9 
		71.4,55.6 71.6,55.2 71.9,54.9 72.2,54.6 72.5,54.3 72.8,54 73,53.6 73.3,53.3 73.5,53 73.8,52.7 74,52.4 74.2,52.1 74.4,51.7 
		74.6,51.4 74.8,51.1 75.1,50.8 75.2,50.5 75.4,50.1 75.6,49.8 75.8,49.5 76,49.2 76.1,48.9 76.3,48.5 76.5,48.2 76.6,47.9 
		76.7,47.6 76.9,47.3 77,46.9 77.1,46.6 77.2,46.3 77.3,46 77.4,45.7 77.5,45.3 77.6,45 77.7,44.7 77.8,44.4 77.8,44.1 77.9,43.8 
		78,43.4 78,43.1 78,42.8 78.1,42.5 78.1,42.2 78.1,41.8 78.1,41.5 78.1,41.2 78.1,40.9 78.1,40.6 78.1,40.2 78.1,39.9 78,39.6 
		78,39.3 77.9,39 77.9,38.6 77.8,38.3 77.8,38 77.7,37.7 77.6,37.4 77.5,37.1 77.5,36.7 77.4,36.4 77.3,36.1 77.2,35.8 77.1,35.5 
		77,35.1 76.8,34.8 76.7,34.5 76.6,34.2 76.5,33.9 76.4,33.5 76.2,33.2 76.1,32.9 76,32.6 75.9,32.3 75.7,32 75.6,31.6 75.5,31.3 
		75.3,31 75.2,30.7 75.1,30.3 74.9,30 74.8,29.7 74.7,29.4 74.6,29.1 74.4,28.8 74.3,28.4 74.2,28.1 74.1,27.8 74,27.5 73.9,27.2 
		73.8,26.8 73.8,26.5 73.7,26.2 73.6,25.9 73.5,25.6 73.5,25.2 73.4,24.9 73.4,24.6 73.3,24.3 73.3,24 73.3,23.6 73.3,23.3 73.3,23 
		73.3,22.7 73.3,22.4 73.3,22.1 73.3,21.7 73.4,21.4 73.4,21.1 73.5,20.8 73.5,20.5 73.6,20.1 73.7,19.8 73.8,19.5 73.9,19.2 
		74,18.9 74.2,18.5 74.3,18.2 74.4,17.9 74.6,17.6 74.8,17.3 74.9,17 75.1,16.6 75.3,16.3 124.7,16.3 124.9,16.6 125.1,17 
		125.2,17.3 125.4,17.6 125.6,17.9 125.7,18.2 125.8,18.5 126,18.9 126.1,19.2 126.2,19.5 126.3,19.8 126.4,20.1 126.5,20.5 
		126.5,20.8 126.6,21.1 126.6,21.4 126.7,21.7 126.7,22.1 126.7,22.4 126.7,22.7 126.7,23 126.7,23.3 126.7,23.6 126.7,24 
		126.7,24.3 126.6,24.6 126.6,24.9 126.5,25.2 126.5,25.6 126.4,25.9 126.3,26.2 126.2,26.5 126.2,26.8 126.1,27.2 126,27.5 
		125.9,27.8 125.8,28.1 125.7,28.4 125.5,28.8 125.4,29.1 125.3,29.4 125.2,29.7 125.1,30 124.9,30.3 124.8,30.7 124.7,31 
		124.5,31.3 124.4,31.6 124.3,32 124.1,32.3 124,32.6 123.9,32.9 123.8,33.2 123.6,33.5 123.5,33.9 123.4,34.2 123.3,34.5 
		123.1,34.8 123,35.1 122.9,35.5 122.8,35.8 122.7,36.1 122.6,36.4 122.5,36.7 122.5,37.1 122.4,37.4 122.3,37.7 122.2,38 
		122.2,38.3 122.1,38.6 122.1,39 122,39.3 122,39.6 121.9,39.9 121.9,40.2 121.9,40.6 121.9,40.9 121.9,41.2 121.9,41.5 121.9,41.8 
		121.9,42.2 121.9,42.5 122,42.8 122,43.1 122,43.4 122.1,43.8 122.2,44.1 122.2,44.4 122.3,44.7 122.4,45 122.5,45.3 122.6,45.7 
		122.6,46 122.8,46.3 122.9,46.6 123,46.9 123.1,47.3 123.3,47.6 123.4,47.9 123.5,48.2 123.7,48.5 123.9,48.9 124,49.2 124.2,49.5 
		124.4,49.8 124.6,50.1 124.7,50.5 124.9,50.8 125.1,51.1 125.4,51.4 125.6,51.7 125.8,52.1 126,52.4 126.2,52.7 126.5,53 
		126.7,53.3 127,53.6 127.2,54 127.5,54.3 127.8,54.6 128.1,54.9 128.4,55.2 128.6,55.6 128.9,55.9 129.2,56.2 129.6,56.5 
		129.9,56.8 130.2,57.2 130.5,57.5 130.9,57.8 131.2,58.1 131.6,58.4 132,58.8 132.3,59.1 132.7,59.4 133.1,59.7 133.5,60 
		133.9,60.3 134.3,60.7 134.7,61 135.1,61.3 135.6,61.6 136,61.9 136.5,62.3 136.9,62.6 137.4,62.9 137.9,63.2 138.3,63.5 
		138.8,63.9 139.3,64.2 139.9,64.5 140.4,64.8 140.9,65.1 141.4,65.5 142,65.8 142.5,66.1 143.1,66.4 143.7,66.7 144.2,67.1 
		144.8,67.4 145.4,67.7 146,68 146.6,68.3 147.3,68.6 147.9,69 148.5,69.3 149.2,69.6 149.8,69.9 150.5,70.2 151.1,70.6 151.8,70.9 
		152.5,71.2 153.1,71.5 153.8,71.8 154.5,72.2 155.2,72.5 155.9,72.8 156.6,73.1 157.3,73.4 158,73.7 158.7,74.1 159.4,74.4 
		160.1,74.7 160.8,75 161.5,75.3 162.3,75.7 162.9,76 163.6,76.3 164.3,76.6 165,76.9 165.7,77.3 166.4,77.6 167.1,77.9 167.8,78.2 
		168.5,78.5 169.2,78.9 169.8,79.2 170.4,79.5 171.1,79.8 171.7,80.1 172.3,80.5 173,80.8 173.6,81.1 174.2,81.4 174.7,81.7 
		175.3,82 175.8,82.4 176.4,82.7 176.9,83 177.4,83.3 177.9,83.6 178.3,84 178.8,84.3 179.2,84.6 179.6,84.9 180,85.2 180.4,85.6 
		180.8,85.9 181.1,86.2 181.4,86.5 181.7,86.8 181.9,87.2 182.2,87.5 182.4,87.8 182.6,88.1 182.8,88.4 182.9,88.7 183.1,89.1 
		183.2,89.4 183.3,89.7 183.3,90 183.3,90.3 183.3,90.7 183.3,91 183.3,91.3 183.2,91.6 183.1,91.9 183,92.3 182.8,92.6 182.7,92.9 
		182.5,93.2 182.3,93.5 182,93.9 181.8,94.2 181.5,94.5 181.2,94.8 180.8,95.1 180.5,95.5 180.1,95.8 179.7,96.1 179.3,96.4 
		178.8,96.7 178.4,97 177.9,97.4 177.4,97.7 176.9,98 176.4,98.3 175.8,98.6 175.3,99 174.7,99.3 174.1,99.6 173.5,99.9 
		172.8,100.2 172.2,100.6 171.5,100.9 170.9,101.2 170.2,101.5 169.5,101.8 168.8,102.2 168.1,102.5 167.4,102.8 166.6,103.1 
		165.9,103.4 165.2,103.7 164.4,104.1 163.7,104.4 162.9,104.7 162.2,105 161.4,105.3 160.6,105.7 159.9,106 159.1,106.3 
		158.3,106.6 157.6,106.9 156.8,107.3 156,107.6 155.3,107.9 154.5,108.2 153.8,108.5 153,108.8 152.2,109.2 151.5,109.5 
		150.7,109.8 150,110.1 149.3,110.5 148.5,110.8 147.8,111.1 147.1,111.4 146.4,111.7 145.7,112 145,112.4 144.3,112.7 143.6,113 
		143,113.3 142.3,113.6 141.6,114 141,114.3 140.4,114.6 139.7,114.9 139.1,115.2 138.5,115.6 137.9,115.9 137.3,116.2 136.7,116.5 
		136.1,116.8 135.5,117.1 135,117.5 134.4,117.8 133.9,118.1 133.3,118.4 132.8,118.7 132.3,119.1 131.8,119.4 131.3,119.7 
		130.8,120 130.3,120.3 129.8,120.7 129.3,121 128.8,121.3 128.4,121.6 127.9,121.9 127.5,122.3 127,122.6 126.6,122.9 126.2,123.2 
		125.8,123.5 125.3,123.9 124.9,124.2 124.5,124.5 124.1,124.8 123.7,125.1 123.3,125.5 122.9,125.8 122.5,126.1 122.2,126.4 
		121.8,126.7 121.4,127 121,127.4 120.7,127.7 120.3,128 119.9,128.3 119.6,128.6 119.2,129 118.9,129.3 118.5,129.6 118.2,129.9 
		117.9,130.2 117.5,130.6 117.2,130.9 116.9,131.2 116.6,131.5 116.2,131.8 115.9,132.1 115.6,132.5 115.3,132.8 115,133.1 
		114.7,133.4 114.3,133.7 114,134.1 113.7,134.4 113.4,134.7 113.2,135 112.9,135.3 112.6,135.7 112.3,136 112,136.3 111.7,136.6 
		111.5,136.9 111.2,137.3 111,137.6 110.7,137.9 110.4,138.2 110.2,138.5 110,138.9 109.7,139.2 109.5,139.5 109.2,139.8 109,140.1 
		108.8,140.4 108.6,140.8 108.4,141.1 108.2,141.4 108,141.7 107.8,142 107.6,142.4 107.4,142.7 107.3,143 107.1,143.3 106.9,143.6 
		106.8,144 106.6,144.3 106.5,144.6 106.4,144.9 106.3,145.2 106.1,145.6 106,145.9 105.9,146.2 105.9,146.5 105.8,146.8 
		105.7,147.1 105.6,147.5 105.6,147.8 105.5,148.1 105.5,148.4 105.5,148.7 105.4,149.1 105.4,149.4 105.4,149.7 105.4,150 
		105.4,150.3 105.5,150.7 105.5,151 105.5,151.3 105.6,151.6 105.7,151.9 105.7,152.2 105.8,152.6 105.9,152.9 106,153.2 
		106.1,153.5 106.2,153.9 106.4,154.2 106.5,154.5 106.7,154.8 106.8,155.1 107,155.4 107.2,155.8 107.3,156.1 107.5,156.4 
		107.7,156.7 108,157 108.2,157.4 108.4,157.7 108.7,158 108.9,158.3 109.2,158.6 109.4,159 109.7,159.3 110,159.6 110.3,159.9 
		110.6,160.2 110.9,160.6 111.1,160.9 111.5,161.2 111.8,161.5 112.1,161.8 112.5,162.1 112.8,162.5 113.1,162.8 113.5,163.1 
		113.8,163.4 114.2,163.7 114.6,164.1 114.9,164.4 115.3,164.7 115.7,165 116,165.3 116.4,165.7 116.8,166 117.1,166.3 117.5,166.6 
		117.9,166.9 118.3,167.2 118.6,167.6 119,167.9 119.3,168.2 119.7,168.5 120.1,168.9 120.4,169.2 120.8,169.5 121.1,169.8 
		121.5,170.1 121.8,170.4 122.1,170.8 122.4,171.1 122.8,171.4 123.1,171.7 123.4,172 123.7,172.4 123.9,172.7 124.2,173 
		124.5,173.3 124.7,173.6 124.9,174 125.2,174.3 125.4,174.6 125.6,174.9 125.8,175.2 125.9,175.5 126.1,175.9 126.2,176.2 
		126.4,176.5 126.5,176.8 126.6,177.1 126.7,177.5 126.8,177.8 126.9,178.1 126.9,178.4 126.9,178.7 127,179.1 127,179.4 	"/>
</g>
</svg>
